<svg width="162" height="44" viewBox="0 0 162 44" fill="none" xmlns="http://www.w3.org/2000/svg">
<g filter="url(#filter0_b_9_815)">
<path d="M0 22C0 9.84974 9.84973 0 22 0H140C152.15 0 162 9.84974 162 22V22C162 34.1503 152.15 44 140 44H22C9.84973 44 0 34.1503 0 22V22Z" fill="#C2DD77"/>
<path d="M62.5883 12.044C62.5883 8.866 64.8423 6.836 67.9363 6.836C71.0303 6.836 73.2843 8.866 73.2843 12.044C73.2843 15.222 71.0303 17.252 67.9363 17.252C64.8423 17.252 62.5883 15.222 62.5883 12.044ZM64.8563 12.044C64.8563 13.892 66.0743 15.236 67.9363 15.236C69.7983 15.236 71.0163 13.892 71.0163 12.044C71.0163 10.196 69.7983 8.852 67.9363 8.852C66.0743 8.852 64.8563 10.196 64.8563 12.044ZM74.5027 17V6.416H76.6027V12.884L78.9267 10.196H81.5027L78.8007 13.262L81.5727 17H78.9267L76.6307 13.556H76.6027V17H74.5027ZM86.552 17V16.146H86.524C86.062 16.874 85.222 17.168 84.368 17.168C83.094 17.168 81.946 16.44 81.946 15.068C81.946 12.716 84.802 12.674 86.552 12.674C86.552 11.932 85.936 11.456 85.208 11.456C84.522 11.456 83.948 11.764 83.5 12.268L82.38 11.12C83.15 10.392 84.27 10.028 85.376 10.028C87.826 10.028 88.484 11.274 88.484 13.542V17H86.552ZM86.552 14.018H86.034C85.39 14.018 83.962 14.074 83.962 14.998C83.962 15.502 84.494 15.74 84.956 15.74C85.782 15.74 86.552 15.306 86.552 14.466V14.018ZM93.2596 17.14C92.5036 17.14 91.8596 17.0047 91.3276 16.734C90.7956 16.454 90.3896 16.0247 90.1096 15.446C89.8296 14.8673 89.6896 14.1253 89.6896 13.22C89.6896 12.2867 89.8482 11.526 90.1656 10.938C90.4829 10.35 90.9216 9.916 91.4816 9.636C92.0509 9.356 92.7042 9.216 93.4416 9.216C93.9642 9.216 94.4169 9.26733 94.7996 9.37C95.1916 9.47267 95.5322 9.594 95.8216 9.734L95.2056 11.344C94.8789 11.2133 94.5709 11.106 94.2816 11.022C94.0016 10.938 93.7216 10.896 93.4416 10.896C93.0776 10.896 92.7742 10.9847 92.5316 11.162C92.2889 11.33 92.1069 11.5867 91.9856 11.932C91.8736 12.268 91.8176 12.6927 91.8176 13.206C91.8176 13.71 91.8782 14.13 91.9996 14.466C92.1302 14.7927 92.3169 15.04 92.5596 15.208C92.8022 15.3667 93.0962 15.446 93.4416 15.446C93.8802 15.446 94.2676 15.39 94.6036 15.278C94.9396 15.1567 95.2662 14.9933 95.5836 14.788V16.566C95.2662 16.7713 94.9302 16.916 94.5756 17C94.2302 17.0933 93.7916 17.14 93.2596 17.14ZM91.8596 8.516C91.7289 8.30133 91.5562 8.068 91.3416 7.816C91.1362 7.564 90.9216 7.31667 90.6976 7.074C90.4829 6.83133 90.2869 6.626 90.1096 6.458V6.276H91.4956C91.7382 6.42533 91.9996 6.60267 92.2796 6.808C92.5596 7.004 92.8209 7.228 93.0636 7.48C93.3062 7.228 93.5722 7.004 93.8616 6.808C94.1509 6.60267 94.4169 6.42533 94.6596 6.276H96.0456V6.458C95.8776 6.626 95.6816 6.83133 95.4576 7.074C95.2336 7.31667 95.0142 7.564 94.7996 7.816C94.5942 8.068 94.4262 8.30133 94.2956 8.516H91.8596ZM97.021 17V10.196H99.121V17H97.021ZM96.853 8.054C96.853 7.382 97.399 6.836 98.071 6.836C98.743 6.836 99.289 7.382 99.289 8.054C99.289 8.726 98.743 9.272 98.071 9.272C97.399 9.272 96.853 8.726 96.853 8.054ZM47.2171 34V28.876H45.8311V27.196H47.2171V25.992C47.2171 24.508 47.5951 23.248 49.8771 23.248C50.2971 23.248 50.7171 23.276 51.1091 23.374L51.0111 25.152C50.7731 25.068 50.5771 25.012 50.3251 25.012C49.6531 25.012 49.3171 25.222 49.3171 26.118V27.196H50.8711V28.876H49.3171V34H47.2171ZM51.4187 30.598C51.4187 28.428 53.0987 27.028 55.1987 27.028C57.2987 27.028 58.9787 28.428 58.9787 30.598C58.9787 32.768 57.2987 34.168 55.1987 34.168C53.0987 34.168 51.4187 32.768 51.4187 30.598ZM53.5187 30.598C53.5187 31.62 54.1487 32.32 55.1987 32.32C56.2487 32.32 56.8787 31.62 56.8787 30.598C56.8787 29.576 56.2487 28.876 55.1987 28.876C54.1487 28.876 53.5187 29.576 53.5187 30.598ZM64.8496 27.196V28.876H63.0016V31.144C63.0016 31.872 63.0856 32.404 63.9956 32.404C64.2196 32.404 64.6676 32.376 64.8496 32.208V33.958C64.3876 34.126 63.8696 34.168 63.3796 34.168C61.9796 34.168 60.9016 33.594 60.9016 32.11V28.876H59.5576V27.196H60.9016V25.18H63.0016V27.196H64.8496ZM65.6648 30.598C65.6648 28.428 67.3448 27.028 69.4448 27.028C71.5448 27.028 73.2248 28.428 73.2248 30.598C73.2248 32.768 71.5448 34.168 69.4448 34.168C67.3448 34.168 65.6648 32.768 65.6648 30.598ZM67.7648 30.598C67.7648 31.62 68.3948 32.32 69.4448 32.32C70.4948 32.32 71.1248 31.62 71.1248 30.598C71.1248 29.576 70.4948 28.876 69.4448 28.876C68.3948 28.876 67.7648 29.576 67.7648 30.598ZM81.6017 27.196V33.426C81.6017 35.988 80.2997 37.36 77.6677 37.36C76.4637 37.36 75.2317 37.15 74.2517 36.366L75.4137 34.63C76.0577 35.176 76.7717 35.512 77.6257 35.512C78.8997 35.512 79.5017 34.812 79.5017 33.846V33.188H79.4737C78.9977 33.846 78.1857 34.084 77.5557 34.084C75.5397 34.084 74.2097 32.628 74.2097 30.57C74.2097 28.764 75.3857 27.028 77.3177 27.028C78.5077 27.028 79.3197 27.602 79.6417 28.092H79.6697V27.196H81.6017ZM76.3097 30.556C76.3097 31.438 77.0377 32.236 77.9897 32.236C78.9417 32.236 79.6697 31.438 79.6697 30.556C79.6697 29.674 78.9417 28.876 77.9897 28.876C77.0377 28.876 76.3097 29.674 76.3097 30.556ZM83.2801 34V27.196H85.3801V28.288H85.4081C85.8561 27.462 86.4441 27.028 87.3681 27.028C87.6061 27.028 87.8721 27.042 88.0681 27.098V29.016C87.7741 28.932 87.4801 28.876 87.1721 28.876C85.5761 28.876 85.3801 29.8 85.3801 31.158V34H83.2801ZM93.2513 34V33.146H93.2233C92.7613 33.874 91.9213 34.168 91.0673 34.168C89.7933 34.168 88.6453 33.44 88.6453 32.068C88.6453 29.716 91.5013 29.674 93.2513 29.674C93.2513 28.932 92.6353 28.456 91.9073 28.456C91.2213 28.456 90.6473 28.764 90.1993 29.268L89.0793 28.12C89.8493 27.392 90.9693 27.028 92.0753 27.028C94.5253 27.028 95.1833 28.274 95.1833 30.542V34H93.2513ZM93.2513 31.018H92.7333C92.0893 31.018 90.6613 31.074 90.6613 31.998C90.6613 32.502 91.1933 32.74 91.6553 32.74C92.4813 32.74 93.2513 32.306 93.2513 31.466V31.018ZM101.709 34V27.196H103.809V34H101.709ZM101.541 25.054C101.541 24.382 102.087 23.836 102.759 23.836C103.431 23.836 103.977 24.382 103.977 25.054C103.977 25.726 103.431 26.272 102.759 26.272C102.087 26.272 101.541 25.726 101.541 25.054ZM97.2288 34V28.876H95.8428V27.196H97.2288V25.992C97.2288 24.508 97.6068 23.248 99.8888 23.248C100.309 23.248 100.729 23.276 101.121 23.374L101.023 25.152C100.785 25.068 100.589 25.012 100.337 25.012C99.6648 25.012 99.3288 25.222 99.3288 26.118V27.196H100.883V28.876H99.3288V34H97.2288ZM107.447 27.196V34.504C107.447 36.24 106.845 37.36 104.927 37.36C104.605 37.36 104.255 37.346 103.947 37.248L104.059 35.386C104.227 35.47 104.423 35.512 104.605 35.512C105.333 35.512 105.347 34.658 105.347 34.14V27.196H107.447ZM105.179 25.054C105.179 24.382 105.725 23.836 106.397 23.836C107.069 23.836 107.615 24.382 107.615 25.054C107.615 25.726 107.069 26.272 106.397 26.272C105.725 26.272 105.179 25.726 105.179 25.054ZM115.508 27.196V34H113.492V33.076H113.464C113.184 33.608 112.498 34.168 111.476 34.168C109.348 34.168 108.956 32.768 108.956 30.948V27.196H111.056V30.528C111.056 31.312 111.07 32.32 112.148 32.32C113.24 32.32 113.408 31.466 113.408 30.584V27.196H115.508Z" fill="white"/>
</g>
<defs>
<filter id="filter0_b_9_815" x="-13" y="-13" width="188" height="70" filterUnits="userSpaceOnUse" color-interpolation-filters="sRGB">
<feFlood flood-opacity="0" result="BackgroundImageFix"/>
<feGaussianBlur in="BackgroundImageFix" stdDeviation="6.5"/>
<feComposite in2="SourceAlpha" operator="in" result="effect1_backgroundBlur_9_815"/>
<feBlend mode="normal" in="SourceGraphic" in2="effect1_backgroundBlur_9_815" result="shape"/>
</filter>
</defs>
</svg>
