<svg width="97" height="96" viewBox="0 0 97 96" fill="none" xmlns="http://www.w3.org/2000/svg">
<rect x="0.945435" width="96" height="96" rx="8" fill="#90C056"/>
<path d="M23.2174 38.864C22.9934 38.864 22.7134 38.952 22.3774 39.128C22.0494 39.296 21.6334 39.652 21.1294 40.196L20.4574 44H19.4734L20.5294 38.06H21.4534L21.2734 39.14C21.7374 38.652 22.1494 38.332 22.5094 38.18C22.8694 38.02 23.1934 37.94 23.4814 37.94C23.8734 37.94 24.1894 38.052 24.4294 38.276C24.6694 38.5 24.8174 38.804 24.8734 39.188C25.3454 38.684 25.7734 38.352 26.1574 38.192C26.5414 38.024 26.8814 37.94 27.1774 37.94C27.7134 37.94 28.1014 38.136 28.3414 38.528C28.5894 38.92 28.6574 39.436 28.5454 40.076L27.8494 44H26.8654L27.5494 40.16C27.6294 39.728 27.6094 39.404 27.4894 39.188C27.3694 38.972 27.1774 38.864 26.9134 38.864C26.7694 38.864 26.5974 38.9 26.3974 38.972C26.2054 39.044 25.9814 39.176 25.7254 39.368C25.4694 39.552 25.1694 39.828 24.8254 40.196L24.1534 44H23.1694L23.8414 40.16C23.9214 39.728 23.9014 39.404 23.7814 39.188C23.6694 38.972 23.4814 38.864 23.2174 38.864ZM34.6431 43.76C34.2991 43.888 33.9671 43.98 33.6471 44.036C33.3271 44.092 33.0231 44.12 32.7351 44.12C32.0951 44.12 31.5911 43.992 31.2231 43.736C30.8631 43.472 30.6231 43.116 30.5031 42.668C30.3831 42.22 30.3671 41.716 30.4551 41.156L30.5631 40.544C30.6911 39.76 30.9911 39.132 31.4631 38.66C31.9431 38.18 32.5471 37.94 33.2751 37.94C33.6351 37.94 33.9711 38.004 34.2831 38.132C34.6031 38.26 34.8591 38.46 35.0511 38.732C35.2431 39.004 35.3391 39.352 35.3391 39.776C35.3391 40.008 35.3031 40.256 35.2311 40.52C35.1671 40.776 35.0431 41.056 34.8591 41.36H31.3911C31.3191 41.912 31.3831 42.364 31.5831 42.716C31.7831 43.06 32.1951 43.232 32.8191 43.232C33.0431 43.232 33.2991 43.208 33.5871 43.16C33.8751 43.104 34.1751 43.024 34.4871 42.92L34.6431 43.76ZM33.2391 38.816C32.7831 38.816 32.4071 38.968 32.1111 39.272C31.8151 39.568 31.6231 39.984 31.5351 40.52H34.2231C34.2871 40.384 34.3271 40.256 34.3431 40.136C34.3671 40.016 34.3791 39.904 34.3791 39.8C34.3791 39.464 34.2711 39.216 34.0551 39.056C33.8391 38.896 33.5671 38.816 33.2391 38.816ZM38.2777 43.244C38.7417 43.244 39.0737 43.164 39.2737 43.004C39.4817 42.844 39.5857 42.636 39.5857 42.38C39.5857 42.172 39.5217 42.004 39.3937 41.876C39.2657 41.748 39.0497 41.628 38.7457 41.516L38.1697 41.288C37.7617 41.136 37.4537 40.932 37.2457 40.676C37.0457 40.42 36.9457 40.096 36.9457 39.704C36.9457 39.384 37.0137 39.092 37.1497 38.828C37.2937 38.564 37.5217 38.352 37.8337 38.192C38.1457 38.024 38.5537 37.94 39.0577 37.94C39.6737 37.94 40.2977 38.084 40.9297 38.372L40.6177 39.212C40.3297 39.076 40.0577 38.98 39.8017 38.924C39.5457 38.86 39.2897 38.828 39.0337 38.828C38.6417 38.828 38.3577 38.9 38.1817 39.044C38.0137 39.188 37.9297 39.384 37.9297 39.632C37.9297 39.808 37.9817 39.96 38.0857 40.088C38.1977 40.216 38.3857 40.332 38.6497 40.436L39.2377 40.652C39.6777 40.812 40.0097 41.02 40.2337 41.276C40.4577 41.532 40.5697 41.864 40.5697 42.272C40.5697 42.584 40.4937 42.884 40.3417 43.172C40.1897 43.452 39.9417 43.68 39.5977 43.856C39.2617 44.032 38.8137 44.12 38.2537 44.12C37.5897 44.12 36.9217 43.972 36.2497 43.676L36.5617 42.848C36.8737 42.984 37.1697 43.084 37.4497 43.148C37.7297 43.212 38.0057 43.244 38.2777 43.244ZM45.5571 43.796C45.0451 44.012 44.5611 44.12 44.1051 44.12C43.6971 44.12 43.3811 44.032 43.1571 43.856C42.9331 43.672 42.7891 43.436 42.7251 43.148C42.6611 42.86 42.6571 42.552 42.7131 42.224L43.2891 38.924H42.2571L42.4011 38.06H43.4451L43.7331 36.404H44.7171L44.4291 38.06H46.3731L46.2171 38.924H44.2731L43.6851 42.224C43.6211 42.592 43.6491 42.852 43.7691 43.004C43.8891 43.148 44.0651 43.22 44.2971 43.22C44.4251 43.22 44.5771 43.204 44.7531 43.172C44.9371 43.132 45.1331 43.064 45.3411 42.968L45.5571 43.796ZM52.4432 40.904L52.3472 41.504C52.2192 42.352 51.9152 43 51.4352 43.448C50.9632 43.896 50.3472 44.12 49.5872 44.12C49.0272 44.12 48.5632 43.992 48.1952 43.736C47.8352 43.48 47.5832 43.128 47.4392 42.68C47.2952 42.232 47.2672 41.724 47.3552 41.156L47.4512 40.544C47.5872 39.728 47.8872 39.092 48.3512 38.636C48.8232 38.172 49.4432 37.94 50.2112 37.94C50.7792 37.94 51.2432 38.072 51.6032 38.336C51.9632 38.6 52.2152 38.956 52.3592 39.404C52.5032 39.844 52.5312 40.344 52.4432 40.904ZM51.4232 40.88C51.5192 40.28 51.4632 39.792 51.2552 39.416C51.0472 39.032 50.6952 38.84 50.1992 38.84C49.7352 38.84 49.3512 38.988 49.0472 39.284C48.7512 39.58 48.5592 40 48.4712 40.544L48.3752 41.18C48.2792 41.796 48.3352 42.292 48.5432 42.668C48.7592 43.044 49.1112 43.232 49.5992 43.232C50.0632 43.232 50.4432 43.088 50.7392 42.8C51.0432 42.504 51.2392 42.072 51.3272 41.504L51.4232 40.88ZM60.6601 43.148L60.5161 44H56.4001L56.5201 43.232L60.0841 38.924H57.3961L57.5521 38.06H61.4401L61.3081 38.84L57.7561 43.148H60.6601ZM67.2734 44.06C66.8814 44.06 66.5894 43.964 66.3974 43.772C66.2134 43.572 66.1134 43.324 66.0974 43.028C65.7214 43.436 65.3614 43.72 65.0174 43.88C64.6734 44.04 64.3494 44.12 64.0454 44.12C63.6534 44.12 63.3294 43.996 63.0734 43.748C62.8254 43.5 62.6534 43.16 62.5574 42.728C62.4614 42.296 62.4534 41.808 62.5334 41.264L62.6174 40.676C62.7454 39.82 63.0454 39.152 63.5174 38.672C63.9894 38.184 64.6094 37.94 65.3774 37.94C65.7774 37.94 66.1734 38.008 66.5654 38.144C66.9654 38.272 67.3494 38.456 67.7174 38.696L67.0694 42.38C67.0294 42.62 67.0374 42.812 67.0934 42.956C67.1494 43.092 67.2774 43.16 67.4774 43.16H67.6454L67.4774 44.06H67.2734ZM63.5534 41.264C63.4654 41.896 63.4894 42.384 63.6254 42.728C63.7614 43.064 63.9894 43.232 64.3094 43.232C64.5494 43.232 64.8294 43.128 65.1494 42.92C65.4694 42.712 65.8134 42.348 66.1814 41.828L66.6494 39.164C66.2174 38.948 65.8134 38.84 65.4374 38.84C64.9174 38.84 64.5054 39.012 64.2014 39.356C63.9054 39.692 63.7174 40.132 63.6374 40.676L63.5534 41.264ZM23.4934 56.924H21.5494L20.6494 62H19.6654L20.5654 56.924H19.5334L19.6774 56.06H20.7214L20.8894 55.076C20.9614 54.676 21.0814 54.32 21.2494 54.008C21.4174 53.696 21.6494 53.452 21.9454 53.276C22.2494 53.092 22.6334 53 23.0974 53C23.3534 53 23.6014 53.032 23.8414 53.096C24.0894 53.152 24.3214 53.236 24.5374 53.348L24.1534 54.14C23.7694 53.98 23.4334 53.9 23.1454 53.9C22.8014 53.9 22.5214 53.992 22.3054 54.176C22.0894 54.36 21.9454 54.656 21.8734 55.064L21.6934 56.06H23.6494L23.4934 56.924ZM29.2616 58.904L29.1656 59.504C29.0376 60.352 28.7336 61 28.2536 61.448C27.7816 61.896 27.1656 62.12 26.4056 62.12C25.8456 62.12 25.3816 61.992 25.0136 61.736C24.6536 61.48 24.4016 61.128 24.2576 60.68C24.1136 60.232 24.0856 59.724 24.1736 59.156L24.2696 58.544C24.4056 57.728 24.7056 57.092 25.1696 56.636C25.6416 56.172 26.2616 55.94 27.0296 55.94C27.5976 55.94 28.0616 56.072 28.4216 56.336C28.7816 56.6 29.0336 56.956 29.1776 57.404C29.3216 57.844 29.3496 58.344 29.2616 58.904ZM28.2416 58.88C28.3376 58.28 28.2816 57.792 28.0736 57.416C27.8656 57.032 27.5136 56.84 27.0176 56.84C26.5536 56.84 26.1696 56.988 25.8656 57.284C25.5696 57.58 25.3776 58 25.2896 58.544L25.1936 59.18C25.0976 59.796 25.1536 60.292 25.3616 60.668C25.5776 61.044 25.9296 61.232 26.4176 61.232C26.8816 61.232 27.2616 61.088 27.5576 60.8C27.8616 60.504 28.0576 60.072 28.1456 59.504L28.2416 58.88ZM34.1932 61.796C33.6812 62.012 33.1972 62.12 32.7412 62.12C32.3332 62.12 32.0172 62.032 31.7932 61.856C31.5692 61.672 31.4252 61.436 31.3612 61.148C31.2972 60.86 31.2932 60.552 31.3492 60.224L31.9252 56.924H30.8932L31.0372 56.06H32.0812L32.3692 54.404H33.3532L33.0652 56.06H35.0092L34.8532 56.924H32.9092L32.3212 60.224C32.2572 60.592 32.2852 60.852 32.4052 61.004C32.5252 61.148 32.7012 61.22 32.9332 61.22C33.0612 61.22 33.2132 61.204 33.3892 61.172C33.5732 61.132 33.7692 61.064 33.9772 60.968L34.1932 61.796ZM41.0792 58.904L40.9832 59.504C40.8552 60.352 40.5512 61 40.0712 61.448C39.5992 61.896 38.9832 62.12 38.2232 62.12C37.6632 62.12 37.1992 61.992 36.8312 61.736C36.4712 61.48 36.2192 61.128 36.0752 60.68C35.9312 60.232 35.9032 59.724 35.9912 59.156L36.0872 58.544C36.2232 57.728 36.5232 57.092 36.9872 56.636C37.4592 56.172 38.0792 55.94 38.8472 55.94C39.4152 55.94 39.8792 56.072 40.2392 56.336C40.5992 56.6 40.8512 56.956 40.9952 57.404C41.1392 57.844 41.1672 58.344 41.0792 58.904ZM40.0592 58.88C40.1552 58.28 40.0992 57.792 39.8912 57.416C39.6832 57.032 39.3312 56.84 38.8352 56.84C38.3712 56.84 37.9872 56.988 37.6832 57.284C37.3872 57.58 37.1952 58 37.1072 58.544L37.0112 59.18C36.9152 59.796 36.9712 60.292 37.1792 60.668C37.3952 61.044 37.7472 61.232 38.2352 61.232C38.6992 61.232 39.0792 61.088 39.3752 60.8C39.6792 60.504 39.8752 60.072 39.9632 59.504L40.0592 58.88ZM47.2469 62C47.1829 62.368 47.0949 62.712 46.9829 63.032C46.8789 63.352 46.7269 63.636 46.5269 63.884C46.3269 64.132 46.0589 64.324 45.7229 64.46C45.3949 64.604 44.9789 64.676 44.4749 64.676C44.1549 64.676 43.8349 64.644 43.5149 64.58C43.2029 64.516 42.8869 64.42 42.5669 64.292L42.8189 63.452C43.1149 63.572 43.3949 63.656 43.6589 63.704C43.9309 63.76 44.1909 63.788 44.4389 63.788C44.8869 63.788 45.2309 63.716 45.4709 63.572C45.7109 63.428 45.8869 63.22 45.9989 62.948C46.1109 62.684 46.1989 62.368 46.2629 62L46.4309 61.052C46.0709 61.444 45.7229 61.72 45.3869 61.88C45.0589 62.04 44.7429 62.12 44.4389 62.12C44.0389 62.12 43.7109 61.996 43.4549 61.748C43.1989 61.5 43.0229 61.16 42.9269 60.728C42.8309 60.296 42.8229 59.808 42.9029 59.264L42.9869 58.676C43.1149 57.804 43.4109 57.132 43.8749 56.66C44.3469 56.18 44.9789 55.94 45.7709 55.94C46.1949 55.94 46.6109 56.008 47.0189 56.144C47.4269 56.272 47.8149 56.456 48.1829 56.696L47.2469 62ZM43.9229 59.264C43.8349 59.896 43.8589 60.384 43.9949 60.728C44.1309 61.064 44.3709 61.232 44.7149 61.232C44.9709 61.232 45.2629 61.128 45.5909 60.92C45.9189 60.712 46.2709 60.34 46.6469 59.804L47.1149 57.176C46.6669 56.952 46.2389 56.84 45.8309 56.84C45.2949 56.84 44.8789 57.004 44.5829 57.332C44.2869 57.66 44.0949 58.108 44.0069 58.676L43.9229 59.264ZM53.7114 56.936C53.5274 56.936 53.3074 56.968 53.0514 57.032C52.7954 57.088 52.5194 57.208 52.2234 57.392C51.9354 57.576 51.6394 57.856 51.3354 58.232L50.6754 62H49.6914L50.7474 56.06H51.6714L51.4794 57.176C51.9354 56.672 52.3674 56.34 52.7754 56.18C53.1914 56.02 53.5594 55.94 53.8794 55.94L53.7114 56.936ZM59.4017 62.06C59.0097 62.06 58.7177 61.964 58.5257 61.772C58.3417 61.572 58.2417 61.324 58.2257 61.028C57.8497 61.436 57.4897 61.72 57.1457 61.88C56.8017 62.04 56.4777 62.12 56.1737 62.12C55.7817 62.12 55.4577 61.996 55.2017 61.748C54.9537 61.5 54.7817 61.16 54.6857 60.728C54.5897 60.296 54.5817 59.808 54.6617 59.264L54.7457 58.676C54.8737 57.82 55.1737 57.152 55.6457 56.672C56.1177 56.184 56.7377 55.94 57.5057 55.94C57.9057 55.94 58.3017 56.008 58.6937 56.144C59.0937 56.272 59.4777 56.456 59.8457 56.696L59.1977 60.38C59.1577 60.62 59.1657 60.812 59.2217 60.956C59.2777 61.092 59.4057 61.16 59.6057 61.16H59.7737L59.6057 62.06H59.4017ZM55.6817 59.264C55.5937 59.896 55.6177 60.384 55.7537 60.728C55.8897 61.064 56.1177 61.232 56.4377 61.232C56.6777 61.232 56.9577 61.128 57.2777 60.92C57.5977 60.712 57.9417 60.348 58.3097 59.828L58.7777 57.164C58.3457 56.948 57.9417 56.84 57.5657 56.84C57.0457 56.84 56.6337 57.012 56.3297 57.356C56.0337 57.692 55.8457 58.132 55.7657 58.676L55.6817 59.264ZM63.7796 55.184L63.6236 56.06H67.3076L66.2636 62H65.2796L66.1676 56.924H63.4676L62.5796 62H61.5956L62.4956 56.924H61.4636L61.6076 56.06H62.6396L62.7956 55.196C62.8756 54.756 63.0116 54.372 63.2036 54.044C63.4036 53.716 63.6836 53.46 64.0436 53.276C64.4036 53.092 64.8636 53 65.4236 53C65.7436 53 66.0796 53.036 66.4316 53.108C66.7836 53.18 67.1356 53.3 67.4876 53.468L67.1156 54.272C66.7956 54.136 66.4876 54.04 66.1916 53.984C65.9036 53.928 65.6436 53.9 65.4116 53.9C64.9636 53.9 64.5996 54 64.3196 54.2C64.0396 54.4 63.8596 54.728 63.7796 55.184ZM71.1 54.608H69.996L70.188 53.504H71.292L71.1 54.608ZM66.984 64.676L67.14 63.74C67.564 63.74 67.904 63.64 68.16 63.44C68.416 63.24 68.596 62.852 68.7 62.276L69.804 56.06H70.788L69.684 62.276C69.596 62.772 69.46 63.2 69.276 63.56C69.092 63.92 68.82 64.196 68.46 64.388C68.1 64.58 67.608 64.676 66.984 64.676ZM75.8734 62L76.0654 60.92C75.6014 61.408 75.1894 61.732 74.8294 61.892C74.4774 62.044 74.1574 62.12 73.8694 62.12C73.3334 62.12 72.9414 61.924 72.6934 61.532C72.4534 61.14 72.3894 60.628 72.5014 59.996L73.1974 56.06H74.1814L73.5094 59.9C73.4294 60.34 73.4454 60.668 73.5574 60.884C73.6774 61.092 73.8654 61.196 74.1214 61.196C74.2734 61.196 74.4454 61.164 74.6374 61.1C74.8294 61.028 75.0534 60.896 75.3094 60.704C75.5654 60.512 75.8614 60.236 76.1974 59.876L76.8694 56.06H77.8534L76.8094 62H75.8734Z" fill="white"/>
</svg>
