<svg width="160" height="159" viewBox="0 0 160 159" fill="none" xmlns="http://www.w3.org/2000/svg">
<path d="M80.0056 109.134C58.4887 109.134 39.1505 111.018 26.789 113.621C28.6291 109.93 46.8948 108.326 59.4257 106.879C68.5247 105.824 75.919 104.343 75.919 99.1829C75.919 95.6378 73.4015 91.9357 67.678 89.7593C67.1361 89.5574 67.2716 89.1535 67.678 88.8843C68.1408 88.5702 68.6037 88.2785 69.0327 87.9532C71.2566 89.692 73.7289 91.0943 74.5304 90.3315C75.1852 89.7145 74.3047 87.9195 72.521 86.0236C72.0807 85.5636 71.9678 85.1822 72.3855 84.5876C72.6565 84.2062 72.9048 83.8135 73.1306 83.4209C73.1419 83.4321 73.1532 83.4433 73.1645 83.4545C76.6302 88.7385 79.3283 91.5655 82.1731 91.5655C84.939 91.5655 88.3483 89.0189 90.4142 86.0685C90.7303 86.5733 91.0802 87.0557 91.464 87.5156C91.8479 87.9756 91.893 88.4916 91.1931 88.974C87.1742 91.7338 84.0923 94.9872 84.0923 99.2053C84.0923 104.411 91.4866 105.858 100.586 106.901C113.116 108.348 130.423 109.751 132.251 113.442C119.879 110.906 101.015 109.134 80.0056 109.134Z" fill="#FFFDE9"/>
<path d="M100.145 124.772C100.326 123.202 100.394 120.251 100.123 118.187C99.7615 115.427 97.5376 113.52 94.4444 113.419C91.6334 113.329 88.2918 113.24 84.0359 113.184V141.151C84.0359 142.924 84.8148 143.507 86.034 143.507H89.8836V127.779L94.6476 141.398C95.0879 142.554 96.0136 143.496 97.3005 143.496H101.59L96.5667 130.225C98.373 129.507 99.7954 127.779 100.145 124.772ZM94.3315 124.481C94.1847 126.107 93.0784 127.611 91.577 127.611H89.8836V117.492H91.735C92.9091 117.514 94.2525 118.019 94.3766 120.027C94.4331 120.936 94.4331 123.381 94.3315 124.481ZM117.722 134.308C117.779 135.307 117.745 137.797 117.542 138.84C116.864 142.464 114.81 143.956 109.752 143.956C104.446 143.956 102.595 140.77 102.595 136.967V133.074C103.464 132.917 105.169 132.816 106.185 133.074C107.946 133.534 108.127 135.228 108.127 136.316C108.127 138.212 108.567 140.018 110.114 140.018C111.513 140.018 112.078 138.695 112.123 136.361C112.168 134.308 111.592 133.433 110.407 132.412C109.448 131.593 106.467 129.417 105.079 128.272C104.176 127.543 102.979 125.872 102.764 123.875C102.64 122.641 102.64 120.049 102.855 118.905C103.43 115.809 105.869 113.879 110.249 113.879C114.415 113.879 117.282 116.022 117.372 119.903C117.395 120.835 117.384 123 117.384 123.381C113.489 124.469 112.067 122.641 112.067 121.429C112.067 119.185 111.378 117.884 110.102 117.884C108.838 117.884 108.194 118.972 108.194 120.958C108.194 122.899 108.601 123.819 109.775 124.784C110.96 125.76 114.347 128.205 115.036 128.8C116.063 129.843 117.576 131.638 117.722 134.308ZM21.7879 134.779C21.8444 135.778 21.8105 137.775 21.6073 138.818C20.9186 142.453 18.9092 143.956 13.784 143.956C7.80075 143.956 6.46864 140.03 6.46864 136.204V133.534C7.36047 133.377 9.09899 133.276 10.1376 133.534C11.9438 133.994 12.1245 135.194 12.1245 136.294C12.1245 137.696 12.2712 140.007 14.0888 140.007C15.9063 140.007 16.0756 137.909 16.0756 135.666C16.0756 134.185 15.1838 133.231 13.7162 132.132C12.4067 131.144 10.8262 129.955 9.09899 128.643C7.87977 127.712 6.93149 125.961 6.79602 123.942C6.717 122.719 6.717 121.44 6.86375 120.262C7.28145 117.088 9.88922 114.743 14.3597 114.305C18.6157 113.89 21.4154 115.539 21.4944 119.432C21.517 120.363 21.5057 123.74 21.5057 124.133C20.659 124.335 20.1058 124.447 19.2479 124.492C16.9449 124.615 16.0643 123.606 16.0643 122.203C16.0643 120.184 15.9853 118.389 14.292 118.389C12.3502 118.389 12.2486 120.509 12.2486 122.08C12.2486 123.852 12.8244 124.447 14.1339 125.434C15.6918 126.601 16.5836 127.274 18.5479 128.732C20.8396 130.449 21.6637 132.58 21.7879 134.779ZM65.4879 113.43V143.496H61.6158C60.611 143.496 59.8772 142.8 59.8772 141.443V124.425L55.8358 143.496H53.9392C52.212 143.496 51.2863 142.486 50.7557 140.489L47.4818 125.232V143.485H44.7386C43.6436 143.485 42.8533 142.722 42.8533 141.398V114.99C44.4338 114.833 45.2918 114.743 47.4931 114.552C49.6719 114.373 50.925 115.102 51.3991 117.379L54.2779 131.593L57.4162 116.796C57.8678 114.889 58.7935 113.745 61.1642 113.61C63.2753 113.498 63.8961 113.486 65.4879 113.43ZM32.2755 115.697C27.1841 116.033 24.8698 118.266 24.2828 122.618C23.8764 125.715 24.0006 135.475 24.2828 138.134C24.8021 142.958 27.6469 144.035 32.3206 143.978C36.9717 143.922 39.1392 142.004 39.7037 138.111C40.223 134.566 40.1665 124.66 39.8166 121.261C39.4553 117.66 37.7507 115.338 32.2755 115.697ZM34.0817 137.662C33.9011 139.502 33.2012 140.142 32.0497 140.142C31.1014 140.142 30.345 139.592 30.0741 137.808C29.7354 135.587 29.8032 124.795 30.1305 122.36C30.3224 120.958 30.6837 119.937 32.0271 119.836C33.4608 119.713 33.9575 120.577 34.1269 122.091C34.3752 124.447 34.2849 135.632 34.0817 137.662ZM74.4401 139.222H81.6764V140.276C81.6764 141.78 80.9765 143.518 78.4929 143.496H68.6601V113.307C72.6 113.217 77.014 113.184 81.5861 113.15V114.384C81.5861 115.831 80.5927 117.48 78.6848 117.525C77.2963 117.536 75.8061 117.514 74.4289 117.525V125.344H80.8298V126.59C80.8298 128.048 79.8025 129.652 77.9172 129.652H74.4176V139.222H74.4401ZM133.188 129.237C134.893 128.676 135.491 127.498 135.729 125.771C135.898 124.604 135.887 123.224 135.751 121.979C135.491 119.477 134.25 117.099 130.332 116.56C126.471 116.033 124.518 115.764 120.454 115.315V143.485H129.418C133.313 143.485 135.559 141.656 136.101 138.582C136.383 136.978 136.372 135.587 136.304 134.05C136.248 132.423 135.604 130.135 133.188 129.237ZM126.201 120.487C126.788 120.565 127.375 120.633 128.007 120.722C129.632 120.958 129.994 121.9 130.107 122.764C130.208 123.561 130.197 124.772 130.14 125.333C129.96 127.005 129.17 127.454 127.713 127.285C127.081 127.207 126.788 127.173 126.201 127.106V120.487ZM130.253 137.348C129.994 139.031 129.26 139.558 127.77 139.558H126.201V131.088L128.018 131.301C129.678 131.503 130.186 132.513 130.31 133.579C130.49 135.06 130.389 136.428 130.253 137.348ZM153.531 118.12L147.582 132.67V143.496H143.642C142.592 143.496 141.723 142.901 141.723 141.712V131.481L135.932 113.89C137.151 114.092 138.144 114.249 139.747 114.53C141.35 114.81 142.152 115.539 142.626 117.357L145.2 126.567L147.785 119.23C148.101 118.064 148.734 117.076 150.551 117.447C151.285 117.615 152.775 117.951 153.531 118.12Z" fill="#FFFDE9"/>
<path d="M129.373 59.7274C133.392 58.9309 136.417 55.6102 136.417 51.6276C136.417 48.9913 135.074 46.6354 132.997 45.1209C133.38 43.6961 134.046 39.6462 130.885 34.912C129.576 32.702 127.702 30.7948 125.365 29.4486C124.439 28.8765 123.548 28.495 122.69 28.2258C119.901 27.2498 117.022 27.1264 114.313 27.721C113.534 26.0606 112.473 24.49 111.163 23.0316C109.335 20.7094 107.032 18.9929 104.153 17.714C103.521 17.3999 102.877 17.1082 102.211 16.839C94.354 13.6642 86.0227 14.7748 80.8975 19.1388C80.8975 19.1388 79.0461 15.6162 74.1579 15.5825C70.0035 15.5376 69.0214 16.8166 66.9442 18.892C61.5141 16.6707 52.0765 16.48 44.6934 21.6405C44.6596 21.6517 44.6257 21.6854 44.5918 21.7078C43.7113 22.28 42.9098 22.9531 42.176 23.7047C37.6942 27.9902 35.3122 33.8911 34.7026 38.6478C33.9011 38.8722 33.1108 39.1638 32.3658 39.5116C30.6385 40.2296 28.3807 41.6319 26.9019 44.3019C25.5472 46.3661 24.7569 48.8118 24.7569 51.4481C24.7569 54.6678 25.931 57.6295 27.884 59.9293L27.8727 60.0191C23.8425 63.3734 21.9008 68.3432 23.3345 72.9877C24.407 76.4766 27.297 79.73 32.5464 80.8967C32.5915 80.9079 32.6254 80.9191 32.6706 80.9304C33.0431 81.0089 33.4156 81.0762 33.7995 81.1323C29.7241 78.5633 26.9357 76.6673 26.0213 72.853C26.01 72.7745 25.9987 72.7072 25.9762 72.6287C25.9536 72.4716 25.9197 72.3258 25.8971 72.1799C25.8633 72.0004 25.8407 71.8209 25.8181 71.6302C25.8068 71.5517 25.7955 71.4732 25.7955 71.4058C25.7729 71.1703 25.7504 70.9347 25.7278 70.6991C25.7165 70.4186 25.7052 70.1382 25.7052 69.8353C25.7052 63.9568 28.5952 59.043 34.2172 56.5301C34.2172 56.5301 37.0733 53.6582 37.5249 51.2798C37.8297 49.6531 37.062 47.7572 35.0639 47.7572C32.4561 47.7572 30.853 51.6276 31.0111 53.9723C31.0111 53.9723 29.2726 53.3665 29.2726 49.698C29.2726 46.0296 32.8625 42.765 35.9896 42.765C39.0602 42.765 41.3293 44.4926 41.3293 47.7011C41.3293 50.7077 38.8118 54.0171 36.3847 55.8682C37.3217 55.6438 38.2812 55.4643 39.2747 55.3746C40.3471 55.2736 41.4535 55.2287 42.5598 55.2848C46.0707 55.4643 49.6268 57.0349 52.0991 60.8717C51.2637 59.1777 49.9767 57.2817 48.3059 56.1374C46.8158 55.0941 45.0434 54.4435 43.2258 54.0957C43.9371 52.7382 44.3999 51.4257 44.6596 50.1916C46.8496 56.0477 54.2778 58.3363 58.8386 57.4388C58.4435 58.6953 58.1839 60.0415 58.0597 61.4775V61.5223C55.4858 62.0608 53.0699 61.2419 52.2684 60.9278C52.1894 60.9053 52.1329 60.8717 52.0878 60.8604C50.1235 58.3475 46.6803 56.7657 42.4695 56.7657C37.5362 56.7657 29.6451 60.6136 29.6112 70.8113C29.5999 75.7025 31.2256 78.9896 33.7882 81.1323C35.696 86.7528 42.1985 90.8924 51.8733 90.8924C62.2705 90.8924 70.9179 86.1133 72.6113 79.8422H72.6C65.962 78.3501 61.119 72.236 61.6157 64.0802C62.1012 56.0365 68.3666 50.4721 76.0432 49.1707C74.9368 49.5073 73.8531 49.9448 72.8145 50.4609C72.4645 50.6628 72.1033 50.876 71.7533 51.0891C71.5727 51.1901 71.3921 51.2911 71.234 51.4145L70.7373 51.7847C70.4099 52.0315 70.0713 52.2671 69.7552 52.5251L68.8407 53.344C66.4813 55.6102 64.7315 58.5158 63.9526 61.7018C63.5688 63.2836 63.3881 64.9664 63.5688 66.5707C63.7155 68.1861 64.0542 69.8016 64.7315 71.2937C65.3863 72.7857 66.3007 74.1656 67.407 75.3548C68.5359 76.5327 69.8568 77.4975 71.2792 78.2379C72.7016 78.9896 74.2369 79.528 75.8174 79.8085C77.3866 80.089 78.9896 80.2012 80.5814 80.0329C80.8636 79.9992 81.1345 79.9544 81.4168 79.9095C83.4488 79.3822 85.2551 78.4623 86.9033 77.217V77.2058C90.0529 74.9172 91.8479 71.2488 91.6447 67.3335C91.6334 67.255 91.6334 67.1989 91.6334 67.1204V67.1092C91.4979 63.1827 87.4903 60.3107 83.1553 60.3107C77.8833 60.3107 74.9933 63.0368 73.6047 65.2918C75.8738 62.8573 79.5315 62.1394 82.3425 62.4983C85.6389 62.9359 87.9531 65.1683 87.9531 67.6701C87.9531 70.643 85.7405 74.0085 80.1185 74.0085C79.1364 74.0085 78.2445 73.8851 77.4543 73.6495C82.1167 72.7969 83.3585 69.0275 81.9248 67.5691C80.412 66.021 76.1109 67.5018 74.8352 72.3258C73.1193 70.9908 72.2388 69.0724 72.2388 67.3672C72.2388 60.7595 78.459 57.9997 83.573 58.269C89.5562 58.5943 94.0718 62.0945 94.0718 67.9393C94.0718 79.5505 81.778 84.4979 74.2143 80.1451C73.6838 80.0665 73.1532 79.9656 72.6 79.8422C74.7788 83.4321 78.7413 85.8216 83.2569 85.8216C86.113 85.8216 88.7547 84.8681 90.8544 83.2526C92.672 87.2913 96.7473 90.1071 101.5 90.1071C105.711 90.1071 109.402 87.8858 111.446 84.5652V84.5876V84.5988C112.473 85.6421 116.311 87.3361 120.748 87.8073C126.505 88.4355 133.279 87.0332 136.248 79.5841C141.147 67.3111 132.805 62.5769 129.373 59.7274ZM128.515 70.2616C128.752 70.2055 128.989 70.183 129.237 70.183C131.179 70.183 133.346 71.8546 133.346 75.0631C133.346 80.9304 125.252 83.0843 119.63 80.7845C120.974 79.8534 122.215 78.8213 123.333 77.6994C123.898 78.0023 125.23 78.5745 127.025 78.3501C129.982 77.9911 131.608 75.366 130.05 73.2793C129.779 75.2762 127.138 75.2874 126.336 74.1432C127.217 72.8867 127.95 71.5853 128.515 70.2616ZM133.324 75.8035C133.313 75.8708 133.313 75.9493 133.301 76.0054C133.301 75.9493 133.313 75.8708 133.324 75.8035ZM129 51.5603C129.249 51.9642 129.407 52.4241 129.452 52.929C129.508 53.5123 129.429 54.1518 129.237 54.7688C129.034 55.4643 128.707 56.1374 128.312 56.7881C127.702 55.5204 126.934 54.4771 126.065 53.6133C127.228 52.929 128.187 52.2558 129 51.5603ZM131.439 48.722C131.732 49.0137 132.669 50.1355 132.669 52.4802C132.669 55.0605 130.739 57.293 128.944 58.2465C128.808 57.8763 128.662 57.5061 128.503 57.1583C129.102 56.5638 129.632 55.8794 130.061 55.1166C130.411 54.4771 130.682 53.7591 130.773 52.9626C130.863 52.1773 130.761 51.3359 130.445 50.5731L130.321 50.2589C130.739 49.7653 131.111 49.2493 131.439 48.722ZM116.244 32.3093C122.588 32.3093 124.462 36.2134 125.286 38.6141C125.286 35.5066 123.593 32.085 120.759 29.9198C124.53 30.5368 129.689 35.9329 129.689 41.4188C129.689 46.1081 127.499 49.1371 124.439 51.6276L124.123 51.5491C122.701 51.2237 121.312 50.6292 120.127 49.7317C119.529 49.2829 118.976 48.7669 118.513 48.1835C118.355 47.9704 118.208 47.7572 118.061 47.5328C125.286 45.4462 125.286 39.6014 125.286 38.6253C121.967 36.2246 117.214 39.5116 117.214 43.8083C117.214 44.6833 117.26 45.4686 117.451 46.2315C117.451 46.2203 117.44 46.2203 117.44 46.2091C117.451 46.2315 117.451 46.2315 117.451 46.2427C117.61 46.9719 117.926 47.6675 118.332 48.3069C118.75 48.9464 119.269 49.541 119.833 50.057C119.935 50.1468 120.048 50.2365 120.15 50.3263C118.93 50.0009 117.734 49.8326 116.616 49.799C114.403 47.5441 114.313 41.9797 116.65 39.2087C113.331 41.6543 111.626 45.8276 113.207 49.956C113.952 49.8551 114.697 49.8102 115.453 49.7878H115.498C121.595 50.0234 125.794 55.8682 125.794 60.8156C125.794 61.2531 125.772 61.6794 125.738 62.1169C125.738 62.1954 125.726 62.2852 125.715 62.3637C125.704 62.4983 125.681 62.633 125.67 62.7676C124.744 69.4763 117.689 73.8178 111.367 73.8178C107.596 73.8178 101.94 71.9219 99.4793 69.6221C99.7164 68.4217 99.8405 67.1989 99.8405 66.0097C99.8405 64.3494 99.5809 62.8686 99.1293 61.5672C100.36 63.6426 103.509 67.4457 109.188 68.9602C109.199 68.9602 109.21 68.9714 109.222 68.9714C110.068 69.1958 110.994 69.3304 111.976 69.3304C118.388 69.3304 121.493 64.8094 121.493 61.3653C121.493 56.5862 118.321 54.7912 115.216 54.7912C112.112 54.7912 109.391 56.7545 109.391 59.4918C109.391 62.3301 111.66 63.4968 113.568 63.4968C115.295 63.4968 116.661 62.9022 116.808 61.4438C114.607 62.7564 112.597 61.455 112.597 59.6376C112.597 57.8427 114.008 57.192 115.544 57.192C117.305 57.192 119.246 58.6392 119.246 61.2307C119.246 63.5753 117.034 67.0979 111.559 67.0979C106.896 67.0979 102.595 64.843 102.098 61.0175C102.064 60.737 102.042 60.4678 102.042 60.1985C102.042 57.1022 103.306 54.7688 105.271 53.1197C105.812 52.7382 106.422 52.368 107.032 52.0427C107.664 51.6949 108.307 51.3808 108.973 51.1003C109.606 50.8311 110.272 50.5955 110.949 50.4048C111.671 50.2029 112.417 50.0682 113.173 49.9897C112.123 49.8775 111.051 49.9112 109.989 50.0682C109.346 48.7557 108.985 39.0629 115.273 36.606C121.662 34.1155 125.241 38.6478 125.241 38.6478C125.06 38.1093 123.378 35.5066 118.829 35.3383C118.671 35.3271 118.501 35.3271 118.332 35.3271C118.005 35.3271 117.677 35.3495 117.35 35.3608C117.147 35.3832 116.943 35.3944 116.74 35.4281C116.673 35.4281 116.616 35.4393 116.548 35.4505C112.518 35.9778 109.244 38.3224 107.088 42.3387C106.332 43.741 105.711 45.3565 105.248 47.1626V47.1851C105.237 47.1178 105.225 47.0617 105.214 46.9831C104.842 45.3677 104.345 43.7073 103.724 42.0358H103.758C105.192 36.6397 110.294 32.3093 116.244 32.3093ZM90.4254 22.3248C91.7237 21.9995 93.0445 21.7527 94.3653 21.719C95.0201 21.6854 95.6749 21.7078 96.3296 21.7751C96.9618 21.8649 97.6166 21.9883 98.2375 22.179C99.4793 22.5268 100.608 23.1438 101.342 24.0974C101.715 24.5798 101.985 25.1183 102.155 25.7241C102.234 26.027 102.324 26.3411 102.347 26.6328C102.381 26.9357 102.381 27.2386 102.335 27.5415C102.177 28.7755 101.556 29.9871 100.766 31.0529C100.292 31.6811 99.7615 32.2644 99.1745 32.8029C99.0503 32.9263 98.9148 33.0385 98.7794 33.1507C98.7568 33.1283 98.7342 33.1058 98.7116 33.0722C97.5827 31.6811 96.2958 30.391 94.8508 29.213C96.2732 28.8877 97.8988 27.979 98.7568 27.0478C99.6148 26.1167 99.5244 24.7256 98.7907 24.1198C98.0569 23.5028 96.6683 23.6262 95.6184 24.6583C94.7153 25.5446 94.1508 27.5302 94.1396 28.6521C91.5544 26.7225 88.4612 25.2304 84.8035 24.4115C86.6323 23.5252 88.5063 22.8185 90.4254 22.3248ZM94.8169 55.8121C97.9891 49.9897 98.452 45.6257 97.5263 38.6141C101.681 44.6048 100.111 54.1966 98.102 59.3347C97.2215 57.8988 96.07 56.7432 94.8169 55.8121ZM81.2249 22.2463C86.6662 19.0154 93.4735 17.7589 99.0842 19.5875C105.553 21.6966 106.377 28.0351 103.724 32.8478C102.595 34.1716 101.782 35.6188 101.421 37.0211C100.687 35.7198 99.8405 34.4857 98.9035 33.2966C99.7502 32.7917 100.54 32.141 101.229 31.4118C101.715 30.8958 102.144 30.3349 102.516 29.7178C102.889 29.0896 103.16 28.4053 103.306 27.6761C103.374 27.3059 103.408 26.9132 103.385 26.5318C103.363 26.1391 103.318 25.7914 103.227 25.4212C103.069 24.692 102.764 23.9852 102.313 23.3569C101.873 22.7287 101.274 22.2014 100.631 21.8088C99.9873 21.4161 99.2987 21.1245 98.5987 20.9113C97.8988 20.6869 97.1876 20.586 96.4651 20.485C95.7313 20.4289 95.0201 20.4065 94.2976 20.4626C92.8639 20.5748 91.464 20.8664 90.1319 21.304C88.0435 21.9771 86.0792 22.9643 84.2842 24.1871C83.9342 24.0974 83.573 24.0076 83.223 23.9403C82.7489 23.8393 82.286 23.772 81.8119 23.7159C81.3377 23.6598 80.8636 23.6262 80.3782 23.6038C80.1072 23.6038 79.825 23.6038 79.5541 23.6262C78.0752 21.8537 74.7562 22.0332 73.7289 22.8297C72.9951 22.2351 71.8888 21.4498 70.5002 20.6421C71.8436 18.7461 78.1881 17.8487 81.2249 22.2463ZM44.2419 43.6961C43.7 42.1928 42.8872 41.0373 42.0857 40.2745C42.8194 39.8145 44.5128 39.3097 45.5288 39.5228C44.9531 40.813 44.5015 42.2041 44.2419 43.6961ZM46.1158 38.3449C44.5354 37.8288 41.9389 38.6366 41.0019 39.4667C40.6294 39.2648 40.223 39.1077 39.8166 38.9731C40.9455 37.683 44.2193 35.8207 47.2222 36.5163H47.2335C46.8384 37.0996 46.4658 37.7054 46.1158 38.3449ZM34.1381 68.691C34.4994 63.4519 38.6086 59.8396 43.3275 59.8396C47.6173 59.8396 50.5637 62.9359 50.5412 66.3687C50.5186 69.7455 48.2156 71.5853 45.6191 71.4395C43.5984 71.3273 41.668 69.8577 41.7808 67.7262C41.8937 65.6732 44.4112 64.4616 45.732 66.537C45.0208 66.3687 44.2532 66.7838 44.2532 67.7262C44.2532 68.6685 45.2014 69.2968 46.1158 69.2968C47.256 69.2968 48.4978 68.3768 48.4978 66.5034C48.4978 64.944 46.8948 62.1954 43.5871 62.1954C40.4713 62.1954 37.9426 65.1459 37.9426 68.2198C37.9426 70.6542 39.3424 74.2105 44.4676 74.6929C49.9203 75.2089 54.3343 71.0917 53.8037 65.2357C53.7247 64.3045 53.4763 63.4295 53.1151 62.6217C53.9505 62.8461 55.0342 63.0368 56.2421 63.0368C56.8066 63.0368 57.3823 62.992 57.992 62.891C57.9807 62.9471 57.9807 63.0256 57.9807 63.0929C57.9807 64.7533 58.2177 66.436 58.7145 68.0627C57.6646 74.8836 50.5073 80.6723 42.0969 78.5969C36.7233 77.2619 33.8333 73.1111 34.1381 68.691ZM67.0006 78.1482C62.0221 88.1214 43.5758 87.3922 39.8956 84.0155V84.0042C41.0922 84.2847 42.334 84.4642 43.6097 84.5539C43.9371 84.5764 44.2757 84.5988 44.6031 84.61C50.6879 84.8568 59.7643 84.5539 64.8105 76.8244C65.4879 77.318 66.2217 77.7555 67.0006 78.1482ZM64.3025 49.4849C56.7727 53.703 47.4141 50.158 47.4141 42.406C47.4141 34.9905 53.4199 30.907 55.689 29.9086C57.3485 28.5848 59.4031 27.362 61.9544 26.3411C58.5338 25.2417 49.6493 26.9581 46.6916 33.0722C44.7386 33.2292 42.9436 33.7565 41.4083 34.4969C41.7018 33.7453 42.0857 33.0161 42.5034 32.3205C43.2371 31.1202 44.1064 29.9983 45.066 28.9886C46.9964 26.9581 49.3558 25.3426 51.9523 24.49C53.2393 24.0525 54.5827 23.8281 55.9261 23.8169C57.3033 23.7833 58.6806 23.8618 60.0353 24.0637C61.6722 24.3217 63.2639 24.748 64.788 25.3538C65.375 25.1743 66.0298 24.9949 66.7184 24.8266C67.3732 24.6695 68.0731 24.5237 68.7843 24.4115C66.1201 23.0877 63.2075 22.2912 60.2836 22.0556C58.7935 21.921 57.3033 21.9434 55.8357 22.078C54.3343 22.2239 52.8441 22.5941 51.4669 23.1887C48.8252 24.2993 46.59 26.1167 44.8063 28.237C44.7273 28.338 44.637 28.4277 44.558 28.5287C43.6548 29.6505 42.8533 30.8621 42.2098 32.1523C41.8937 32.8029 41.6002 33.4873 41.3744 34.1716C41.3519 34.2389 41.3293 34.3062 41.3067 34.3735C41.4309 29.4149 46.5674 20.7991 56.5582 20.2606C64.0655 19.8456 68.1408 22.7175 69.5407 24.3217V24.333C71.1776 24.0637 72.9387 23.873 74.824 23.772C75.8851 23.7159 76.9802 23.6935 78.1204 23.6935C78.3574 23.6935 78.651 23.7047 78.9219 23.7047H78.9783C79.0574 23.7047 79.1251 23.7047 79.2041 23.7047C79.3622 23.7159 79.5202 23.7159 79.6783 23.7159C79.6783 23.7159 79.6783 23.7159 79.6895 23.7159C79.7121 23.7159 79.746 23.7272 79.7686 23.7272C79.9718 23.7496 80.175 23.7608 80.3782 23.7945C80.841 23.8506 81.3039 23.9403 81.7554 24.0525C82.2183 24.1647 82.6586 24.2881 83.0988 24.4339C83.1327 24.4451 83.1666 24.4564 83.2004 24.4676C83.3472 24.5237 83.5052 24.5798 83.652 24.6583C83.6972 24.6695 83.7423 24.692 83.7875 24.7144C83.8101 24.7256 83.8326 24.7368 83.8439 24.748C83.9004 24.7593 83.9568 24.7929 84.0133 24.8154C89.5675 27.3956 93.7219 34.0258 93.7219 40.0277C93.7219 43.9429 92.7961 48.206 90.6174 51.0106L90.5948 51.033C88.7208 49.1932 86.542 47.8133 84.2503 46.8822C85.5486 44.1112 86.3953 41.8451 86.2033 38.4458C85.9437 33.5097 81.8796 26.3635 71.8662 26.3635C61.7625 26.3635 51.7943 32.8702 51.7943 41.0037C51.7943 48.8566 61.4238 48.8566 64.6751 45.5808C65.8266 44.2907 66.3007 42.7201 66.3007 41.43C66.3007 39.2311 64.9573 37.7279 62.5076 37.7279C60.2046 37.7279 58.6354 40.0838 58.4435 41.7777C58.0484 40.8578 58.1952 39.736 58.6241 38.8273C59.1096 37.8288 59.945 36.9987 60.9384 36.4826C61.9318 35.9666 63.0607 35.7534 64.1897 35.7534C65.296 35.7198 66.3459 36.09 67.2264 36.7182C68.107 37.3577 68.7956 38.2327 69.2584 39.2199C69.4842 39.7135 69.6536 40.2184 69.7439 40.7344C69.789 40.9925 69.8116 41.2617 69.8229 41.5085C69.8229 41.7665 69.8003 42.0694 69.789 42.3499C69.7213 43.2698 69.5632 44.1561 69.2584 44.9862C69.1907 45.1657 69.1343 45.3452 69.0552 45.5247C68.8295 46.0071 68.5585 46.4559 68.2537 46.8822C68.1295 47.028 67.9941 47.1739 67.8586 47.3309C67.6328 47.4431 67.4183 47.5328 67.2038 47.6562C66.1539 48.1499 65.1944 48.7669 64.3025 49.4849ZM71.1437 41.4412C71.1211 41.1046 71.076 40.7793 71.0083 40.4652C70.8615 39.8257 70.6244 39.2199 70.3309 38.659C69.7326 37.5259 68.8746 36.5387 67.7909 35.8432C66.7297 35.1252 65.3976 34.755 64.1332 34.8559C62.9027 34.9232 61.6496 35.2149 60.5659 35.8544C59.4821 36.4826 58.6016 37.4474 58.1274 38.6029C57.8904 39.1751 57.7662 39.7921 57.7662 40.4091C57.7775 41.0149 57.9129 41.6543 58.2629 42.1928L58.3984 42.3948L58.5338 42.1928C58.8048 41.8226 59.3466 41.688 59.8095 41.8226C60.2836 41.9572 60.6562 42.3948 60.6449 42.9108C60.6562 43.4157 60.4191 43.9205 60.0127 44.257C59.6063 44.5936 59.087 44.7731 58.5564 44.7731C57.3485 44.7731 56.4679 44.4029 55.8696 43.7522C55.3277 43.1128 55.1019 42.2938 55.0681 41.4861C55.0003 40.6671 55.2261 39.8706 55.5422 39.119C56.1744 37.6157 57.1678 36.2807 58.3758 35.2149C59.3692 34.3399 60.532 33.6892 61.7738 33.2517C62.0447 33.1507 62.3157 33.0722 62.5979 33.0049C64.1332 32.601 65.7588 32.5337 67.328 32.7244C68.8972 32.9151 70.3986 33.4087 71.584 34.3062C71.8888 34.5306 72.1597 34.7774 72.4194 35.0466C73.1758 35.8544 73.7289 36.8192 74.0563 37.8849C74.2821 38.5917 74.4288 39.3321 74.4627 40.0613C74.4966 40.7569 74.4176 41.4973 74.2821 42.2489C74.1466 43.0118 73.9434 43.7634 73.695 44.4702C73.5709 44.8292 73.4241 45.1657 73.2774 45.4686C73.2661 45.4799 73.2661 45.4911 73.2548 45.5135C73.2322 45.5472 73.2209 45.5808 73.1983 45.6145C73.1757 45.6145 73.1532 45.6145 73.1306 45.6257C72.1936 45.7828 71.2792 46.0071 70.3873 46.2876C70.4212 46.2091 70.4551 46.1417 70.4777 46.0744C70.9518 44.8628 71.1324 43.5839 71.1663 42.3611C71.1663 42.0582 71.1663 41.789 71.1437 41.4412ZM76.0093 45.3901C76.0319 45.3452 76.0432 45.3004 76.0545 45.2555C76.3141 44.3804 76.4834 43.5166 76.5963 42.6416C76.7092 41.7665 76.7657 40.8354 76.6528 39.8818C76.5399 38.9731 76.3028 38.0756 75.9754 37.223C75.3094 35.529 74.1353 33.9697 72.5774 32.96C71.0195 31.9391 69.2133 31.4904 67.4748 31.4006C65.725 31.2997 63.9752 31.5016 62.3157 32.0401C60.6675 32.5898 59.1434 33.5209 57.9355 34.7325C56.7163 35.9441 55.7906 37.4137 55.2487 39.0068C55.1923 39.1863 55.1358 39.3658 55.0794 39.5453C56.0051 32.7805 63.6704 29.5271 71.076 29.5271C78.2107 29.5271 79.9605 35.372 79.9605 37.7279C79.9605 40.0501 79.6105 42.8547 78.2107 45.4125V45.4238C77.4543 45.3901 76.7318 45.3677 76.0093 45.3901ZM86.3614 52.6036C77.443 51.4705 68.4456 57.0125 68.3215 65.9312C68.2198 74.2105 75.6819 77.4526 79.8589 77.4526C83.7197 77.4526 89.9062 75.1416 91.3286 69.7118C90.9335 71.8321 89.9287 73.8403 88.4386 75.3996C86.3727 77.5872 83.4488 78.8549 80.4798 79.0344C80.1072 79.0569 79.7347 79.0681 79.3622 79.0681C78.9896 79.0569 78.6171 79.0232 78.2445 79.0008C77.872 78.9896 77.4995 78.9222 77.1269 78.8774C76.7657 78.8213 76.3818 78.7764 76.0319 78.6754C74.5756 78.3613 73.1645 77.8341 71.8888 77.0936C70.6131 76.3644 69.4391 75.4557 68.4682 74.3675C67.5086 73.2681 66.741 72.0229 66.1991 70.6879C65.6347 69.3416 65.3863 67.9057 65.296 66.4697C65.1831 65.0225 65.4089 63.5865 65.7814 62.2067C66.1427 60.8156 66.82 59.5142 67.5764 58.2914C68.3327 57.0574 69.3262 55.9916 70.3535 54.9819C71.4034 53.9835 72.6 53.1645 73.8418 52.4241C74.4966 52.11 75.1175 51.7398 75.8061 51.5042C76.1448 51.3808 76.4722 51.2013 76.8221 51.1116L77.8607 50.7974C79.2718 50.4721 80.7056 50.2702 82.1957 50.2814C82.9408 50.2814 83.6746 50.3375 84.4197 50.416C84.7809 50.4609 85.1535 50.5058 85.5147 50.5731C85.6953 50.6067 85.876 50.6404 86.0566 50.6852L86.3275 50.7413L86.4743 50.775L86.542 50.7862C86.5194 50.775 86.5081 50.775 86.4856 50.7638L86.5872 50.8087C87.2645 50.9881 87.9306 51.2013 88.574 51.4705C89.2175 51.751 89.8384 52.0763 90.448 52.4466C91.5431 53.1309 92.5478 53.9947 93.4848 54.9371C91.1254 53.5796 88.495 52.8729 86.3614 52.6036ZM101.511 87.5942C99.2874 87.3473 95.5394 86.0236 94.783 82.7702C97.1763 84.1837 100.732 85.429 105.632 85.3953C106.298 85.3841 106.964 85.3505 107.619 85.3056C106.569 86.8762 104.243 87.8971 101.511 87.5942ZM105.903 80.5826C100.89 80.5826 97.4698 79.4944 95.5394 78.6193L95.5168 78.5969C96.3748 77.419 97.1312 76.1513 97.7633 74.8275L97.7859 74.8387C100.213 75.9493 103.216 76.6673 105.7 76.6673C108.601 76.6673 119.359 77.217 124.507 67.1989C121.504 74.5134 113.828 80.5826 105.903 80.5826ZM120.454 86.8874C116.797 86.4835 114.505 85.4851 113.015 84.5315C113.794 84.3071 113.929 84.2735 114.697 83.9594C116.345 84.6212 118.434 84.9802 120.612 84.9802C123.965 84.9802 127.115 84.1613 129.463 82.6804C132.297 80.8967 133.787 78.2716 133.787 75.0631C133.787 71.619 131.439 69.7567 129.237 69.7567H129.192C129.644 68.5788 129.96 67.4121 130.129 66.2678C132.127 67.5355 134.916 70.026 135.096 74.0646C135.254 77.4077 134.103 80.4592 131.777 82.8712C129.136 85.6309 124.722 86.921 121.03 86.921C120.838 86.9098 120.646 86.8874 120.454 86.8874Z" fill="#FFFDE9"/>
</svg>
