<svg width="109" height="96" viewBox="0 0 109 96" fill="none" xmlns="http://www.w3.org/2000/svg">
<path d="M54.4919 70.0863C38.6021 70.0863 24.2666 71.4681 15.1127 73.4543C16.4944 70.6908 29.9663 69.4818 39.2066 68.4455C45.9425 67.6683 51.3831 66.5457 51.3831 62.7459C51.3831 60.0688 49.4832 57.3917 45.2516 55.7509C44.8198 55.5782 44.9062 55.3191 45.2516 55.06C45.5971 54.801 45.9425 54.6282 46.2879 54.3692C47.9287 55.6645 49.7422 56.7008 50.3468 56.0963C50.8649 55.6645 50.174 54.2828 48.8787 52.9011C48.5332 52.5556 48.4469 52.2966 48.7923 51.8648C48.965 51.6057 49.1377 51.2603 49.3105 51.0012C51.9012 54.9737 53.8874 57.0463 55.96 57.0463C58.0326 57.0463 60.537 55.1464 62.0051 52.9874C62.2642 53.3329 62.5232 53.7647 62.7823 54.0237C63.0414 54.3692 63.1278 54.7146 62.6096 55.1464C59.6734 57.219 57.3418 59.637 57.3418 62.7459C57.3418 66.632 62.7823 67.6683 69.5182 68.4455C78.7586 69.4818 91.5396 70.6045 92.9213 73.2816C83.94 71.3817 69.95 70.0863 54.4919 70.0863Z" fill="#006E41"/>
<path d="M69.3455 81.7447C69.5182 80.5357 69.5182 78.3767 69.3455 76.8223C69.0864 74.7497 67.4456 73.3679 65.114 73.2816C63.0414 73.1952 60.537 73.1089 57.4281 73.1089V93.9212C57.4281 95.2165 58.0326 95.6483 58.8962 95.6483H61.746V83.99L65.2867 94.0939C65.6321 94.9574 66.323 95.6483 67.2729 95.6483H70.4682L66.6684 85.8035C68.0501 85.199 69.0864 83.9036 69.3455 81.7447ZM65.0276 81.4856C64.9412 82.6946 64.0777 83.8173 62.955 83.8173H61.6596V76.3041H63.0414C63.905 76.3041 64.9412 76.7359 65.0276 78.204C65.114 78.8949 65.114 80.7084 65.0276 81.4856ZM82.2992 88.826C82.2992 89.6032 82.2992 91.4168 82.1265 92.194C81.6084 94.8711 80.1403 95.9937 76.3405 95.9937C72.4544 95.9937 71.0727 93.6621 71.0727 90.8123V87.8761C71.6772 87.7897 72.9725 87.7034 73.7498 87.8761C75.0451 88.2215 75.2179 89.5169 75.2179 90.2941C75.2179 91.6758 75.5633 93.0576 76.6859 93.0576C77.7222 93.0576 78.154 92.1076 78.154 90.3805C78.154 88.826 77.8086 88.2215 76.8587 87.4443C76.1678 86.8398 73.9225 85.199 72.8862 84.3354C72.1953 83.8173 71.3317 82.5219 71.159 81.0538C71.0727 80.1039 71.0727 78.204 71.2454 77.3404C71.6772 75.0087 73.4907 73.627 76.6859 73.627C79.7948 73.627 81.8674 75.1815 81.9538 78.1176C81.9538 78.8085 81.9538 80.4493 81.9538 80.7084C79.104 81.4856 77.9813 80.1902 77.9813 79.2403C77.9813 77.5995 77.4632 76.5632 76.5132 76.5632C75.5633 76.5632 75.1315 77.3404 75.1315 78.8085C75.1315 80.2766 75.4769 80.9674 76.3405 81.6583C77.2041 82.3492 79.7085 84.1627 80.2266 84.6808C81.0902 85.4581 82.2129 86.8398 82.2992 88.826ZM11.3993 89.1715C11.3993 89.9487 11.3993 91.4168 11.2265 92.194C10.7084 94.8711 9.24031 95.9937 5.44056 95.9937C1.0363 95.9937 0 93.0576 0 90.2078V88.2215C0.690864 88.1352 1.89988 88.0488 2.6771 88.2215C3.97247 88.567 4.14519 89.4305 4.14519 90.2941C4.14519 91.3304 4.23154 93.0576 5.61327 93.0576C6.995 93.0576 7.08136 91.5031 7.08136 89.8623C7.08136 88.7397 6.3905 88.0488 5.3542 87.2716C4.40426 86.4944 3.19525 85.6308 1.89988 84.6808C1.0363 83.99 0.259074 82.6946 0.172716 81.2265C0.0863579 80.2766 0.0863582 79.3266 0.259074 78.4631C0.604506 76.1314 2.50438 74.3179 5.78599 74.0588C8.89488 73.7134 10.9675 75.0087 11.0538 77.8586C11.0538 78.5494 11.0538 81.0538 11.0538 81.3129C10.4493 81.4856 10.0175 81.5719 9.41303 81.5719C7.68587 81.6583 7.08136 80.8811 7.08136 79.8448C7.08136 78.3767 6.995 76.995 5.78599 76.995C4.3179 76.995 4.23154 78.5494 4.23154 79.7584C4.23154 81.0538 4.66333 81.4856 5.61327 82.2628C6.73593 83.1264 7.42679 83.6445 8.89488 84.6808C10.7084 85.8899 11.3129 87.5307 11.3993 89.1715ZM43.6972 73.2816V95.6483H40.8474C40.0701 95.6483 39.552 95.1302 39.552 94.0939V81.3992L36.6158 95.6483H35.2341C33.9387 95.6483 33.2478 94.8711 32.9024 93.403L30.398 82.0901V95.6483H28.4118C27.6346 95.6483 27.0301 95.0438 27.0301 94.0939V74.4906C28.2391 74.4042 28.8436 74.3179 30.4844 74.1452C32.1252 73.9724 32.9888 74.5769 33.3342 76.2178L35.4932 86.7534L37.8248 75.786C38.1703 74.4042 38.8611 73.5407 40.5883 73.4543C42.1427 73.2816 42.5745 73.2816 43.6972 73.2816ZM19.1715 74.9224C15.3717 75.1815 13.7309 76.8223 13.2991 80.1039C12.9537 82.4355 13.1264 89.6896 13.2991 91.6758C13.6446 95.3029 15.8035 96.0801 19.2578 95.9937C22.7122 95.9074 24.2666 94.5257 24.6984 91.6758C25.0438 88.9987 25.0438 81.6583 24.7848 79.1539C24.5257 76.3905 23.2303 74.6633 19.1715 74.9224ZM20.5532 91.3304C20.3805 92.7121 19.8623 93.1439 19.0851 93.1439C18.3943 93.1439 17.7898 92.7121 17.617 91.4168C17.358 89.776 17.4443 81.7447 17.7034 79.9312C17.8761 78.8949 18.1352 78.1176 19.0851 78.0313C20.1214 77.9449 20.5532 78.5494 20.6396 79.6721C20.7259 81.4856 20.6396 89.776 20.5532 91.3304ZM50.3467 92.4531H55.7009V93.2303C55.7009 94.3529 55.1828 95.6483 53.3693 95.6483H46.1152V73.1952C49.0514 73.1089 52.333 73.1089 55.7009 73.1089V74.0588C55.7009 75.0951 55.0101 76.3905 53.542 76.3905C52.5057 76.3905 51.383 76.3905 50.4331 76.3905V82.1765H55.1828V83.1264C55.1828 84.2491 54.4056 85.3717 53.0238 85.3717H50.4331V92.4531H50.3467ZM93.7848 85.0263C95.0802 84.5945 95.512 83.7309 95.6847 82.4355C95.7711 81.5719 95.7711 80.5357 95.6847 79.5857C95.512 77.6858 94.5621 75.9587 91.7122 75.5269C88.8624 75.0951 87.3943 74.9224 84.3718 74.5769V95.6483H91.0214C93.8712 95.6483 95.5984 94.2666 95.9438 92.0213C96.1165 90.8123 96.1165 89.776 96.1165 88.6533C96.0301 87.4443 95.5984 85.7171 93.7848 85.0263ZM88.6034 78.5494C89.0351 78.6358 89.4669 78.6358 89.8987 78.7221C91.1077 78.8949 91.3668 79.5857 91.4532 80.2766C91.5395 80.8811 91.5395 81.7447 91.4532 82.1765C91.2804 83.3855 90.7623 83.7309 89.6396 83.6445C89.2079 83.5582 88.9488 83.5582 88.517 83.4718V78.5494H88.6034ZM91.6259 91.0713C91.4532 92.3667 90.8487 92.7121 89.8124 92.7121H88.6897V86.408L90.0714 86.5807C91.2804 86.7534 91.7122 87.4443 91.7986 88.3079C91.7986 89.3442 91.7122 90.3805 91.6259 91.0713ZM108.811 76.7359L104.407 87.5307V95.562H101.471C100.693 95.562 100.089 95.1302 100.089 94.2666V86.6671L95.7711 73.627C96.6347 73.7997 97.4119 73.8861 98.6209 74.1452C99.8299 74.3179 100.434 74.9224 100.78 76.2178L102.68 83.04L104.58 77.5995C104.839 76.7359 105.27 75.9587 106.652 76.3041C107.17 76.3905 108.293 76.6495 108.811 76.7359Z" fill="#006E41"/>
<path d="M90.935 33.2978C93.8712 32.6933 96.1165 30.2753 96.1165 27.2527C96.1165 25.2665 95.1666 23.5393 93.6121 22.4167C93.8712 21.3804 94.3894 18.3579 92.0577 14.8172C91.1077 13.1764 89.726 11.7946 87.9989 10.7584C87.308 10.3266 86.6171 10.0675 86.0126 9.80841C83.94 9.11755 81.7811 9.03119 79.7948 9.46298C79.1903 8.25397 78.4131 7.04496 77.4632 6.00866C76.0814 4.2815 74.4406 2.98613 72.2817 2.03619C71.8499 1.77711 71.3318 1.6044 70.8136 1.34532C65.0276 -0.986344 58.8098 -0.209121 55.0964 3.07248C55.0964 3.07248 53.7147 0.481744 50.0877 0.395386C46.9788 0.395386 46.2879 1.34532 44.7335 2.89977C40.761 1.34532 33.8524 1.17261 28.3254 4.97236C28.3254 4.97236 28.2391 4.97236 28.2391 5.05872C27.5482 5.49051 27.0301 6.00866 26.4256 6.52681C23.144 9.72205 21.3304 14.1263 20.8987 17.667C20.2941 17.8397 19.6896 18.0124 19.1715 18.2715C17.8761 18.7897 16.2353 19.8259 15.1127 21.8122C14.0764 23.3666 13.5582 25.1801 13.5582 27.1664C13.5582 29.5844 14.4218 31.7434 15.8899 33.4705V33.5569C12.9537 36.0613 11.4856 39.7747 12.5219 43.229C13.2991 45.8197 15.4581 48.2377 19.3442 49.1013H19.4306C19.6896 49.1877 19.9487 49.1877 20.2941 49.274C17.2716 47.3742 15.199 45.9924 14.5082 43.1426C14.5082 43.0563 14.5082 43.0563 14.5082 42.9699C14.5082 42.8835 14.5082 42.7108 14.4218 42.6245C14.4218 42.4518 14.4218 42.3654 14.3354 42.1927C14.3354 42.1063 14.3354 42.1063 14.3354 42.02C14.3354 41.8473 14.3354 41.6745 14.2491 41.5018C14.2491 41.3291 14.2491 41.07 14.2491 40.8973C14.2491 36.493 16.408 32.866 20.5532 30.9661C20.5532 30.9661 22.6258 28.8072 22.9712 27.08C23.2303 25.871 22.6258 24.4893 21.1577 24.4893C19.2579 24.4893 18.0488 27.3391 18.1352 29.1526C18.1352 29.1526 16.8398 28.7208 16.8398 25.9574C16.8398 23.1939 19.5169 20.7759 21.7622 20.7759C24.0075 20.7759 25.7347 22.0713 25.7347 24.4893C25.7347 26.7346 23.8348 29.1526 22.1077 30.5343C22.7985 30.3616 23.4894 30.2753 24.2666 30.1889C25.0438 30.1026 25.9074 30.1026 26.6846 30.1026C29.2754 30.2753 31.8661 31.3979 33.766 34.2477C33.1615 32.9524 32.2116 31.5706 31.0025 30.7071C29.8799 29.9298 28.5845 29.4117 27.2892 29.1526C27.8073 28.1163 28.1527 27.1664 28.3254 26.2164C29.9662 30.5343 35.4068 32.2615 38.7748 31.5706C38.5157 32.5206 38.2566 33.4705 38.1703 34.5932C36.2704 35.025 34.4569 34.4205 33.8524 34.1614C33.766 34.1614 33.766 34.1614 33.6796 34.075C32.2116 32.1751 29.7072 31.0525 26.5983 31.0525C22.9712 31.0525 17.0989 33.9023 17.0989 41.5018C17.0989 45.1289 18.3079 47.5469 20.2078 49.1877C21.5895 53.3329 26.4256 56.4418 33.5933 56.4418C41.2792 56.4418 47.6697 52.9011 48.8787 48.2377C43.9563 47.1151 40.4156 42.5381 40.761 36.493C41.1064 30.5343 45.7698 26.3892 51.383 25.4392C50.5195 25.6983 49.7422 26.0437 48.965 26.3892C48.7059 26.5619 48.4469 26.7346 48.1878 26.8209C48.0151 26.9073 47.9287 26.9937 47.8424 27.08L47.5833 27.4255C47.3242 27.5982 47.0651 27.7709 46.8924 27.9436L46.2016 28.5481C44.4744 30.1889 43.179 32.4342 42.5745 34.7659C42.3155 35.9749 42.1427 37.1839 42.3155 38.3929C42.4018 39.6019 42.6609 40.811 43.179 41.9336C43.6972 43.0563 44.3017 44.0926 45.1653 44.9561C46.0288 45.8197 46.9788 46.5106 48.0151 47.1151C49.0514 47.6332 50.174 48.065 51.383 48.2377C52.5057 48.4105 53.7147 48.4968 54.9237 48.4105C55.0964 48.4105 55.3555 48.3241 55.5282 48.3241C56.9963 47.9787 58.3781 47.2878 59.5871 46.3379C61.9187 44.6107 63.2141 41.9336 63.1277 38.9974C63.1277 38.9111 63.1277 38.9111 63.1277 38.8247C63.0414 35.8885 60.1052 33.7296 56.8236 33.7296C52.9375 33.7296 50.7785 35.7158 49.7422 37.443C51.383 35.6295 54.1465 35.1113 56.2191 35.3704C58.6371 35.7158 60.3643 37.3566 60.3643 39.2565C60.3643 41.5018 58.7235 44.0062 54.5783 44.0062C53.8874 44.0062 53.1966 43.9198 52.5921 43.7471C56.0464 43.1426 56.91 40.2928 55.8737 39.2565C54.751 38.1339 51.5558 39.1702 50.6058 42.7972C49.3105 41.8473 48.7059 40.3792 48.7059 39.0838C48.7059 34.1614 53.2829 32.0888 57.0827 32.3479C61.4869 32.6069 64.8549 35.1977 64.8549 39.5156C64.8549 48.1514 55.7873 51.8648 50.174 48.5832C49.7422 48.4968 49.3968 48.4105 48.965 48.3241C50.6058 51.0012 53.542 52.8147 56.8236 52.8147C58.8962 52.8147 60.8824 52.1239 62.4369 50.9148C63.8186 53.9374 66.7548 56.01 70.2955 56.01C73.4043 56.01 76.1678 54.3692 77.6359 51.8648C78.4131 52.642 81.2629 53.9374 84.5445 54.2828C88.7761 54.7146 93.7849 53.6783 96.0302 48.1514C99.6572 38.9974 93.5258 35.4568 90.935 33.2978ZM90.3305 41.1564C90.5032 41.1564 90.676 41.07 90.8487 41.07C92.3168 41.07 93.8712 42.279 93.8712 44.6971C93.8712 49.1013 87.9125 50.6558 83.7673 48.9286C84.7173 48.2377 85.6672 47.4605 86.5308 46.5969C86.9626 46.856 87.9125 47.2878 89.2942 47.1151C91.4532 46.856 92.6622 44.8698 91.5395 43.3153C91.3668 44.7834 89.3806 44.7834 88.7761 43.9198C89.3806 43.1426 89.8987 42.1063 90.3305 41.1564ZM93.8712 45.3016C93.8712 45.3879 93.8712 45.3879 93.8712 45.4743C93.8712 45.3879 93.8712 45.3016 93.8712 45.3016ZM90.676 27.2527C90.8487 27.5118 90.935 27.8572 91.0214 28.289C91.0214 28.7208 91.0214 29.239 90.8487 29.6708C90.676 30.1889 90.4169 30.7071 90.1578 31.1389C89.726 30.1889 89.1215 29.4117 88.517 28.8072C89.3806 28.289 90.0715 27.7709 90.676 27.2527ZM92.4895 25.1801C92.7486 25.4392 93.4394 26.2164 93.4394 27.9436C93.4394 29.8435 91.9713 31.4843 90.676 32.2615C90.5896 32.0024 90.5032 31.7434 90.3305 31.4843C90.7623 31.0525 91.1941 30.5343 91.4532 29.9298C91.7122 29.4117 91.885 28.8935 91.9713 28.289C92.0577 27.6845 91.9713 27.08 91.7123 26.4755L91.6259 26.2164C91.9713 25.9574 92.2304 25.5256 92.4895 25.1801ZM81.2629 12.9173C85.9263 12.9173 87.308 15.8535 87.9125 17.5806C87.9125 15.249 86.7035 12.7446 84.5445 11.1038C87.308 11.5356 91.1077 15.5944 91.1077 19.6532C91.1077 23.1076 89.4669 25.3529 87.2216 27.2527L86.9626 27.1664C85.9263 26.9073 84.89 26.4755 84.0264 25.7847C83.5946 25.4392 83.1628 25.0938 82.8174 24.662C82.731 24.4893 82.5583 24.3166 82.4719 24.1439C87.8261 22.5894 87.8261 18.2715 87.8261 17.4943C85.4081 15.6808 81.8674 18.1851 81.8674 21.3804C81.8674 22.0713 81.8674 22.5894 82.0402 23.1939C82.1265 23.7121 82.3856 24.2302 82.731 24.7484C83.0764 25.2665 83.4219 25.6983 83.8537 26.0437C83.94 26.1301 84.0264 26.2164 84.1127 26.2164C83.2492 25.9574 82.2992 25.871 81.522 25.7847C79.8812 24.1438 79.7948 19.9987 81.522 17.9261C79.104 19.7396 77.8086 22.8485 78.9313 25.9574C79.4494 25.871 80.0539 25.871 80.5721 25.871C85.0627 26.0437 88.1716 30.3616 88.1716 34.075C88.1716 34.4205 88.1716 34.6795 88.1716 35.025C88.1716 35.1113 88.1716 35.1113 88.1716 35.1977C88.1716 35.284 88.1716 35.3704 88.1716 35.4568C87.4807 40.4655 82.2992 43.6608 77.6359 43.6608C74.8724 43.6608 70.6409 42.279 68.8274 40.5519C69.0001 39.6883 69.0864 38.7384 69.0864 37.8748C69.0864 36.6658 68.9137 35.5431 68.5683 34.5932C69.5182 36.1476 71.8499 38.9974 75.9951 40.1201C76.5996 40.2928 77.2905 40.3792 78.0677 40.3792C82.8174 40.3792 85.0627 37.0112 85.0627 34.4205C85.0627 30.8798 82.731 29.498 80.3994 29.498C78.0677 29.498 76.0814 30.9661 76.0814 32.9524C76.0814 35.025 77.7223 35.8885 79.1903 35.8885C80.4857 35.8885 81.4356 35.4568 81.6084 34.3341C79.9676 35.284 78.4995 34.3341 78.4995 32.9524C78.4995 31.657 79.5358 31.1389 80.6584 31.1389C81.9538 31.1389 83.4219 32.1751 83.4219 34.1614C83.4219 35.8885 81.7811 38.5656 77.7223 38.5656C74.2679 38.5656 71.0727 36.9248 70.7272 34.075C70.7272 33.9023 70.7272 33.6432 70.7272 33.4705C70.7272 31.1389 71.6772 29.4117 73.1453 28.2027C73.5771 27.9436 74.0089 27.6845 74.4406 27.4255C74.8724 27.1664 75.3906 26.9073 75.9087 26.7346C76.3405 26.5619 76.8587 26.3892 77.3768 26.2164C77.895 26.0437 78.4995 25.9574 79.0176 25.871C78.2404 25.7847 77.4632 25.7847 76.686 25.9574C76.1678 25.0074 75.9087 17.7534 80.5721 15.9398C85.3218 14.1263 87.9125 17.4943 87.9125 17.4943C87.7398 17.0625 86.5308 15.1626 83.1628 14.9899C83.0764 14.9899 82.9037 14.9899 82.8174 14.9899C82.5583 14.9899 82.2992 14.9899 82.1265 14.9899C81.9538 14.9899 81.7811 14.9899 81.6947 15.0763C81.6084 15.0763 81.6084 15.0763 81.522 15.0763C78.5858 15.508 76.1678 17.2352 74.527 20.1714C74.0089 21.2077 73.4907 22.4167 73.1453 23.7984C73.1453 23.7121 73.1453 23.7121 73.1453 23.6257C72.8862 22.4167 72.5408 21.2077 72.0226 19.9123C73.0589 16.1989 76.8587 12.9173 81.2629 12.9173ZM62.1778 5.49051C63.1277 5.23144 64.0777 5.05872 65.114 5.05872C65.6321 5.05872 66.0639 5.05872 66.5821 5.05872C67.0139 5.14508 67.532 5.23144 67.9638 5.31779C68.9137 5.57687 69.6909 6.00866 70.2955 6.69952C70.5545 7.04496 70.8136 7.47675 70.9 7.90854C70.9863 8.16761 70.9863 8.34033 71.0727 8.5994C71.0727 8.85848 71.0727 9.03119 71.0727 9.29027C70.9863 10.2402 70.4682 11.1038 69.95 11.881C69.6046 12.3128 69.1728 12.7446 68.741 13.1764C68.6547 13.2627 68.5683 13.3491 68.4819 13.4355C68.4819 13.4355 68.4819 13.4355 68.3956 13.3491C67.532 12.3128 66.5821 11.3629 65.5458 10.4993C66.5821 10.2402 67.7911 9.54934 68.3956 8.85847C69.0001 8.16761 69.0001 7.13131 68.3956 6.69952C67.8774 6.26773 66.8411 6.35409 66.0639 7.13131C65.3731 7.82218 64.9413 9.29027 64.9413 10.0675C63.0414 8.5994 60.7097 7.5631 58.0326 6.87224C59.328 6.44045 60.7097 5.83594 62.1778 5.49051ZM65.3731 30.448C67.7047 26.1301 68.0502 22.8485 67.3593 17.667C70.4682 22.1576 69.2592 29.239 67.7911 33.0387C67.1866 32.0024 66.323 31.1389 65.3731 30.448ZM55.3555 5.49051C59.4143 3.07249 64.4231 2.12255 68.5683 3.50427C73.318 5.05872 73.9225 9.80841 72.0226 13.3491C71.159 14.299 70.5545 15.4217 70.2955 16.458C69.7773 15.508 69.1728 14.5581 68.3956 13.6945C69.0001 13.3491 69.6046 12.8309 70.1227 12.3128C70.4682 11.9674 70.8136 11.5356 71.0727 11.0174C71.3318 10.5856 71.5908 10.0675 71.6772 9.46298C71.7635 9.20391 71.7635 8.85848 71.7635 8.5994C71.7635 8.34033 71.6772 8.08125 71.6772 7.73582C71.5908 7.21767 71.3318 6.69952 70.9863 6.18137C70.6409 5.74958 70.2091 5.31779 69.7773 5.05872C69.2592 4.79965 68.8274 4.54057 68.3092 4.36786C67.7911 4.19514 67.2729 4.10878 66.7548 4.02242C66.2366 4.02242 65.7185 3.93607 65.114 4.02242C64.0777 4.10878 63.0414 4.36786 62.0051 4.62693C60.4506 5.14508 58.9826 5.83594 57.6872 6.78588C57.4281 6.69952 57.169 6.61316 56.91 6.61316C56.5645 6.52681 56.2191 6.52681 55.8737 6.44045C55.5282 6.35409 55.1828 6.35409 54.8374 6.35409C54.6647 6.35409 54.4056 6.35409 54.2329 6.35409C53.1102 5.05872 50.6922 5.14508 49.915 5.74958C49.3968 5.31779 48.5332 4.71329 47.4969 4.10878C48.4469 2.81341 53.1102 2.2089 55.3555 5.49051ZM28.0664 21.3804C27.6346 20.2577 27.0301 19.3942 26.5119 18.876C27.0301 18.5306 28.3254 18.1851 29.0163 18.3579C28.5845 19.2214 28.2391 20.2577 28.0664 21.3804ZM29.4481 17.4079C28.2391 17.0625 26.3392 17.5806 25.6483 18.2715C25.3893 18.0988 25.0438 18.0124 24.7848 17.9261C25.6483 16.9761 28.0664 15.5944 30.2253 16.1126C29.9662 16.458 29.7072 16.9761 29.4481 17.4079ZM20.5532 40.0337C20.8123 36.1476 23.8348 33.4705 27.3755 33.4705C30.5708 33.4705 32.7297 35.8022 32.7297 38.3066C32.7297 40.811 31.0025 42.1927 29.1027 42.1063C27.6346 42.02 26.1665 40.8973 26.2529 39.3429C26.3392 37.7884 28.2391 36.9248 29.189 38.4793C28.6709 38.3929 28.0664 38.652 28.0664 39.3429C28.0664 40.0337 28.7572 40.4655 29.4481 40.4655C30.3117 40.4655 31.1753 39.7747 31.1753 38.3929C31.1753 37.2703 29.9663 35.1977 27.5482 35.1977C25.2166 35.1977 23.403 37.3566 23.403 39.6883C23.403 41.5018 24.4393 44.1789 28.2391 44.5244C32.2979 44.8698 35.4932 41.8473 35.1477 37.5293C35.0614 36.8385 34.8887 36.1476 34.6296 35.5431C35.2341 35.7158 36.0113 35.8885 36.9613 35.8885C37.393 35.8885 37.8248 35.8885 38.2566 35.8022C38.2566 35.8885 38.2566 35.8885 38.2566 35.9749C38.2566 37.1839 38.4293 38.4793 38.7748 39.6883C37.9976 44.7834 32.7297 49.1013 26.5119 47.5469C22.4531 46.3379 20.3805 43.3153 20.5532 40.0337ZM44.8198 47.0287C41.1064 54.4555 27.5482 53.9374 24.7848 51.433C25.6483 51.6057 26.5983 51.7784 27.5482 51.8648C27.8073 51.8648 28.0664 51.8648 28.3254 51.8648C32.8161 52.0375 39.552 51.8648 43.2654 46.0788C43.6972 46.4242 44.3017 46.7697 44.8198 47.0287ZM42.8336 25.6983C37.3067 28.8072 30.398 26.2164 30.398 20.4305C30.398 14.9035 34.8023 11.881 36.5295 11.1038C37.7385 10.1538 39.2929 9.20391 41.1928 8.42668C38.6884 7.64946 32.1252 8.85847 29.8799 13.4355C28.4118 13.5218 27.1164 13.9536 25.9938 14.4717C26.2529 13.9536 26.5119 13.3491 26.771 12.8309C27.2892 11.9674 27.98 11.1038 28.6709 10.3266C30.139 8.85848 31.8661 7.64946 33.766 6.9586C34.7159 6.61316 35.6659 6.44045 36.7022 6.44045C37.7385 6.44045 38.7748 6.44045 39.7247 6.61316C40.9337 6.78588 42.1427 7.13131 43.2654 7.5631C43.6972 7.39039 44.2153 7.30403 44.6471 7.13131C45.1653 7.04496 45.6834 6.87224 46.2016 6.78588C44.2153 5.83594 42.0564 5.23144 39.8974 5.05872C38.7748 4.97236 37.7385 4.97236 36.6158 5.05872C35.4932 5.14508 34.3705 5.40415 33.4206 5.9223C31.4343 6.78588 29.7935 8.08125 28.4982 9.6357C28.4118 9.72206 28.4118 9.80841 28.3254 9.80841C27.6346 10.672 27.0301 11.5356 26.5983 12.4855C26.3392 13.0037 26.1665 13.4355 25.9938 13.9536C25.9938 14.04 25.9938 14.04 25.9074 14.1263C25.9938 10.4129 29.7935 4.02242 37.134 3.59063C42.6609 3.2452 45.6834 5.40415 46.7197 6.61316C47.9287 6.44045 49.2241 6.26773 50.6058 6.18137C51.383 6.18137 52.1603 6.09502 53.0238 6.09502C53.1966 6.09502 53.4556 6.09502 53.6284 6.09502C53.7147 6.09502 53.7147 6.09502 53.8011 6.09502C53.8874 6.09502 54.0601 6.09502 54.1465 6.09502C54.1465 6.09502 54.1465 6.09502 54.2329 6.09502C54.4056 6.09502 54.5783 6.09502 54.6647 6.18137C55.0101 6.18137 55.3555 6.26773 55.701 6.35409C56.0464 6.44045 56.3918 6.52681 56.7372 6.61316H56.8236C56.91 6.61316 57.0827 6.69952 57.169 6.78588H57.2554C57.2554 6.78588 57.2554 6.78588 57.3418 6.78588C57.4281 6.78588 57.4281 6.78588 57.4281 6.87224C61.5733 8.77212 64.5958 13.6945 64.5958 18.1851C64.5958 21.1213 63.905 24.2302 62.2642 26.3892C60.8824 25.0074 59.2416 23.9711 57.6008 23.2803C58.5508 21.2077 59.1553 19.5669 59.0689 16.9761C58.8962 13.3491 55.8737 7.99489 48.4469 7.99489C41.0201 7.99489 33.5933 12.8309 33.5933 18.876C33.5933 24.7484 40.6747 24.7484 43.0927 22.244C43.9563 21.294 44.3017 20.085 44.3017 19.1351C44.3017 17.4943 43.3517 16.3716 41.5382 16.3716C39.8111 16.3716 38.6884 18.0988 38.5157 19.3942C38.2566 18.7033 38.343 17.8397 38.6884 17.2352C39.0338 16.458 39.6384 15.8535 40.4156 15.508C41.1928 15.1626 41.97 14.9899 42.8336 14.9899C43.6108 14.9899 44.388 15.249 45.0789 15.6808C45.7698 16.1989 46.2016 16.8034 46.547 17.5806C46.7197 17.9261 46.8061 18.3579 46.8924 18.7033C46.8924 18.876 46.9788 19.1351 46.9788 19.3078C46.9788 19.4805 46.9788 19.7396 46.9788 19.9123C46.8924 20.6032 46.8061 21.294 46.547 21.8985C46.4606 22.0713 46.4606 22.1576 46.3743 22.3303C46.2016 22.6758 46.0288 23.0212 45.7698 23.3666C45.6834 23.453 45.5971 23.6257 45.5107 23.7121C45.338 23.7984 45.1653 23.8848 44.9926 23.9711C44.2153 24.7484 43.5245 25.1801 42.8336 25.6983ZM47.9287 19.7396C47.9287 19.4805 47.8424 19.2214 47.8424 19.0487C47.756 18.5306 47.5833 18.0988 47.3242 17.667C46.8924 16.8034 46.2879 16.1126 45.4243 15.5944C44.6471 15.0763 43.6972 14.8172 42.7472 14.9035C41.7973 14.9899 40.9337 15.1626 40.0701 15.6808C39.2929 16.1126 38.6021 16.8898 38.2566 17.7534C38.0839 18.1851 37.9975 18.6169 37.9975 19.1351C37.9975 19.5669 38.0839 20.085 38.343 20.4305L38.4293 20.6032L38.5157 20.4305C38.6884 20.1714 39.1202 20.085 39.4656 20.1714C39.8111 20.2577 40.0701 20.6032 40.0701 20.9486C40.0701 21.294 39.8974 21.7258 39.6384 21.9849C39.3793 22.0713 39.0338 22.244 38.6021 22.244C37.7385 22.244 37.0476 21.9849 36.6158 21.4667C36.184 21.035 36.0113 20.3441 36.0113 19.7396C35.925 19.1351 36.0977 18.5306 36.3567 18.0124C36.7885 16.8898 37.5658 15.9398 38.4293 15.0763C39.2066 14.4717 39.9838 13.9536 40.9337 13.6082C41.1064 13.5218 41.3655 13.4355 41.5382 13.4355C42.6609 13.1764 43.8699 13.09 45.0789 13.2627C46.2016 13.4355 47.3242 13.7809 48.1878 14.4717C48.4469 14.6445 48.6196 14.8172 48.7923 14.9899C49.3105 15.5944 49.7422 16.2853 50.0013 17.0625C50.174 17.5806 50.2604 18.0988 50.3467 18.7033C50.3467 19.2214 50.3468 19.7396 50.174 20.3441C50.0877 20.9486 49.915 21.4668 49.7422 21.9849C49.6559 22.244 49.5695 22.503 49.3968 22.7621V22.8485C49.3968 22.8485 49.3968 22.8485 49.3105 22.8485C48.6196 22.9348 47.9287 23.1076 47.3242 23.3666C47.3242 23.2803 47.4106 23.2803 47.4106 23.1939C47.756 22.3303 47.9287 21.3804 47.9287 20.4305C47.9287 20.1714 47.9287 19.9987 47.9287 19.7396ZM51.4694 22.6758V22.5894C51.6421 21.8985 51.8148 21.294 51.9012 20.6032C51.9876 19.9123 51.9876 19.2214 51.9012 18.5306C51.8148 17.8397 51.6421 17.1488 51.383 16.5443C50.8649 15.249 50.0013 14.1263 48.8787 13.3491C47.756 12.5719 46.3743 12.2264 45.0789 12.2264C43.7835 12.1401 42.4882 12.3128 41.2792 12.7446C40.0701 13.1764 38.9475 13.8672 37.9975 14.7308C37.134 15.5944 36.4431 16.7171 36.0113 17.9261C36.0113 18.0988 35.925 18.1851 35.925 18.3579C36.6158 13.3491 42.3155 10.9311 47.756 10.9311C53.0238 10.9311 54.3192 15.249 54.3192 17.0625C54.3192 18.7897 54.0601 20.8622 53.0238 22.7621C52.5921 22.6758 52.0739 22.6758 51.4694 22.6758ZM59.1553 28.03C52.5921 27.1664 45.9425 31.3116 45.8561 37.9611C45.7698 44.0926 51.2967 46.5106 54.4056 46.5106C57.2554 46.5106 61.8324 44.7834 62.8687 40.7246C62.6096 42.279 61.8324 43.8335 60.7097 44.9561C59.1553 46.5969 56.9963 47.5469 54.8374 47.6332C54.5783 47.6332 54.3192 47.6332 53.9738 47.6332C53.7147 47.6332 53.4556 47.6332 53.1102 47.5469C52.8511 47.5469 52.5921 47.4605 52.2466 47.4605C51.9876 47.4605 51.7285 47.3742 51.4694 47.2878C50.4331 47.0287 49.3968 46.6833 48.4469 46.0788C47.4969 45.5606 46.6334 44.8698 45.9425 44.0062C45.2516 43.229 44.6471 42.279 44.3017 41.2427C43.8699 40.2064 43.6972 39.1702 43.6108 38.1339C43.5245 37.0976 43.6972 35.9749 43.9563 34.9386C44.2153 33.9023 44.7335 32.9524 45.2516 32.0024C45.8561 31.0525 46.547 30.2753 47.3242 29.5844C48.1014 28.8072 48.965 28.2027 49.915 27.6845C50.4331 27.4255 50.8649 27.1664 51.383 26.9937C51.6421 26.9073 51.9012 26.7346 52.1603 26.7346L52.9375 26.4755C53.9738 26.2164 55.0101 26.0437 56.1327 26.1301C56.6509 26.1301 57.2554 26.1301 57.7735 26.2164C58.0326 26.2164 58.2917 26.3028 58.5508 26.3028C58.7235 26.3028 58.8098 26.3892 58.9826 26.3892L59.1553 26.4755H59.2416H59.328H59.4143C59.9325 26.6482 60.3643 26.7346 60.8824 26.9937C61.3142 27.1664 61.8324 27.4255 62.2642 27.6845C63.0414 28.2027 63.8186 28.8072 64.5095 29.498C62.696 28.7208 60.7097 28.2027 59.1553 28.03ZM70.3818 54.0237C68.741 53.851 65.9776 52.9011 65.3731 50.3967C67.1002 51.433 69.7773 52.3829 73.4044 52.3829C73.9225 52.3829 74.3543 52.3829 74.8724 52.2966C74.0952 53.5056 72.3681 54.2828 70.3818 54.0237ZM73.5771 48.8423C69.8637 48.8423 67.3593 48.065 65.8912 47.3742C66.4957 46.5106 67.1002 45.5606 67.532 44.6107C69.3455 45.4743 71.5908 45.9924 73.4044 45.9924C75.5633 45.9924 83.5082 46.4242 87.308 38.9111C85.149 44.3516 79.4494 48.8423 73.5771 48.8423ZM84.3718 53.5056C81.6947 53.2465 79.9676 52.4693 78.8449 51.7784C79.4494 51.6057 79.5358 51.6057 80.0539 51.3466C81.2629 51.8648 82.8174 52.1239 84.4582 52.1239C86.9626 52.1239 89.2942 51.5193 91.0214 50.3967C93.094 49.1013 94.2166 47.1151 94.2166 44.6971C94.2166 42.1063 92.4895 40.7246 90.8487 40.7246C91.1941 39.861 91.4532 38.9974 91.5395 38.1339C93.0076 39.0838 95.0802 40.8973 95.2529 43.9198C95.3393 46.4242 94.4757 48.6695 92.8349 50.4831C90.8487 52.5556 87.6534 53.5056 84.89 53.5056C84.6309 53.5056 84.5445 53.5056 84.3718 53.5056Z" fill="#006E41"/>
</svg>
