<svg width="268" height="51" viewBox="0 0 268 51" fill="none" xmlns="http://www.w3.org/2000/svg">
<g clip-path="url(#clip0_130_69)">
<path d="M14.2204 0.272145C14.4216 0.266105 14.6215 0.305749 14.8056 0.38816C14.9896 0.470571 15.153 0.59365 15.2837 0.748336C15.5812 1.10936 15.7306 1.57192 15.701 2.04085V16.5238C15.701 18.2994 15.2097 19.5851 14.2338 20.3674C13.027 21.2252 11.5675 21.6426 10.0949 21.5511C9.27449 21.558 8.45495 21.4943 7.64522 21.3606C6.97497 21.269 6.33094 21.0373 5.75411 20.6803C5.21847 20.336 4.79303 19.8421 4.52926 19.2585C4.21465 18.516 4.06752 17.712 4.09854 16.9048V0.272145H7.13375C7.33493 0.266105 7.5349 0.305749 7.71892 0.38816C7.90294 0.470571 8.06634 0.59365 8.19708 0.748336C8.49289 1.10967 8.63774 1.57332 8.60088 2.04085V16.415C8.54679 16.9285 8.67565 17.4447 8.96429 17.8708C9.07764 17.9983 9.2169 18.0996 9.37254 18.1677C9.52819 18.2358 9.69655 18.2691 9.86611 18.2653C10.0533 18.2799 10.2413 18.2492 10.4144 18.1759C10.5876 18.1025 10.7411 17.9886 10.8621 17.8436C11.1185 17.3823 11.2311 16.8536 11.1852 16.3266V0.272145H14.2204Z" fill="white"/>
<path d="M28.7436 6.95923C28.5484 6.95923 28.3062 7.02725 28.0302 7.05446C27.7543 7.08167 27.4582 7.09528 27.1553 7.09528C26.8211 7.09485 26.4877 7.06297 26.1593 7.00004C25.8494 6.94242 25.5527 6.82709 25.2844 6.65991C25.0242 6.48998 24.8111 6.25586 24.6653 5.97963C24.5054 5.6451 24.4292 5.27605 24.4432 4.9048C24.4884 4.383 24.3783 3.85943 24.1269 3.4014C23.9945 3.2639 23.8332 3.15826 23.655 3.09232C23.4767 3.02637 23.2861 3.00181 23.0972 3.02045C22.8588 2.99236 22.6176 3.03855 22.406 3.15283C22.1943 3.26711 22.0222 3.44403 21.9127 3.65991C21.7018 4.14364 21.6006 4.66894 21.6166 5.19732C21.5869 5.7472 21.6981 6.29552 21.9396 6.78916C22.1629 7.16501 22.4664 7.48573 22.828 7.72793C23.0254 7.86852 23.3215 8.0726 23.7163 8.34018C24.1067 8.59868 24.5239 8.87759 24.9479 9.17691L26.1458 10.0204L26.9198 10.5443C27.2092 10.8028 27.4784 11.0613 27.7408 11.3334C28.0075 11.6129 28.2341 11.9289 28.4138 12.2722C28.6144 12.6589 28.7637 13.0706 28.858 13.4966C28.9736 14.0351 29.0278 14.5852 29.0195 15.1361C29.0355 16.1227 28.9452 17.108 28.7503 18.0749C28.6058 18.8157 28.2716 19.5053 27.7812 20.0749C27.2635 20.6193 26.6065 21.0078 25.8834 21.1973C24.8886 21.459 23.8623 21.5781 22.8347 21.5511C21.9459 21.5737 21.0594 21.4496 20.21 21.1837C19.5698 20.9808 18.9831 20.6343 18.4939 20.1701C18.0525 19.7333 17.7282 19.1902 17.5517 18.5919C17.3585 17.9294 17.2632 17.2417 17.269 16.5511V13.9456C17.7561 13.8451 18.2527 13.7995 18.7496 13.8096C19.0895 13.8085 19.4291 13.8312 19.7659 13.8776C20.088 13.913 20.3995 14.0149 20.6811 14.1769C20.9658 14.3332 21.1996 14.5694 21.3541 14.8572C21.5073 15.2195 21.5698 15.6143 21.5358 16.0068C21.5074 16.6212 21.6131 17.2343 21.8454 17.8028C21.9558 18.0295 22.1326 18.2164 22.3517 18.3381C22.5708 18.4598 22.8217 18.5104 23.0703 18.483C23.2977 18.5038 23.5266 18.4675 23.7367 18.3773C23.9469 18.2871 24.1318 18.1458 24.2749 17.966C24.5943 17.3373 24.7253 16.6281 24.6518 15.9252C24.6876 15.3428 24.5789 14.7605 24.3355 14.2313C24.0778 13.8153 23.7275 13.4658 23.3125 13.2109C23.0972 13.0817 22.7943 12.8844 22.4107 12.6259L21.2128 11.7687C20.7821 11.4626 20.3648 11.1497 19.9476 10.8436C19.5303 10.5375 19.2005 10.2722 18.9313 10.0545C18.3423 9.56207 17.9113 8.90382 17.693 8.16331C17.4575 7.40156 17.3394 6.60766 17.3431 5.80957C17.3431 3.8912 17.8209 2.44222 18.7766 1.46263C19.7322 0.483035 21.2083 -0.00449335 23.2049 4.1793e-05C23.9506 -0.00590453 24.6942 0.0809155 25.419 0.258545C26.0424 0.406921 26.6318 0.674801 27.1553 1.04766C27.6412 1.39957 28.0341 1.86679 28.2994 2.40821C28.5918 3.03114 28.7435 3.71194 28.7436 4.4014V6.95923Z" fill="white"/>
<path d="M34.9957 18.0476H40.5345V18.6463C40.5586 19.3284 40.3169 19.9928 39.8615 20.4966C39.6183 20.7341 39.3286 20.9174 39.0109 21.0346C38.6933 21.1518 38.3548 21.2003 38.0175 21.1769H30.4597V0.272137H33.5017C33.6972 0.262005 33.8927 0.293055 34.0758 0.363318C34.2588 0.433581 34.4254 0.541523 34.565 0.6803C34.717 0.848525 34.8336 1.04624 34.9076 1.26141C34.9817 1.47659 35.0116 1.70474 34.9957 1.932V18.0476Z" fill="white"/>
<path d="M45.9521 21.1973H42.9169C42.7189 21.2041 42.5218 21.1695 42.3376 21.0958C42.1535 21.0221 41.9864 20.9107 41.8468 20.7688C41.5529 20.4221 41.4055 19.9726 41.4363 19.5171V0.272162H44.4715C44.6671 0.261611 44.8627 0.292467 45.0458 0.362753C45.2289 0.433039 45.3955 0.541205 45.5348 0.680325C45.6811 0.846379 45.7932 1.04011 45.8649 1.2503C45.9365 1.46049 45.9661 1.68296 45.9521 1.90482V21.1973Z" fill="white"/>
<path d="M60.0648 0.272162C59.504 1.68713 58.9992 3.02726 58.5505 4.29257C58.3554 4.83679 58.1468 5.38101 57.9314 5.92522C57.716 6.46944 57.5141 6.98645 57.3257 7.48985L56.8008 8.85039C56.6392 9.27216 56.5046 9.60549 56.397 9.85719C56.5046 10.1497 56.646 10.5375 56.8142 11.0137C56.9825 11.4898 57.1776 12.0273 57.393 12.6191L58.066 14.483C58.3083 15.1293 58.5438 15.7756 58.7794 16.4082C59.3312 17.9116 59.9167 19.5103 60.5224 21.1701H57.2046C56.7586 21.1782 56.3277 21.0069 56.0066 20.6939C55.6694 20.3797 55.4347 19.9693 55.3336 19.5171C55.3 19.3674 55.2058 19.0681 55.051 18.6055C54.8962 18.1429 54.7212 17.5987 54.5126 16.9728C54.304 16.347 54.0886 15.6803 53.8396 14.9728C53.5906 14.2654 53.3685 13.6123 53.1666 12.9796L52.6013 11.347L52.2782 10.4082V21.1973H49.2565C49.0596 21.2036 48.8636 21.1687 48.6807 21.095C48.4977 21.0213 48.3318 20.9102 48.1932 20.7688C47.8993 20.4221 47.7519 19.9726 47.7826 19.5171V0.272162H50.8178C51.0134 0.261611 51.209 0.292467 51.3921 0.362753C51.5752 0.433039 51.7418 0.541205 51.8812 0.680325C52.1788 1.02524 52.3288 1.4754 52.2984 1.93203V10.2994C52.3523 10.1565 52.4532 9.864 52.608 9.42862C52.7628 8.99325 52.9378 8.48305 53.1464 7.89801C53.355 7.31298 53.5704 6.68033 53.8194 6.02046C54.0684 5.3606 54.2703 4.73475 54.4924 4.15652C54.7145 3.57828 54.8625 3.06808 55.0039 2.63951C55.1452 2.21094 55.2394 1.91842 55.2731 1.79597C55.3842 1.37692 55.6189 1.00202 55.9461 0.721142C56.2589 0.43723 56.663 0.277699 57.0834 0.272162H60.0648Z" fill="white"/>
<path d="M60.657 21.1973C60.657 21.0749 60.7512 20.6735 60.8858 20.0068C61.0204 19.3402 61.1954 18.4966 61.4108 17.4898C61.6261 16.483 61.8617 15.3674 62.0838 14.1361C62.3059 12.9048 62.5952 11.6395 62.8644 10.3538C63.4971 7.36966 64.197 4.00912 64.9642 0.272157H68.6993C69.4137 0.219301 70.1248 0.410996 70.7183 0.816375C71.2772 1.34205 71.6526 2.03658 71.7883 2.79597C71.8422 3.00005 71.9364 3.40821 72.071 4.03406C72.2056 4.65991 72.3671 5.39461 72.5556 6.31978C72.744 7.24495 72.9526 8.20413 73.1747 9.27896C73.3968 10.3538 73.6189 11.449 73.8477 12.5579C74.3637 15.1474 74.938 18.0273 75.5706 21.1973H72.7978C72.2817 21.2196 71.7757 21.0475 71.3778 20.7143C71.023 20.4061 70.7852 19.9829 70.7048 19.5171L69.7357 14.7007H66.1958L65.1526 19.5171C65.0692 19.9818 64.8318 20.404 64.4796 20.7143C64.0788 21.0468 63.571 21.2187 63.0529 21.1973H60.657ZM69.13 11.4966L68.0532 4.80957L66.8418 11.4966H69.13Z" fill="white"/>
<path d="M75.6379 14.1633L76.1763 14.1089C76.3378 14.1089 76.5195 14.1089 76.7281 14.068C76.9368 14.0272 77.1521 14.068 77.4011 14.068C77.8097 14.0536 78.2164 14.1303 78.5923 14.2925C78.8881 14.4332 79.1465 14.6431 79.3461 14.9048C79.5323 15.1576 79.6693 15.4438 79.7499 15.7483C79.828 16.0412 79.8687 16.343 79.871 16.6463C79.8027 17.1636 79.9171 17.6888 80.1941 18.1293C80.4552 18.3548 80.7937 18.4672 81.1362 18.4422C81.2968 18.4551 81.4582 18.4326 81.6092 18.3763C81.7603 18.3199 81.8975 18.231 82.0111 18.1157C82.2289 17.7977 82.329 17.4123 82.2938 17.0272V0.272121H85.329C85.5266 0.265088 85.7234 0.300226 85.9066 0.375243C86.0898 0.45026 86.2553 0.563472 86.3923 0.707495C86.5386 0.873549 86.6507 1.06728 86.7224 1.27747C86.794 1.48766 86.8236 1.71013 86.8096 1.93199V16.7959C86.8572 17.7151 86.6767 18.6318 86.2847 19.4626C85.9692 20.0593 85.487 20.549 84.8983 20.8708C84.2909 21.1942 83.6244 21.3887 82.9399 21.4422C82.1996 21.517 81.4458 21.551 80.6786 21.551C79.3553 21.6289 78.054 21.1823 77.0512 20.3061C76.5964 19.8318 76.2424 19.2685 76.0109 18.6508C75.7794 18.0332 75.6754 17.3741 75.7052 16.7143C75.7052 16.5306 75.7052 16.3129 75.7052 16.034C75.7052 15.7551 75.7052 15.517 75.7052 15.2585V14.1633H75.6379Z" fill="white"/>
<path d="M105.754 6.95923C105.553 6.95923 105.317 7.02725 105.041 7.05446C104.765 7.08168 104.469 7.09528 104.166 7.09528C103.832 7.09485 103.498 7.06297 103.17 7.00004C102.86 6.94351 102.563 6.8281 102.295 6.65991C102.033 6.49189 101.82 6.2573 101.676 5.97963C101.511 5.64685 101.432 5.27692 101.447 4.9048C101.494 4.38371 101.386 3.8603 101.138 3.4014C101.004 3.26336 100.842 3.15743 100.662 3.09149C100.483 3.02554 100.291 3.00126 100.101 3.02045C99.864 2.99381 99.6243 3.04069 99.4139 3.15489C99.2036 3.26909 99.0326 3.44521 98.9235 3.65991C98.7126 4.14364 98.6114 4.66894 98.6274 5.19732C98.5972 5.73407 98.7013 6.26987 98.9302 6.75514C99.1511 7.13069 99.4523 7.45147 99.8119 7.69392L100.7 8.30616C101.097 8.56467 101.508 8.84358 101.939 9.1429L103.136 9.98644L103.904 10.5443C104.186 10.8028 104.462 11.0613 104.725 11.3334C104.99 11.6145 105.216 11.9303 105.398 12.2722C105.601 12.6576 105.751 13.0697 105.842 13.4966C105.96 14.0348 106.016 14.5849 106.01 15.1361C106.023 16.1225 105.933 17.1076 105.741 18.0749C105.597 18.8172 105.26 19.5075 104.765 20.0749C104.249 20.6182 103.595 21.0067 102.874 21.1973C101.877 21.4586 100.848 21.5777 99.8186 21.5511C98.932 21.5733 98.0477 21.4492 97.2006 21.1837C96.5591 20.9792 95.9706 20.6329 95.4778 20.1701C95.0386 19.7315 94.7148 19.189 94.5356 18.5919C94.3424 17.9294 94.2471 17.2417 94.2529 16.5511V13.9456C94.7401 13.8458 95.2366 13.8002 95.7335 13.8096C96.0756 13.8085 96.4174 13.8312 96.7565 13.8776C97.0786 13.913 97.3901 14.0149 97.6718 14.1769C97.9564 14.3332 98.1902 14.5694 98.3447 14.8572C98.5221 15.2202 98.6054 15.6228 98.587 16.0273C98.5586 16.6416 98.6643 17.2547 98.8966 17.8232C99.0058 18.0494 99.1814 18.236 99.3994 18.3578C99.6173 18.4795 99.8671 18.5304 100.115 18.5034C100.343 18.5247 100.573 18.4887 100.785 18.3985C100.996 18.3083 101.182 18.1668 101.326 17.9864C101.645 17.3577 101.776 16.6485 101.703 15.9456C101.741 15.3623 101.63 14.7789 101.38 14.2517C101.124 13.8342 100.773 13.4844 100.357 13.2313L99.4552 12.6463L98.2573 11.7687C97.8265 11.4626 97.4025 11.1497 96.992 10.8436C96.5815 10.5375 96.2383 10.2722 95.9691 10.0545C95.3718 9.5629 94.9296 8.90555 94.6971 8.16331C94.467 7.40047 94.3513 6.60708 94.3539 5.80957C94.3539 3.8912 94.8317 2.44222 95.7874 1.46263C96.743 0.483036 98.2169 -0.00449263 100.209 4.2515e-05C100.957 -0.00591143 101.703 0.0809047 102.43 0.258546C103.053 0.406922 103.643 0.674801 104.166 1.04766C104.65 1.40139 105.043 1.86815 105.31 2.40821C105.603 3.03114 105.754 3.71195 105.754 4.4014V6.95923Z" fill="white"/>
<path d="M113.252 21.1973C112.539 21.2371 111.831 21.0465 111.233 20.6531C110.652 20.1514 110.285 19.4421 110.21 18.6735L106.845 0.30616H109.988C110.515 0.283763 111.032 0.458071 111.441 0.795955C111.807 1.09494 112.047 1.52261 112.114 1.99323L114.133 17.5647L115.944 0.272146H118.817C119.208 0.265718 119.594 0.364316 119.934 0.55786C120.113 0.662555 120.258 0.816981 120.352 1.00273C120.447 1.18848 120.486 1.39771 120.466 1.60548C120.439 2.01612 120.39 2.42492 120.318 2.82997C120.224 3.51024 120.096 4.27895 119.941 5.21772C119.786 6.1565 119.611 7.21092 119.416 8.36058C119.221 9.51024 119.019 10.6735 118.811 11.8504C118.602 13.0272 118.407 14.1769 118.205 15.2517C118.003 16.3266 117.835 17.3606 117.687 18.2313C117.539 19.1021 117.411 19.8028 117.323 20.3334C117.258 20.6053 117.222 20.8835 117.216 21.1633L113.252 21.1973Z" fill="white"/>
<path d="M127.586 4.52246e-05C128.484 -0.0203091 129.38 0.0943216 130.245 0.340181C130.889 0.525479 131.487 0.850468 131.994 1.29256C132.444 1.7 132.787 2.21437 132.991 2.78916C133.217 3.42553 133.361 4.0885 133.421 4.76195C133.489 5.44222 133.549 6.31297 133.583 7.40141C133.616 8.48984 133.637 9.61909 133.637 10.8028C133.637 11.9864 133.637 13.1225 133.569 14.2041C133.541 15.1033 133.465 16.0004 133.34 16.8912C133.23 18.2171 132.635 19.454 131.671 20.3606C130.774 21.127 129.428 21.5284 127.633 21.5647C126.799 21.5731 125.966 21.5048 125.143 21.3606C124.48 21.248 123.845 21.0003 123.279 20.6327C122.75 20.2735 122.324 19.7811 122.041 19.2041C121.704 18.4847 121.494 17.7111 121.422 16.9184C121.381 16.5783 121.354 16.0953 121.328 15.4762C121.301 14.8572 121.28 14.1769 121.26 13.4354C121.24 12.6939 121.227 11.8912 121.22 11.0681C121.213 10.2449 121.22 9.44903 121.22 8.67351C121.22 7.898 121.26 7.19732 121.287 6.54426C121.314 5.8912 121.354 5.36739 121.408 4.96603C121.494 4.10248 121.75 3.2651 122.162 2.50345C122.504 1.89764 122.978 1.37878 123.548 0.98644C124.104 0.601651 124.731 0.335455 125.392 0.204127C126.116 0.0649138 126.85 -0.00343023 127.586 4.52246e-05ZM128.986 16.5239C128.986 16.2722 129.027 15.8436 129.053 15.2585C129.08 14.6735 129.094 14.0068 129.107 13.2654C129.121 12.5239 129.107 11.7347 129.107 10.898C129.107 10.0613 129.107 9.26535 129.107 8.51025C129.107 7.75515 129.107 7.05447 129.074 6.46943C129.04 5.8844 129.027 5.3878 128.993 5.10889C128.993 4.92522 128.946 4.72794 128.912 4.49664C128.872 4.27557 128.805 4.06062 128.71 3.85719C128.594 3.63531 128.416 3.45266 128.199 3.33178C127.981 3.21089 127.733 3.15706 127.485 3.17692C127.265 3.16746 127.046 3.21648 126.85 3.31911C126.654 3.42174 126.488 3.57441 126.368 3.76195C126.128 4.18144 125.968 4.64305 125.897 5.12249C125.897 5.44902 125.823 5.91841 125.789 6.52386C125.756 7.1293 125.729 7.81637 125.722 8.56467C125.715 9.31297 125.722 10.1225 125.722 10.9524C125.722 11.7824 125.722 12.5851 125.722 13.347C125.722 14.1089 125.722 14.7892 125.776 15.3878C125.83 15.9864 125.837 16.4354 125.87 16.7483C125.909 17.2743 126.112 17.7742 126.449 18.1769C126.575 18.303 126.724 18.4028 126.888 18.4705C127.052 18.5382 127.228 18.5725 127.405 18.5715C127.605 18.5824 127.806 18.5505 127.994 18.4779C128.182 18.4052 128.353 18.2934 128.495 18.1497C128.826 17.6747 128.998 17.1049 128.986 16.5239Z" fill="white"/>
<path d="M134.686 14.1633L135.225 14.1089C135.38 14.1089 135.568 14.1089 135.777 14.068C135.985 14.0272 136.201 14.068 136.45 14.068C136.86 14.0531 137.269 14.1297 137.648 14.2925C137.943 14.4332 138.202 14.6431 138.401 14.9048C138.588 15.1576 138.725 15.4438 138.805 15.7483C138.883 16.0412 138.924 16.343 138.926 16.6463C138.858 17.1636 138.972 17.6888 139.249 18.1293C139.378 18.2416 139.528 18.327 139.69 18.3807C139.851 18.4344 140.022 18.4553 140.192 18.4422C140.352 18.4551 140.513 18.4326 140.665 18.3763C140.816 18.3199 140.953 18.231 141.066 18.1157C141.282 17.7894 141.375 17.3962 141.329 17.0068V0.272121H144.364C144.562 0.265088 144.758 0.300226 144.942 0.375243C145.125 0.45026 145.29 0.563472 145.427 0.707495C145.574 0.873549 145.686 1.06728 145.757 1.27747C145.829 1.48766 145.859 1.71013 145.845 1.93199V16.7959C145.892 17.7151 145.712 18.6318 145.32 19.4626C145.004 20.0593 144.522 20.549 143.933 20.8708C143.324 21.1951 142.655 21.3896 141.968 21.4422C141.219 21.5166 140.467 21.5529 139.714 21.551C138.389 21.6278 137.086 21.1815 136.08 20.3061C135.626 19.8311 135.272 19.2677 135.041 18.6502C134.81 18.0327 134.705 17.374 134.734 16.7143C134.734 16.5306 134.734 16.3129 134.734 16.034C134.734 15.7551 134.734 15.517 134.734 15.2585V14.1633H134.686Z" fill="white"/>
<path d="M164.796 6.95923C164.601 6.95923 164.366 7.02725 164.083 7.05446C163.8 7.08168 163.518 7.09528 163.215 7.09528C162.88 7.09485 162.547 7.06297 162.219 7.00004C161.908 6.94351 161.612 6.8281 161.344 6.65991C161.082 6.49189 160.869 6.2573 160.725 5.97963C160.559 5.64685 160.48 5.27692 160.496 4.9048C160.539 4.38234 160.426 3.85885 160.173 3.4014C160.039 3.26376 159.877 3.1581 159.697 3.09218C159.518 3.02626 159.326 3.00175 159.136 3.02045C158.899 2.99283 158.659 3.03929 158.448 3.1536C158.238 3.2679 158.067 3.44458 157.959 3.65991C157.745 4.14311 157.642 4.66842 157.656 5.19732C157.629 5.74695 157.74 6.29444 157.979 6.78916C158.202 7.16501 158.506 7.48573 158.867 7.72793C159.062 7.87079 159.365 8.07487 159.756 8.34018C160.146 8.60548 160.563 8.87759 160.994 9.17691L162.192 9.98644L162.959 10.5443C163.242 10.8028 163.518 11.0613 163.773 11.3334C164.04 11.6129 164.267 11.9289 164.446 12.2722C164.647 12.6589 164.796 13.0706 164.89 13.4966C165.006 14.0351 165.06 14.5852 165.052 15.1361C165.068 16.1227 164.978 17.108 164.783 18.0749C164.644 18.8176 164.309 19.5086 163.814 20.0749C163.298 20.6182 162.643 21.0067 161.923 21.1973C160.925 21.4586 159.897 21.5777 158.867 21.5511C157.981 21.5733 157.096 21.4492 156.249 21.1837C155.607 20.9809 155.018 20.6344 154.526 20.1701C154.087 19.7315 153.763 19.189 153.584 18.5919C153.391 17.9294 153.296 17.2417 153.301 16.5511V13.9456C153.789 13.8455 154.285 13.7998 154.782 13.8096C155.124 13.8085 155.466 13.8312 155.805 13.8776C156.127 13.914 156.438 14.0158 156.72 14.1769C157.007 14.3302 157.242 14.5672 157.393 14.8572C157.576 15.2184 157.662 15.6219 157.642 16.0273C157.616 16.6409 157.719 17.2532 157.945 17.8232C158.057 18.0487 158.234 18.2344 158.453 18.3559C158.672 18.4774 158.922 18.5289 159.17 18.5034C159.398 18.5247 159.629 18.4887 159.84 18.3985C160.051 18.3083 160.237 18.1668 160.381 17.9864C160.697 17.3566 160.828 16.6483 160.758 15.9456C160.796 15.3623 160.685 14.7789 160.435 14.2517C160.179 13.8342 159.829 13.4844 159.412 13.2313C159.197 13.1021 158.901 12.9048 158.51 12.6463L157.292 11.7892C156.862 11.483 156.438 11.1701 156.027 10.864C155.617 10.5579 155.273 10.2926 155.004 10.0749C154.409 9.57597 153.971 8.9113 153.746 8.16331C153.513 7.4008 153.395 6.60741 153.396 5.80957C153.396 3.8912 153.88 2.40821 154.836 1.46263C155.792 0.517049 157.272 4.2515e-05 159.257 4.2515e-05C160.005 -0.00591143 160.751 0.0809047 161.478 0.258546C162.102 0.406922 162.691 0.674801 163.215 1.04766C163.699 1.39978 164.089 1.86709 164.352 2.40821C164.647 3.03007 164.799 3.71159 164.796 4.4014V6.95923Z" fill="white"/>
<path d="M172.785 2.94282e-05C173.694 -0.022494 174.601 0.0921456 175.477 0.340165C176.119 0.525355 176.714 0.850411 177.22 1.29255C177.67 1.69999 178.012 2.21436 178.216 2.78914C178.436 3.42584 178.572 4.0892 178.62 4.76193C178.694 5.44221 178.747 6.31295 178.781 7.40139C178.815 8.48983 178.835 9.61908 178.835 10.8028C178.835 11.9864 178.835 13.1225 178.768 14.2041C178.74 15.1033 178.663 16.0004 178.539 16.8912C178.431 18.2163 177.838 19.4533 176.876 20.3606C175.979 21.127 174.633 21.5284 172.839 21.5647C172.006 21.5732 171.175 21.5048 170.355 21.3606C169.689 21.2479 169.053 21.0003 168.484 20.6327C167.957 20.2714 167.531 19.7795 167.246 19.2041C166.909 18.4847 166.699 17.7111 166.627 16.9184C166.593 16.5783 166.559 16.0953 166.533 15.4762C166.506 14.8572 166.485 14.1769 166.465 13.4354C166.445 12.6939 166.465 11.8912 166.425 11.0681C166.384 10.2449 166.425 9.44901 166.425 8.6735C166.425 7.89799 166.465 7.19731 166.492 6.54425C166.519 5.89119 166.559 5.36738 166.613 4.96602C166.699 4.10247 166.955 3.26509 167.367 2.50343C167.711 1.89904 168.185 1.38056 168.753 0.986424C169.307 0.60248 169.932 0.336319 170.591 0.204111C171.314 0.0653568 172.049 -0.00298319 172.785 2.94282e-05ZM174.185 16.5238C174.185 16.2721 174.225 15.8436 174.252 15.2585C174.279 14.6735 174.299 14.0068 174.306 13.2653C174.312 12.5238 174.306 11.7347 174.306 10.898C174.306 10.0613 174.306 9.26534 174.306 8.51023C174.306 7.75513 174.306 7.05445 174.265 6.46942C174.225 5.88438 174.218 5.38778 174.185 5.10887C174.185 4.9252 174.137 4.72792 174.104 4.49663C174.07 4.27403 174.002 4.05819 173.902 3.85717C173.786 3.63529 173.608 3.45265 173.39 3.33176C173.172 3.21087 172.925 3.15704 172.677 3.1769C172.457 3.16813 172.238 3.21744 172.042 3.32001C171.846 3.42258 171.68 3.57487 171.56 3.76193C171.322 4.18274 171.163 4.6438 171.089 5.12248C171.089 5.44901 171.021 5.9184 170.981 6.52384C170.941 7.12928 170.927 7.81636 170.914 8.56466C170.9 9.31295 170.914 10.1225 170.914 10.9524C170.914 11.7823 170.914 12.5851 170.914 13.347C170.914 14.1089 170.914 14.7891 170.961 15.3878C171.008 15.9864 171.021 16.4354 171.055 16.7483C171.097 17.2735 171.3 17.7726 171.634 18.1769C171.76 18.303 171.909 18.4028 172.073 18.4705C172.237 18.5382 172.412 18.5725 172.59 18.5715C172.79 18.5824 172.991 18.5505 173.179 18.4778C173.367 18.4052 173.537 18.2934 173.68 18.1497C174.019 17.6781 174.197 17.107 174.185 16.5238Z" fill="white"/>
<path d="M197.861 0.272161V21.1973H194.832C194.648 21.2023 194.465 21.1672 194.295 21.0944C194.126 21.0217 193.974 20.9129 193.849 20.7756C193.574 20.4386 193.437 20.0077 193.466 19.5715V13.864C193.466 12.3629 193.466 10.6939 193.466 8.8572L190.458 21.1973H189.192C188.902 21.2153 188.611 21.1713 188.339 21.0682C188.066 20.9651 187.818 20.8051 187.611 20.5987C187.169 20.0846 186.855 19.4712 186.696 18.8096C186.642 18.6259 186.547 18.2722 186.413 17.7347C186.278 17.1973 186.117 16.5783 185.928 15.8572C185.74 15.1361 185.545 14.3946 185.35 13.6055C185.154 12.8164 184.966 12.0817 184.784 11.4014C184.603 10.7211 184.454 10.1497 184.34 9.68713C184.226 9.22454 184.158 8.95924 184.138 8.88441V21.1973H181.991C181.794 21.204 181.598 21.1693 181.415 21.0956C181.232 21.0218 181.066 20.9105 180.928 20.7688C180.781 20.6029 180.669 20.4092 180.597 20.199C180.526 19.9887 180.496 19.7662 180.511 19.5443V0.272161H183.923C184.635 0.221029 185.344 0.407424 185.942 0.802774C186.502 1.32269 186.88 2.01272 187.019 2.76876C187.072 2.97284 187.14 3.25175 187.234 3.6123C187.328 3.97284 187.429 4.39461 187.557 4.864C187.685 5.33339 187.813 5.83679 187.947 6.3742C188.082 6.91162 188.217 7.44903 188.365 7.99325C188.681 9.25856 189.038 10.6259 189.381 12.0749C189.78 10.5375 190.139 9.12477 190.458 7.83679C190.606 7.29257 190.74 6.74155 190.875 6.19053L191.252 4.65311C191.366 4.18373 191.474 3.76876 191.561 3.41502C191.649 3.06128 191.709 2.81638 191.75 2.67352C191.894 2.00536 192.215 1.38933 192.678 0.891209C192.955 0.652309 193.276 0.472482 193.623 0.362579C193.97 0.252676 194.336 0.214976 194.697 0.251753L197.861 0.272161Z" fill="white"/>
<path d="M204.22 18.0205H209.732V18.6463C209.756 19.3284 209.515 19.9928 209.059 20.4966C208.816 20.7338 208.526 20.9169 208.208 21.034C207.891 21.1512 207.552 21.1998 207.215 21.1769H199.704V0.272156H209.678V1.00685C209.674 1.30315 209.624 1.597 209.53 1.8776C209.433 2.16165 209.287 2.42637 209.099 2.65991C208.917 2.89568 208.688 3.09031 208.426 3.23134C208.122 3.38515 207.784 3.45996 207.444 3.44903H206.596C206.246 3.44903 205.923 3.44903 205.533 3.44903H204.247V8.34699H208.628V9.07488C208.629 9.37158 208.579 9.66615 208.48 9.94563C208.382 10.2343 208.232 10.502 208.036 10.7347C207.841 10.9738 207.598 11.1685 207.323 11.3062C207.017 11.4566 206.68 11.5312 206.34 11.5239H204.193L204.22 18.0205Z" fill="white"/>
<path d="M212.37 21.1973C212.172 21.2041 211.975 21.1695 211.791 21.0957C211.607 21.022 211.44 20.9107 211.3 20.7687C211.009 20.4311 210.862 19.9911 210.89 19.5442V0.272111H218.966C220.009 0.215864 221.039 0.533879 221.873 1.17007C222.609 1.81075 223.07 2.71583 223.158 3.69388C223.266 4.47831 223.32 5.2693 223.32 6.06123C223.321 6.74281 223.288 7.42401 223.219 8.10204C223.158 9.069 222.857 10.0049 222.344 10.8231C221.91 11.4277 221.318 11.8986 220.635 12.1837C220.675 12.3422 220.729 12.497 220.796 12.6463C220.904 12.9184 221.045 13.2653 221.227 13.6939C221.409 14.1224 221.604 14.5986 221.819 15.1293C222.034 15.6599 222.257 16.2177 222.492 16.7755C223.03 18.0816 223.632 19.5669 224.296 21.2313H221.065C220.551 21.2538 220.047 21.0816 219.652 20.7483C219.29 20.4252 219.016 20.0127 218.858 19.551C218.822 19.4422 218.741 19.2154 218.616 18.8707L218.185 17.6871C218.017 17.2245 217.835 16.7211 217.633 16.1769C217.431 15.6327 217.236 15.0816 217.014 14.517C216.536 13.2313 215.998 11.7959 215.405 10.1973V21.1973H212.37ZM218.656 7.80272C218.696 7.42177 218.717 7.02041 218.723 6.59184C218.736 6.20814 218.723 5.82398 218.683 5.44218C218.68 5.1067 218.617 4.77458 218.495 4.46259C218.404 4.23273 218.261 4.02767 218.077 3.86395C217.915 3.72377 217.724 3.62156 217.519 3.56463C217.299 3.50835 217.073 3.48092 216.846 3.483H215.392V10.0884H216.9C217.137 10.0929 217.372 10.0367 217.583 9.9249C217.794 9.81312 217.973 9.64942 218.104 9.44898C218.441 8.9653 218.633 8.39371 218.656 7.80272Z" fill="white"/>
<path d="M236.645 6.95923C236.45 6.95923 236.214 7.02725 235.932 7.05446C235.649 7.08168 235.366 7.09528 235.064 7.09528C234.729 7.09485 234.396 7.06297 234.068 7.00004C233.757 6.94351 233.46 6.8281 233.193 6.65991C232.931 6.49189 232.717 6.2573 232.574 5.97963C232.408 5.64685 232.329 5.27692 232.345 4.9048C232.392 4.38371 232.284 3.8603 232.035 3.4014C231.901 3.26376 231.739 3.1581 231.56 3.09218C231.38 3.02626 231.189 3.00175 230.999 3.02045C230.761 2.99283 230.521 3.03929 230.311 3.1536C230.1 3.2679 229.929 3.44458 229.821 3.65991C229.603 4.13055 229.491 4.6438 229.491 5.16331C229.465 5.71294 229.576 6.26043 229.814 6.75514C230.038 7.131 230.341 7.45172 230.703 7.69392C230.898 7.83678 231.201 8.04086 231.591 8.30616C231.981 8.57147 232.399 8.84358 232.829 9.1429L234.027 9.98644L234.794 10.5443C235.077 10.8028 235.353 11.0613 235.609 11.3334C235.875 11.6129 236.102 11.9289 236.282 12.2722C236.482 12.6589 236.632 13.0706 236.726 13.4966C236.842 14.0351 236.896 14.5852 236.887 15.1361C236.903 16.1227 236.813 17.108 236.618 18.0749C236.479 18.8176 236.144 19.5086 235.649 20.0749C235.133 20.6182 234.479 21.0067 233.758 21.1973C232.761 21.4586 231.732 21.5777 230.703 21.5511C229.816 21.5733 228.932 21.4492 228.085 21.1837C227.442 20.9809 226.854 20.6344 226.362 20.1701C225.923 19.7315 225.599 19.189 225.42 18.5919C225.226 17.9294 225.131 17.2417 225.137 16.5511V13.9456C225.624 13.8455 226.121 13.7998 226.618 13.8096C226.96 13.8085 227.301 13.8312 227.641 13.8776C227.962 13.914 228.274 14.0158 228.556 14.1769C228.843 14.3302 229.077 14.5672 229.229 14.8572C229.412 15.2184 229.498 15.6219 229.478 16.0273C229.451 16.6409 229.554 17.2532 229.781 17.8232C229.893 18.0487 230.07 18.2344 230.288 18.3559C230.507 18.4774 230.757 18.5289 231.005 18.5034C231.234 18.5247 231.464 18.4887 231.675 18.3985C231.887 18.3083 232.073 18.1668 232.217 17.9864C232.533 17.3566 232.664 16.6483 232.594 15.9456C232.632 15.3623 232.521 14.7789 232.271 14.2517C232.015 13.8342 231.664 13.4844 231.248 13.2313C231.032 13.1021 230.736 12.9048 230.346 12.6463L229.128 11.7892C228.697 11.483 228.273 11.1701 227.863 10.864C227.452 10.5579 227.109 10.2926 226.84 10.0749C226.249 9.57412 225.816 8.90964 225.595 8.16331C225.362 7.4008 225.244 6.60741 225.245 5.80957C225.245 3.8912 225.729 2.40821 226.685 1.46263C227.641 0.517049 229.121 4.2515e-05 231.106 4.2515e-05C231.854 -0.00591143 232.6 0.0809047 233.327 0.258546C233.951 0.406922 234.54 0.674801 235.064 1.04766C235.546 1.40161 235.936 1.86845 236.201 2.40821C236.496 3.03007 236.648 3.71159 236.645 4.4014V6.95923Z" fill="white"/>
<path d="M248.369 9.59185C248.795 9.70294 249.194 9.90215 249.54 10.1769C249.841 10.4261 250.092 10.7308 250.28 11.0748C250.455 11.4051 250.587 11.7574 250.67 12.1225C250.747 12.4626 250.796 12.8084 250.818 13.1565C250.852 13.7687 250.859 14.4558 250.818 15.1973C250.804 15.9038 250.741 16.6084 250.63 17.3061C250.479 18.4415 249.897 19.4731 249.008 20.1837C247.95 20.9115 246.685 21.2676 245.408 21.1973H238.368V0.272124H246.141C246.787 0.255447 247.43 0.347405 248.046 0.544233C248.519 0.693841 248.955 0.944379 249.324 1.27893C249.654 1.58479 249.907 1.96462 250.065 2.38777C250.226 2.82649 250.335 3.28331 250.388 3.74832C250.441 4.22263 250.468 4.69955 250.468 5.17689C250.465 5.65526 250.427 6.13273 250.354 6.60546C250.282 7.22699 250.094 7.82926 249.802 8.38097C249.468 8.932 248.965 9.3573 248.369 9.59185ZM242.884 8.40138H244.068C244.547 8.4335 245.022 8.29906 245.414 8.02042C245.774 7.63933 245.974 7.13231 245.973 6.60546C246.014 6.34458 246.03 6.0803 246.02 5.81634C246.02 5.52383 245.986 5.22451 245.953 4.91838C245.928 4.74827 245.892 4.58007 245.845 4.41498C245.789 4.24328 245.697 4.08561 245.576 3.9524C245.432 3.80852 245.263 3.69314 245.078 3.61226C244.825 3.51434 244.555 3.4681 244.284 3.47621H242.884V8.40138ZM246.06 16.3265C246.114 15.966 246.148 15.4966 246.175 14.9116C246.205 14.3327 246.185 13.7522 246.114 13.1769C246.073 12.759 245.909 12.3632 245.643 12.0408C245.469 11.8631 245.258 11.7268 245.025 11.6421C244.792 11.5574 244.543 11.5262 244.297 11.551H242.884V18.0748H244.122C244.601 18.1064 245.075 17.972 245.468 17.6939C245.824 17.3267 246.035 16.8402 246.06 16.3265Z" fill="white"/>
<path d="M257.299 21.1973C257.102 21.204 256.906 21.1693 256.723 21.0955C256.54 21.0218 256.374 20.9105 256.236 20.7687C256.09 20.6029 255.977 20.4092 255.906 20.1989C255.834 19.9887 255.804 19.7661 255.819 19.5442V13.1837L251.545 0.272141H254.527C255.051 0.24193 255.571 0.385216 256.007 0.680304C256.425 1.05504 256.701 1.56482 256.788 2.12248L257.192 3.80275C257.367 4.56466 257.555 5.35377 257.757 6.1701C257.972 7.11568 258.201 8.11568 258.43 9.18371C258.699 8.00683 258.955 6.9252 259.184 5.9252L259.466 4.6735C259.567 4.25854 259.655 3.87078 259.736 3.51704C259.816 3.1633 259.89 2.83677 259.951 2.61228C260.012 2.38779 260.052 2.18371 260.072 2.09527C260.178 1.62764 260.395 1.19323 260.705 0.829964C260.906 0.627266 261.149 0.472127 261.417 0.375681C261.684 0.279235 261.97 0.243876 262.253 0.272141H264.723L260.314 13.2925V21.1973H257.299Z" fill="white"/>
<path d="M4.51598 50.6465H1.48077C1.28322 50.6535 1.08641 50.6184 0.903195 50.5434C0.719978 50.4684 0.554461 50.3552 0.417439 50.2111C0.12363 49.8721 -0.026271 49.4298 0.000182208 48.9798V29.7145H3.03539C3.23279 29.7088 3.42922 29.7445 3.61225 29.8194C3.79529 29.8944 3.96094 30.0069 4.09872 30.1499C4.24527 30.3157 4.35764 30.5095 4.42928 30.7197C4.50093 30.9299 4.5304 31.1525 4.51598 31.3744V50.6465Z" fill="white"/>
<path d="M29.6118 29.7143V50.6463H26.5631C26.378 50.6509 26.1941 50.6156 26.0236 50.5429C25.853 50.4702 25.6997 50.3617 25.5738 50.2245C25.2959 49.8858 25.1563 49.4528 25.1835 49.0136V43.3061C25.1835 41.805 25.1835 40.1383 25.1835 38.3061L22.2088 50.6463H20.9436C20.6532 50.6643 20.3623 50.6203 20.0898 50.5171C19.8173 50.414 19.5693 50.254 19.3621 50.0476C18.9217 49.5299 18.6081 48.9147 18.4468 48.2517C18.3929 48.0748 18.2987 47.7143 18.1641 47.1769C18.0295 46.6395 17.868 46.0204 17.6796 45.3061C17.4911 44.5918 17.296 43.8367 17.1008 43.0476L16.5355 40.8163C16.3538 40.1361 16.2057 39.5714 16.0913 39.1088C15.9769 38.6463 15.9096 38.381 15.8894 38.3061V50.6191H13.7425C13.545 50.6261 13.3482 50.5909 13.165 50.5159C12.9817 50.4409 12.8162 50.3277 12.6792 50.1837C12.5327 50.0178 12.4203 49.8241 12.3486 49.6139C12.277 49.4036 12.2475 49.1811 12.262 48.9592V29.7143H15.674C16.3863 29.6632 17.0956 29.8495 17.693 30.2449C18.2535 30.7675 18.6313 31.4597 18.7698 32.2177C18.8237 32.415 18.891 32.7007 18.9852 33.0612C19.0794 33.4218 19.1803 33.8367 19.3082 34.3129C19.4361 34.7891 19.5639 35.2857 19.6918 35.8163C19.8197 36.3469 19.9677 36.8912 20.1158 37.4354C20.4321 38.7007 20.7888 40.0748 21.132 41.517C21.5268 39.9796 21.8858 38.5669 22.2088 37.2789C22.3569 36.7347 22.4915 36.1905 22.6261 35.6327L23.003 34.102C23.1174 33.6259 23.225 33.2177 23.3125 32.8639C23.4 32.5102 23.4606 32.2585 23.501 32.1156C23.6467 31.4481 23.9675 30.8324 24.4297 30.3333C24.7075 30.0968 25.029 29.9184 25.3756 29.8086C25.7223 29.6988 26.087 29.6598 26.4487 29.6939L29.6118 29.7143Z" fill="white"/>
<path d="M37.6877 29.4422C38.5968 29.4197 39.5041 29.5343 40.3797 29.7824C41.0227 29.972 41.6189 30.2965 42.1295 30.7347C42.5583 31.1495 42.8815 31.663 43.0717 32.2313C43.2981 32.8582 43.4429 33.5123 43.5024 34.1769C43.5742 34.8436 43.628 35.7211 43.6639 36.8096C43.6639 37.898 43.7177 39.0273 43.7177 40.2109C43.7177 41.3946 43.7177 42.5307 43.6504 43.6123C43.6219 44.5225 43.5478 45.4307 43.4283 46.3334C43.3166 47.659 42.7218 48.8954 41.7593 49.8028C40.862 50.5692 39.516 50.9728 37.7214 51.0137C36.8892 51.0219 36.058 50.9535 35.238 50.8096C34.5709 50.6976 33.934 50.4475 33.3671 50.0749C32.8402 49.7136 32.4139 49.2217 32.1288 48.6463C31.7924 47.929 31.5829 47.1577 31.5096 46.3674C31.5096 46.0205 31.4423 45.5375 31.4221 44.9252C31.4019 44.313 31.3683 43.6259 31.3481 42.8844C31.3279 42.1429 31.3481 41.347 31.3077 40.5239C31.2673 39.7007 31.3077 38.898 31.3077 38.1293C31.3077 37.3606 31.3414 36.6463 31.3683 35.9933C31.3952 35.3402 31.4356 34.8164 31.4894 34.4218C31.5731 33.5578 31.8295 32.72 32.2432 31.9592C32.5893 31.3409 33.0703 30.8104 33.6497 30.4082C34.2124 30.0314 34.8439 29.7724 35.5072 29.6463C36.2259 29.5076 36.9561 29.4393 37.6877 29.4422ZM39.0875 45.9728C39.0875 45.7143 39.1279 45.2926 39.1548 44.7075C39.1817 44.1225 39.2019 43.449 39.2087 42.7075C39.2154 41.966 39.2087 41.1769 39.2087 40.347C39.2087 39.5171 39.2087 38.7143 39.2087 37.9524C39.2087 37.1905 39.2087 36.5035 39.1683 35.9116C39.1279 35.3198 39.1212 34.8368 39.0875 34.5511C39.0875 34.3674 39.0472 34.1633 39.0068 33.9388C38.9748 33.7159 38.9066 33.4998 38.8049 33.2994C38.701 33.0965 38.5482 32.9234 38.3607 32.796C38.1272 32.6489 37.8548 32.5777 37.58 32.5919C37.3604 32.5823 37.1422 32.6313 36.9472 32.734C36.7523 32.8367 36.5876 32.9894 36.4696 33.1769C36.2254 33.5946 36.0653 34.057 35.9985 34.5375C35.9581 34.8572 35.9245 35.3266 35.8908 35.932C35.8572 36.5375 35.8302 37.2245 35.8235 37.9728C35.8168 38.7211 35.8235 39.5307 35.8235 40.3674C35.8235 41.2041 35.8235 41.9932 35.8235 42.7552C35.8235 43.5171 35.8235 44.1973 35.8706 44.796C35.9177 45.3946 35.9312 45.8368 35.9648 46.1565C36.0041 46.6816 36.2094 47.1801 36.5503 47.5783C36.8027 47.8313 37.1438 47.9731 37.4993 47.9728C37.7004 47.9864 37.902 47.9558 38.0902 47.883C38.2784 47.8101 38.4488 47.6969 38.5895 47.5511C38.9212 47.0935 39.0982 46.5401 39.0943 45.9728H39.0875Z" fill="white"/>
<path d="M45.0906 50.6463L50.3871 32.898H47.6951C47.3552 32.8958 47.0207 32.8119 46.7193 32.6531C46.4618 32.5122 46.2334 32.3229 46.0463 32.0952C45.8539 31.8677 45.7075 31.6043 45.6156 31.3197C45.5175 31.0401 45.4675 30.7456 45.4675 30.449V29.7143H56.1143L50.764 47.4626H56.1479V48.2245C56.148 48.5212 56.0979 48.8156 55.9999 49.0952C55.9085 49.3829 55.757 49.6474 55.5557 49.8708C55.3543 50.1 55.1124 50.2891 54.8423 50.4286C54.539 50.5792 54.2043 50.6539 53.8665 50.6463H45.0906Z" fill="white"/>
<path d="M62.1107 47.4626H67.6225V48.0884C67.6367 48.4265 67.5845 48.764 67.469 49.0816C67.3534 49.3992 67.1769 49.6905 66.9495 49.9388C66.7066 50.1766 66.4169 50.3601 66.0992 50.4774C65.7815 50.5946 65.4429 50.6428 65.1055 50.6191H57.5949V29.7143H67.5687V30.449C67.5693 30.7457 67.5192 31.0403 67.4206 31.3197C67.3257 31.6071 67.1798 31.8745 66.9899 32.1089C66.7866 32.3672 66.5258 32.5733 66.2288 32.7105C65.9317 32.8476 65.6068 32.9118 65.2805 32.898C65.0719 32.898 64.7892 32.898 64.4393 32.898H63.3759H62.1107V37.7891H66.5457V38.5238C66.5523 38.841 66.5022 39.1567 66.3977 39.4558C66.2038 40.0434 65.7909 40.5314 65.2469 40.8163C64.942 40.9693 64.6045 41.0441 64.2643 41.034H62.1107V47.4626Z" fill="white"/>
<path d="M80.0864 36.4014C79.8504 36.4456 79.6123 36.4774 79.373 36.4966C79.0971 36.4966 78.8077 36.5374 78.4981 36.5374C78.166 36.5401 77.8345 36.5082 77.5088 36.4422C77.1985 36.3857 76.9017 36.2702 76.6339 36.102C76.3707 35.9358 76.1567 35.7008 76.0148 35.4218C75.8499 35.0912 75.7711 34.7236 75.7859 34.3537C75.8408 33.817 75.7328 33.276 75.4764 32.8027C75.3427 32.6651 75.1802 32.5594 75.0009 32.4935C74.8215 32.4276 74.6299 32.4031 74.4399 32.4218C74.2016 32.3937 73.9604 32.4399 73.7487 32.5542C73.537 32.6684 73.3649 32.8454 73.2555 33.0612C73.0477 33.5436 72.9466 34.0659 72.9594 34.5918C72.9278 35.1419 73.0391 35.6907 73.2824 36.1837C73.5021 36.5623 73.8063 36.8838 74.1707 37.1225C74.3659 37.2653 74.6688 37.4694 75.0591 37.7347L76.2974 38.5782L77.4819 39.4558C77.8453 39.7143 78.101 39.9048 78.2424 40.0136C78.5288 40.2603 78.8029 40.5214 79.0634 40.7959C79.3301 41.0755 79.5566 41.3915 79.7364 41.7347C79.9369 42.1214 80.0863 42.5331 80.1806 42.9592C80.2961 43.5 80.3503 44.0523 80.3421 44.6054C80.3582 45.5898 80.268 46.5729 80.0729 47.5374C79.9311 48.2792 79.5966 48.9694 79.1038 49.5374C78.5888 50.0832 77.9342 50.4741 77.2127 50.6667C76.2149 50.9245 75.1869 51.0435 74.1573 51.0204C73.2685 51.0421 72.3821 50.918 71.5326 50.6531C70.8919 50.4477 70.3053 50.0989 69.8165 49.6327C69.376 49.1951 69.0519 48.6523 68.8743 48.0544C68.6804 47.3921 68.5851 46.7043 68.5916 46.0136V43.4286C69.0791 43.3315 69.5754 43.2859 70.0722 43.2925C70.4143 43.2917 70.7561 43.3144 71.0952 43.3606C71.4143 43.4001 71.7228 43.5017 72.0037 43.6599C72.2893 43.8148 72.5234 44.0514 72.6767 44.3401C72.8549 44.7029 72.9383 45.1057 72.919 45.5102C72.8939 46.1221 72.9995 46.7323 73.2286 47.2993C73.3405 47.5248 73.5175 47.7106 73.7363 47.8321C73.955 47.9536 74.2051 48.005 74.4534 47.9796C74.6818 48.0003 74.9117 47.964 75.1229 47.8738C75.3341 47.7837 75.5202 47.6425 75.6648 47.4626C75.9823 46.8332 76.1132 46.1245 76.0417 45.4218C76.0782 44.8364 75.9671 44.2512 75.7186 43.7211C75.4687 43.2885 75.1204 42.9223 74.7024 42.6531C74.4871 42.5306 74.1842 42.3333 73.8006 42.068C73.417 41.8027 73.0065 41.5238 72.5757 41.2109L71.3173 40.2925C70.9 39.9796 70.5635 39.7211 70.2943 39.5034C69.7103 39.0065 69.2803 38.3499 69.056 37.6123C68.8204 36.8505 68.7024 36.0566 68.706 35.2585C68.706 33.3401 69.1861 31.8912 70.1462 30.9116C71.1064 29.932 72.5802 29.4422 74.5678 29.4422C75.3158 29.4362 76.0616 29.523 76.7887 29.7007C77.409 29.8521 77.9957 30.1197 78.5183 30.4898C79.0027 30.8433 79.3952 31.3101 79.6624 31.8503C79.9585 32.4744 80.1104 33.1583 80.1066 33.8503L80.0864 36.4014Z" fill="white"/>
<path d="M93.977 29.4422C94.8861 29.4185 95.7936 29.5331 96.669 29.7823C97.3126 29.9704 97.9091 30.2951 98.4188 30.7347C98.8687 31.1422 99.211 31.6565 99.4148 32.2313C99.6381 32.8592 99.7828 33.5128 99.8455 34.1769C99.9128 34.8572 99.9734 35.7211 100.007 36.8096C100.041 37.898 100.061 39.0272 100.061 40.2109C100.061 41.3946 100.061 42.5306 99.9936 43.6123C99.9668 44.5229 99.8904 45.4313 99.7647 46.3334C99.6562 47.6598 99.0608 48.8973 98.0957 49.8028C97.1984 50.5692 95.8524 50.9728 94.0577 51.0136C93.2233 51.0221 92.3899 50.9538 91.5677 50.8096C90.9027 50.6977 90.2679 50.4475 89.7035 50.0749C89.1748 49.7157 88.7479 49.2233 88.4652 48.6463C88.1288 47.929 87.9193 47.1577 87.846 46.3674C87.8056 46.0204 87.7787 45.5374 87.7518 44.9252C87.7249 44.313 87.7047 43.6259 87.6845 42.8844C87.6643 42.1429 87.6508 41.347 87.6441 40.5238C87.6374 39.7007 87.6441 38.898 87.6441 38.1293C87.6441 37.3606 87.6845 36.6463 87.7114 35.9932C87.7383 35.3402 87.7787 34.8164 87.8325 34.4218C87.9162 33.5578 88.1726 32.72 88.5863 31.9592C88.9278 31.3514 89.402 30.8302 89.9727 30.4354C90.5334 30.0598 91.1626 29.8008 91.8234 29.6735C92.5324 29.5277 93.2535 29.4503 93.977 29.4422ZM95.3768 45.9728C95.3768 45.7143 95.4172 45.2925 95.4441 44.7075C95.471 44.1225 95.4845 43.449 95.498 42.7075C95.5114 41.966 95.498 41.1769 95.498 40.347C95.498 39.517 95.498 38.7143 95.498 37.9524C95.498 37.1905 95.498 36.5034 95.4643 35.9116C95.4307 35.3198 95.4172 34.8368 95.3835 34.5511C95.3835 34.3696 95.3566 34.1656 95.3028 33.9388C95.2651 33.7172 95.1971 33.502 95.1009 33.2994C94.997 33.0965 94.8442 32.9234 94.6567 32.7959C94.4232 32.6489 94.1508 32.5777 93.876 32.5919C93.6553 32.581 93.4357 32.6294 93.2395 32.7322C93.0432 32.835 92.8774 32.9884 92.7589 33.1769C92.5175 33.5959 92.3576 34.0577 92.2878 34.5374C92.2878 34.8572 92.2137 35.3266 92.1801 35.932C92.1464 36.5374 92.1195 37.2245 92.1128 37.9728C92.1061 38.7211 92.1128 39.5306 92.1128 40.3674C92.1128 41.2041 92.1128 41.9932 92.1128 42.7551C92.1128 43.517 92.1128 44.1973 92.1666 44.7959C92.2205 45.3946 92.2272 45.8368 92.2608 46.1565C92.2983 46.6808 92.5011 47.1792 92.8396 47.5783C92.9654 47.7044 93.1146 47.8041 93.2785 47.8718C93.4425 47.9395 93.6181 47.9739 93.7953 47.9728C93.9962 47.9851 94.1975 47.9538 94.3855 47.881C94.5735 47.8083 94.744 47.6958 94.8855 47.5511C95.2074 47.0893 95.3791 46.5377 95.3768 45.9728Z" fill="white"/>
<path d="M113.016 36.4014C112.814 36.4422 112.579 36.4694 112.303 36.4967C112.027 36.5239 111.731 36.5375 111.428 36.5375C111.093 36.5405 110.76 36.5086 110.432 36.4422C110.122 36.3846 109.825 36.2693 109.557 36.1021C109.295 35.9341 109.082 35.6995 108.938 35.4218C108.776 35.0901 108.697 34.7234 108.709 34.3538C108.767 33.8169 108.659 33.2748 108.399 32.8028C108.266 32.6647 108.103 32.5588 107.924 32.4929C107.745 32.4269 107.553 32.4026 107.363 32.4218C107.125 32.3932 106.885 32.4392 106.674 32.5537C106.463 32.6681 106.293 32.8453 106.185 33.0613C105.974 33.5426 105.873 34.0657 105.889 34.5919C105.857 35.1419 105.969 35.6907 106.212 36.1837C106.432 36.5624 106.736 36.8838 107.1 37.1225C107.298 37.2631 107.594 37.4672 107.989 37.7347L109.22 38.5783L110.418 39.4558C110.788 39.7143 111.044 39.9048 111.185 40.0137C111.468 40.2654 111.744 40.5239 112.007 40.796C112.273 41.0755 112.5 41.3915 112.68 41.7347C112.88 42.1215 113.029 42.5332 113.124 42.9592C113.239 43.5 113.293 44.0523 113.285 44.6055C113.298 45.5897 113.208 46.5725 113.016 47.5375C112.871 48.2783 112.537 48.9679 112.047 49.5375C111.528 50.0821 110.872 50.4727 110.149 50.6667C109.154 50.9246 108.128 51.0437 107.1 51.0205C106.212 51.0431 105.325 50.919 104.476 50.6531C103.834 50.4464 103.245 50.0978 102.753 49.6327C102.314 49.1948 101.993 48.6519 101.817 48.0545C101.624 47.3922 101.528 46.7043 101.535 46.0137V43.4286C102.02 43.3318 102.514 43.2862 103.009 43.2926C103.351 43.2913 103.693 43.3141 104.032 43.3606C104.353 43.3991 104.664 43.5008 104.947 43.6599C105.231 43.8168 105.465 44.0529 105.62 44.3402C105.798 44.7029 105.881 45.1057 105.862 45.5103C105.834 46.1224 105.939 46.7334 106.172 47.2994C106.281 47.5256 106.456 47.7122 106.674 47.834C106.892 47.9557 107.142 48.0066 107.39 47.9796C107.618 48.0009 107.848 47.9649 108.06 47.8747C108.271 47.7845 108.457 47.643 108.601 47.4626C108.922 46.8344 109.053 46.1247 108.978 45.4218C109.015 44.8364 108.903 44.2512 108.655 43.7211C108.402 43.3038 108.053 42.9538 107.639 42.7007C107.423 42.5783 107.121 42.381 106.737 42.1157C106.353 41.8504 105.943 41.5715 105.512 41.2586C105.081 40.9456 104.657 40.6463 104.247 40.3402C103.836 40.0341 103.493 39.7688 103.224 39.5511C102.64 39.0541 102.21 38.3975 101.986 37.6599C101.756 36.8971 101.64 36.1037 101.642 35.3062C101.642 33.3878 102.12 31.9388 103.076 30.9592C104.032 29.9796 105.505 29.4898 107.497 29.4898C108.245 29.4839 108.991 29.5707 109.718 29.7484C110.341 29.8997 110.93 30.1673 111.455 30.5375C111.937 30.8928 112.33 31.3591 112.599 31.898C112.892 32.5232 113.043 33.2063 113.043 33.898L113.016 36.4014Z" fill="white"/>
<path d="M120.513 50.6463C119.801 50.681 119.095 50.4908 118.494 50.1021C117.911 49.5992 117.544 48.8869 117.471 48.1157L114.106 29.7143H117.256C117.782 29.6911 118.297 29.8656 118.703 30.2041C119.067 30.5049 119.306 30.9317 119.376 31.4014L121.395 46.9728L123.225 29.7143H126.099C126.49 29.7079 126.875 29.8065 127.216 30.0001C127.387 30.111 127.524 30.2677 127.612 30.4526C127.7 30.6376 127.735 30.8436 127.714 31.0477C127.688 31.4583 127.638 31.8671 127.566 32.2722C127.465 32.9524 127.344 33.7211 127.189 34.6599C127.034 35.5987 126.86 36.6531 126.664 37.8028C126.469 38.9524 126.267 40.1157 126.059 41.2926C125.85 42.4694 125.655 43.6191 125.453 44.7348C125.251 45.8504 125.083 46.8368 124.935 47.7075C124.787 48.5783 124.659 49.279 124.571 49.8164C124.506 50.0882 124.469 50.3665 124.464 50.6463H120.513Z" fill="white"/>
<path d="M134.848 29.4422C135.746 29.4218 136.642 29.5365 137.506 29.7823C138.15 29.9704 138.746 30.2951 139.256 30.7347C139.706 31.1421 140.048 31.6565 140.252 32.2313C140.475 32.8591 140.62 33.5127 140.683 34.1769C140.75 34.8435 140.804 35.7211 140.844 36.8095C140.878 37.898 140.898 39.0272 140.898 40.2109C140.898 41.3946 140.898 42.5306 140.831 43.6123C140.804 44.5228 140.728 45.4312 140.602 46.3333C140.494 47.6598 139.898 48.8973 138.933 49.8027C138.036 50.5692 136.69 50.9728 134.895 51.0136C134.061 51.0221 133.227 50.9538 132.405 50.8095C131.74 50.6976 131.105 50.4475 130.541 50.0748C130.012 49.7157 129.585 49.2232 129.303 48.6463C128.963 47.9303 128.753 47.1584 128.683 46.3674C128.643 46.0204 128.616 45.5374 128.589 44.9252C128.562 44.3129 128.535 43.6259 128.522 42.8844C128.508 42.1429 128.488 41.3469 128.481 40.5238C128.475 39.7007 128.481 38.898 128.481 38.1293C128.481 37.3606 128.522 36.6463 128.549 35.9932C128.576 35.3401 128.616 34.8163 128.67 34.4218C128.75 33.5571 129.007 32.7187 129.424 31.9592C129.765 31.3513 130.239 30.8302 130.81 30.4354C131.37 30.0586 132 29.7995 132.661 29.6735C133.381 29.5256 134.113 29.4481 134.848 29.4422ZM136.248 45.9728C136.248 45.7143 136.281 45.2925 136.315 44.7075C136.349 44.1225 136.355 43.449 136.362 42.7075C136.369 41.966 136.362 41.1769 136.362 40.3469C136.362 39.517 136.362 38.7143 136.362 37.9524C136.362 37.1905 136.362 36.5034 136.322 35.9116C136.317 35.457 136.29 35.0029 136.241 34.551C136.225 34.3457 136.198 34.1413 136.16 33.9388C136.128 33.7158 136.06 33.4998 135.958 33.2993C135.86 33.0928 135.706 32.9184 135.514 32.7959C135.283 32.6502 135.013 32.579 134.74 32.5918C134.52 32.581 134.3 32.6294 134.104 32.7322C133.907 32.8349 133.742 32.9884 133.623 33.1769C133.382 33.5959 133.222 34.0577 133.152 34.5374C133.152 34.8572 133.078 35.3265 133.044 35.932C133.011 36.5374 132.984 37.2245 132.977 37.9728C132.97 38.7211 132.977 39.5306 132.977 40.3674C132.977 41.2041 132.977 41.9932 132.977 42.7551C132.977 43.517 132.977 44.1973 133.031 44.7959C133.085 45.3946 133.091 45.8367 133.125 46.1565C133.163 46.6808 133.365 47.1791 133.704 47.5782C133.83 47.7043 133.979 47.8041 134.143 47.8718C134.307 47.9395 134.482 47.9738 134.66 47.9728C134.86 47.985 135.062 47.9538 135.25 47.881C135.438 47.8083 135.608 47.6958 135.75 47.551C136.074 47.0901 136.248 46.5384 136.248 45.9728Z" fill="white"/>
<path d="M141.948 43.6055L142.486 43.551C142.641 43.551 142.83 43.551 143.032 43.5102H143.705C144.116 43.4937 144.526 43.5728 144.903 43.7415C145.198 43.8822 145.457 44.0921 145.656 44.3538C145.845 44.605 145.982 44.8918 146.06 45.1973C146.139 45.49 146.18 45.7919 146.181 46.0953C146.112 46.6105 146.227 47.1337 146.504 47.5715C146.633 47.6838 146.783 47.7692 146.944 47.8229C147.106 47.8766 147.277 47.8975 147.446 47.8844C147.606 47.8977 147.766 47.8754 147.917 47.819C148.067 47.7625 148.202 47.6734 148.315 47.5579C148.532 47.2399 148.632 46.8545 148.597 46.4694V29.7143H151.639C151.836 29.7094 152.033 29.7455 152.216 29.8204C152.399 29.8953 152.564 30.0073 152.703 30.1497C152.993 30.4873 153.141 30.9273 153.113 31.3742V46.2585C153.162 47.1749 152.983 48.0891 152.595 48.9184C152.277 49.5213 151.79 50.0159 151.195 50.3402C150.583 50.6584 149.916 50.8525 149.23 50.9116C148.496 50.9796 147.743 51.0204 146.975 51.0204C145.649 51.099 144.344 50.6497 143.341 49.7687C142.889 49.2943 142.536 48.732 142.304 48.1157C142.073 47.4995 141.968 46.8422 141.995 46.1837C141.995 46 141.995 45.7755 141.995 45.5034C141.995 45.2313 141.995 44.9796 141.995 44.7279V43.6055H141.948Z" fill="white"/>
<path d="M159.372 50.6463H156.33C156.132 50.6529 155.936 50.6175 155.753 50.5425C155.569 50.4675 155.404 50.3546 155.267 50.2109C154.978 49.8694 154.831 49.4282 154.856 48.9796V29.7143H157.891C158.089 29.7085 158.285 29.7442 158.468 29.8192C158.651 29.8941 158.817 30.0067 158.955 30.1497C159.247 30.4866 159.397 30.9264 159.372 31.3741V50.6463Z" fill="white"/>
<path d="M165.018 33.3878H162.649C162.353 33.4012 162.058 33.3427 161.789 33.2173C161.52 33.0918 161.284 32.903 161.102 32.6667C160.731 32.1698 160.536 31.5611 160.55 30.9388V29.7687H174.01V30.9388C174.027 31.5616 173.832 32.1716 173.458 32.6667C173.275 32.903 173.04 33.0918 172.77 33.2173C172.501 33.3427 172.206 33.4012 171.91 33.3878H169.548V50.6463H166.533C166.335 50.6529 166.138 50.6176 165.955 50.5426C165.772 50.4676 165.607 50.3546 165.469 50.2109C165.173 49.8653 165.023 49.4156 165.052 48.9592L165.018 33.3878Z" fill="white"/>
<path d="M179.69 50.6463H176.661C176.464 50.6533 176.267 50.6182 176.084 50.5431C175.9 50.4681 175.735 50.3549 175.598 50.2109C175.304 49.8719 175.154 49.4295 175.181 48.9796V29.7143H178.216C178.413 29.7085 178.61 29.7442 178.793 29.8192C178.976 29.8941 179.141 30.0067 179.279 30.1497C179.426 30.3155 179.538 30.5092 179.61 30.7195C179.681 30.9297 179.711 31.1523 179.696 31.3741L179.69 50.6463Z" fill="white"/>
<path d="M188.93 50.6463C188.731 50.6543 188.533 50.6196 188.349 50.5446C188.164 50.4695 187.998 50.3558 187.86 50.2109C187.567 49.874 187.417 49.4341 187.443 48.9864V29.7143H195.586C196.627 29.6605 197.654 29.973 198.493 30.5987C199.236 31.2436 199.7 32.1568 199.785 33.1429C199.887 33.9211 199.941 34.7049 199.947 35.4898C199.948 36.1852 199.912 36.88 199.839 37.5715C199.775 38.1196 199.649 38.6583 199.462 39.1769C199.291 39.6127 199.065 40.0242 198.789 40.4014C198.553 40.724 198.272 41.0104 197.955 41.2517C197.684 41.4611 197.385 41.6306 197.066 41.7551C196.746 41.9174 196.4 42.0189 196.043 42.0545C195.52 42.1661 194.989 42.2389 194.455 42.2721C193.796 42.3266 192.954 42.3538 191.931 42.3538V50.6463H188.93ZM195.263 37.2245C195.303 36.8504 195.323 36.4422 195.33 36.0068C195.345 35.6095 195.331 35.2117 195.29 34.8164C195.286 34.4832 195.222 34.1534 195.101 33.8436C195.01 33.6137 194.868 33.4086 194.684 33.2449C194.52 33.1053 194.327 33.0053 194.119 32.9524C193.899 32.8951 193.673 32.8676 193.446 32.8708H191.965V39.4762H193.506C193.747 39.4817 193.985 39.426 194.199 39.3143C194.413 39.2025 194.596 39.0384 194.731 38.8368C195.052 38.3591 195.236 37.8012 195.263 37.2245Z" fill="white"/>
<path d="M207.444 29.4422C208.353 29.4197 209.26 29.5343 210.136 29.7824C210.777 29.9713 211.371 30.296 211.879 30.7347C212.329 31.1422 212.671 31.6566 212.875 32.2313C213.101 32.8582 213.246 33.5123 213.306 34.1769C213.377 34.8436 213.431 35.7211 213.467 36.8096C213.501 37.898 213.521 39.0273 213.521 40.2109C213.521 41.3946 213.521 42.5307 213.454 43.6123C213.427 44.5229 213.351 45.4313 213.225 46.3334C213.119 47.6591 212.526 48.8966 211.563 49.8028C210.665 50.5692 209.319 50.9728 207.525 51.0137C206.692 51.0222 205.861 50.9538 205.041 50.8096C204.374 50.6976 203.737 50.4475 203.17 50.0749C202.644 49.7136 202.217 49.2217 201.932 48.6463C201.596 47.929 201.386 47.1577 201.313 46.3674C201.279 46.0205 201.246 45.5375 201.219 44.9252C201.192 44.313 201.172 43.6259 201.151 42.8844C201.131 42.1429 201.151 41.347 201.111 40.5239C201.071 39.7007 201.111 38.898 201.111 38.1293C201.111 37.3606 201.151 36.6463 201.178 35.9933C201.205 35.3402 201.246 34.8164 201.299 34.4218C201.383 33.5578 201.64 32.72 202.053 31.9592C202.397 31.3529 202.871 30.8322 203.44 30.4354C203.99 30.0535 204.61 29.7853 205.263 29.6463C205.982 29.5084 206.712 29.4401 207.444 29.4422ZM208.844 45.9728C208.844 45.7143 208.884 45.2926 208.911 44.7075C208.938 44.1225 208.958 43.449 208.965 42.7075C208.972 41.966 208.965 41.1769 208.965 40.347C208.965 39.5171 208.965 38.7143 208.965 37.9524C208.965 37.1905 208.965 36.5035 208.925 35.9116C208.884 35.3198 208.877 34.8368 208.844 34.5511C208.844 34.3697 208.817 34.1656 208.763 33.9388C208.731 33.7159 208.663 33.4998 208.561 33.2994C208.457 33.0965 208.304 32.9234 208.117 32.796C207.883 32.6489 207.611 32.5777 207.336 32.5919C207.116 32.5831 206.897 32.6324 206.701 32.735C206.505 32.8376 206.339 32.9899 206.219 33.1769C205.98 33.5972 205.821 34.0585 205.748 34.5375C205.714 34.8572 205.681 35.3266 205.647 35.932C205.613 36.5375 205.586 37.2245 205.573 37.9728C205.56 38.7211 205.573 39.5307 205.573 40.3674C205.573 41.2041 205.573 41.9932 205.573 42.7552C205.573 43.5171 205.573 44.1973 205.62 44.796C205.667 45.3946 205.681 45.8368 205.714 46.1565C205.754 46.6816 205.959 47.1801 206.3 47.5783C206.552 47.8313 206.893 47.9731 207.249 47.9728C207.45 47.9864 207.651 47.9558 207.84 47.883C208.028 47.8101 208.198 47.6969 208.339 47.5511C208.671 47.0935 208.848 46.5401 208.844 45.9728Z" fill="white"/>
<path d="M227.472 29.7143C226.911 31.1293 226.4 32.4717 225.938 33.7415C225.743 34.2857 225.534 34.8231 225.319 35.3673C225.103 35.9116 224.901 36.4354 224.713 36.932C224.525 37.4286 224.35 37.8912 224.188 38.2925C224.027 38.6939 223.892 39.0476 223.784 39.2993C223.892 39.585 224.033 39.9796 224.202 40.449C224.37 40.9184 224.565 41.4694 224.78 42.0544C224.996 42.6395 225.224 43.2653 225.453 43.9184L226.167 45.8503C226.719 47.3515 227.302 48.9388 227.916 50.6122H224.605C224.159 50.6203 223.728 50.449 223.407 50.1361C223.085 49.8222 222.861 49.4203 222.761 48.9796C222.721 48.8367 222.627 48.5306 222.479 48.068C222.331 47.6054 222.142 47.0612 221.94 46.4422C221.738 45.8231 221.51 45.1497 221.267 44.4422L220.594 42.4422L220.029 40.8095C219.867 40.3537 219.76 40.0408 219.706 39.8776V50.6463H216.704C216.507 50.6533 216.31 50.6182 216.127 50.5431C215.944 50.4681 215.778 50.3549 215.641 50.2109C215.493 50.0405 215.38 49.8421 215.308 49.6273C215.237 49.4124 215.208 49.1853 215.224 48.9592V29.7143H218.259C218.456 29.7085 218.653 29.7442 218.836 29.8192C219.019 29.8941 219.185 30.0067 219.322 30.1497C219.47 30.32 219.583 30.5184 219.655 30.7333C219.727 30.9481 219.755 31.1752 219.74 31.4014V39.7483L220.049 38.8776L220.588 37.3401C220.789 36.7551 221.012 36.1293 221.261 35.4626C221.51 34.7959 221.705 34.1837 221.934 33.6054L222.445 32.0816C222.586 31.6463 222.674 31.4014 222.714 31.2381C222.824 30.8185 223.059 30.4433 223.387 30.1633C223.713 29.8656 224.139 29.705 224.578 29.7143H227.472Z" fill="white"/>
<path d="M233.368 47.4898H238.913V48.0884C238.939 48.7707 238.697 49.4357 238.24 49.9388C237.997 50.1763 237.707 50.3596 237.39 50.4767C237.072 50.5939 236.734 50.6424 236.396 50.6191H228.852V29.7143H231.887C232.084 29.7085 232.281 29.7442 232.464 29.8192C232.647 29.8941 232.813 30.0067 232.95 30.1497C233.243 30.4866 233.393 30.9264 233.368 31.3741V47.4898Z" fill="white"/>
<path d="M246.087 29.4422C246.985 29.4218 247.881 29.5365 248.746 29.7823C249.389 29.9704 249.986 30.2951 250.495 30.7347C250.945 31.1421 251.288 31.6565 251.491 32.2313C251.715 32.8591 251.859 33.5127 251.922 34.1769C251.989 34.8435 252.043 35.7211 252.084 36.8095C252.117 37.898 252.138 39.0272 252.138 40.2109C252.138 41.3946 252.138 42.5306 252.07 43.6123C252.043 44.5228 251.967 45.4312 251.841 46.3333C251.733 47.6598 251.138 48.8973 250.172 49.8027C249.275 50.5692 247.929 50.9728 246.134 51.0136C245.3 51.0221 244.467 50.9538 243.644 50.8095C242.979 50.6976 242.345 50.4475 241.78 50.0748C241.251 49.7157 240.825 49.2232 240.542 48.6463C240.202 47.9303 239.992 47.1584 239.923 46.3674C239.882 46.0204 239.855 45.5374 239.828 44.9252C239.802 44.3129 239.775 43.6259 239.761 42.8844C239.748 42.1429 239.727 41.3469 239.721 40.5238C239.714 39.7007 239.721 38.898 239.721 38.1293C239.721 37.3606 239.761 36.6463 239.788 35.9932C239.815 35.3401 239.855 34.8163 239.909 34.4218C239.99 33.5571 240.246 32.7187 240.663 31.9592C241.004 31.3513 241.479 30.8302 242.049 30.4354C242.61 30.0598 243.239 29.8008 243.9 29.6735C244.62 29.5256 245.353 29.4481 246.087 29.4422ZM247.487 45.9728C247.487 45.7143 247.521 45.2925 247.554 44.7075C247.588 44.1225 247.595 43.449 247.602 42.7075C247.608 41.966 247.602 41.1769 247.602 40.3469C247.602 39.517 247.602 38.7143 247.602 37.9524C247.602 37.1905 247.602 36.5034 247.561 35.9116C247.557 35.457 247.53 35.0029 247.48 34.551C247.464 34.3457 247.437 34.1413 247.4 33.9388C247.368 33.7158 247.299 33.4998 247.198 33.2993C247.099 33.0928 246.945 32.9184 246.754 32.7959C246.522 32.6502 246.252 32.579 245.98 32.5918C245.759 32.581 245.539 32.6294 245.343 32.7322C245.147 32.8349 244.981 32.9884 244.862 33.1769C244.621 33.5959 244.461 34.0577 244.391 34.5374C244.358 34.8572 244.317 35.3265 244.284 35.932C244.25 36.5374 244.223 37.2245 244.216 37.9728C244.21 38.7211 244.216 39.5306 244.216 40.3674C244.216 41.2041 244.216 41.9932 244.216 42.7551C244.216 43.517 244.216 44.1973 244.27 44.7959C244.324 45.3946 244.331 45.8367 244.364 46.1565C244.402 46.6808 244.605 47.1791 244.943 47.5782C245.069 47.7043 245.218 47.8041 245.382 47.8718C245.546 47.9395 245.722 47.9738 245.899 47.9728C246.1 47.985 246.301 47.9538 246.489 47.881C246.677 47.8083 246.848 47.6958 246.989 47.551C247.313 47.0901 247.487 46.5384 247.487 45.9728Z" fill="white"/>
<path d="M268 50.6463H262.73C262.212 50.6651 261.704 50.4909 261.304 50.1565C260.942 49.8535 260.688 49.4408 260.577 48.9796C260.543 48.8164 260.456 48.4082 260.321 47.7551C260.187 47.1021 260.025 46.313 259.837 45.381C259.648 44.449 259.446 43.4286 259.238 42.3198C259.029 41.2109 258.814 40.1361 258.618 39.0885C258.423 38.0409 258.242 37.0477 258.08 36.1633C257.919 35.279 257.797 34.5647 257.73 34.0613V50.6191H255.307C255.11 50.624 254.914 50.5879 254.731 50.513C254.548 50.4382 254.382 50.3261 254.244 50.1837C253.951 49.8468 253.801 49.4069 253.827 48.9592V29.7688H259.103C259.62 29.7497 260.126 29.9241 260.523 30.2585C260.888 30.5668 261.143 30.9873 261.25 31.4558C261.284 31.6191 261.371 32.0273 261.506 32.6803C261.64 33.3334 261.802 34.1225 261.99 35.0545C262.179 35.9864 262.381 37.0068 262.596 38.1157C262.811 39.2245 263.02 40.2994 263.215 41.347C263.41 42.3946 263.592 43.3878 263.753 44.2722C263.915 45.1565 264.029 45.8708 264.103 46.381V29.7688H266.506C266.703 29.763 266.9 29.7987 267.083 29.8736C267.266 29.9486 267.432 30.0611 267.569 30.2041C267.862 30.5411 268.012 30.9809 267.987 31.4286L268 50.6463Z" fill="white"/>
<path d="M75.5081 24C75.307 24 75.307 24 75.106 24.2105L74.3016 25.6842L73.4973 24.2105C73.4973 24 73.2962 24 73.0951 24H70.481C70.0789 24 69.8778 24.4211 70.0789 24.6316L72.6929 28H75.307L77.9211 24.6316C78.1222 24.4211 77.9211 24 77.519 24H75.5081Z" fill="white"/>
</g>
<defs>
<clipPath id="clip0_130_69">
<rect width="268" height="51" fill="white"/>
</clipPath>
</defs>
</svg>
