<svg width="133" height="24" viewBox="0 0 133 24" fill="none" xmlns="http://www.w3.org/2000/svg">
<path d="M2.23675 24C1.74075 24 1.32742 23.8347 0.996753 23.504C0.686753 23.1733 0.531753 22.7083 0.531753 22.109V0.129999H9.89375C11.2991 0.129999 12.4151 0.470999 13.2418 1.153C14.0684 1.81433 14.5644 2.77533 14.7298 4.036C14.8538 4.966 14.9158 5.865 14.9158 6.733C14.9158 7.58033 14.8744 8.36567 14.7918 9.089C14.7091 9.771 14.5644 10.3807 14.3578 10.918C14.1511 11.4553 13.9031 11.9203 13.6138 12.313C13.3244 12.7057 13.0041 13.0363 12.6528 13.305C12.3014 13.553 11.9604 13.739 11.6298 13.863C11.3818 14.0077 10.9891 14.1213 10.4518 14.204C9.99709 14.3073 9.38742 14.39 8.62275 14.452C7.85809 14.514 6.88675 14.545 5.70875 14.545V24H2.23675ZM9.52175 8.717C9.56309 8.283 9.58375 7.818 9.58375 7.322C9.60442 6.826 9.59409 6.37133 9.55275 5.958C9.53209 5.50333 9.45975 5.13133 9.33575 4.842C9.21175 4.55267 9.04642 4.32533 8.83975 4.16C8.65375 3.99467 8.43675 3.881 8.18875 3.819C7.96142 3.757 7.71342 3.726 7.44475 3.726H5.73975V11.29H7.50675C8.08542 11.29 8.55042 11.0523 8.90175 10.577C9.25309 10.081 9.45975 9.461 9.52175 8.717ZM18.9998 24C18.5038 24 18.0904 23.8347 17.7598 23.504C17.4498 23.1733 17.2948 22.7083 17.2948 22.109V0.129999H26.6258C28.0311 0.129999 29.1471 0.470999 29.9738 1.153C30.8004 1.835 31.2964 2.796 31.4618 4.036C31.5858 4.98667 31.6478 5.88567 31.6478 6.733C31.6478 7.58033 31.6064 8.36567 31.5238 9.089C31.3584 10.453 31.0174 11.476 30.5008 12.158C30.0048 12.84 29.3538 13.3463 28.5478 13.677C28.5478 13.7183 28.6098 13.894 28.7338 14.204C28.8578 14.514 29.0231 14.917 29.2298 15.413C29.4364 15.8883 29.6638 16.436 29.9118 17.056C30.1598 17.6553 30.4181 18.2753 30.6868 18.916C31.3068 20.404 31.9991 22.0987 32.7638 24H29.0438C28.3824 24 27.8348 23.814 27.4008 23.442C26.9874 23.07 26.6878 22.6153 26.5018 22.078C26.4604 21.954 26.3674 21.706 26.2228 21.334C26.0781 20.962 25.9024 20.5177 25.6958 20.001C25.5098 19.4637 25.3031 18.885 25.0758 18.265C24.8484 17.645 24.6108 17.0147 24.3628 16.374C23.8048 14.9067 23.1848 13.2637 22.5028 11.445V24H18.9998ZM26.2538 8.717C26.2951 8.283 26.3158 7.82833 26.3158 7.353C26.3364 6.857 26.3261 6.40233 26.2848 5.989C26.2641 5.53433 26.1918 5.16233 26.0678 4.873C25.9438 4.58367 25.7784 4.35633 25.5718 4.191C25.3858 4.02567 25.1688 3.912 24.9208 3.85C24.6934 3.788 24.4454 3.757 24.1768 3.757H22.5028V11.29H24.2388C24.8174 11.29 25.2824 11.0523 25.6338 10.577C25.9851 10.081 26.1918 9.461 26.2538 8.717ZM34.0064 24C34.0271 23.8553 34.1098 23.4007 34.2544 22.636C34.4198 21.8713 34.6264 20.9207 34.8744 19.784C35.1224 18.6267 35.3911 17.3453 35.6804 15.94C35.9698 14.5347 36.2694 13.0983 36.5794 11.631C37.2821 8.221 38.0778 4.38733 38.9664 0.129999H43.2754C44.2674 0.129999 45.0321 0.336665 45.5694 0.749998C46.1068 1.16333 46.5201 1.91767 46.8094 3.013C46.8714 3.24033 46.9748 3.71567 47.1194 4.439C47.2848 5.14167 47.4708 6.00967 47.6774 7.043C47.9048 8.05567 48.1424 9.182 48.3904 10.422C48.6591 11.6413 48.9174 12.8813 49.1654 14.142C49.7648 17.0973 50.4261 20.3833 51.1494 24H47.9564C47.2951 24 46.7474 23.814 46.3134 23.442C45.8794 23.07 45.6108 22.6153 45.5074 22.078L44.3914 16.591H40.3924L39.1834 22.078C39.0801 22.6153 38.8114 23.07 38.3774 23.442C37.9434 23.814 37.3958 24 36.7344 24H34.0064ZM43.7714 12.933L42.5314 5.307L41.1364 12.933H43.7714ZM57.7885 24C56.7965 24 56.0112 23.7933 55.4325 23.38C54.8538 22.9667 54.4612 22.2123 54.2545 21.117L50.3795 0.129999H54.0065C54.6885 0.129999 55.2465 0.315999 55.6805 0.687999C56.1145 1.06 56.3728 1.51467 56.4555 2.052L58.7805 19.815L60.8885 0.129999H64.2055C64.6808 0.129999 65.1045 0.243665 65.4765 0.470998C65.8692 0.677666 66.0655 1.07033 66.0655 1.649C66.0655 1.835 66.0035 2.3 65.8795 3.044C65.7762 3.788 65.6315 4.69733 65.4455 5.772C65.2802 6.84667 65.0838 8.04533 64.8565 9.368C64.6292 10.67 64.3915 11.9927 64.1435 13.336C63.9162 14.6793 63.6888 15.9917 63.4615 17.273C63.2342 18.5337 63.0275 19.66 62.8415 20.652C62.6762 21.644 62.5418 22.45 62.4385 23.07C62.3352 23.6693 62.2938 23.9793 62.3145 24H57.7885ZM73.5789 24H70.0759C69.5799 24 69.1666 23.8347 68.8359 23.504C68.5259 23.1733 68.3709 22.698 68.3709 22.078V0.129999H71.8739C72.3699 0.129999 72.7729 0.295332 73.0829 0.626C73.4136 0.956666 73.5789 1.42167 73.5789 2.021V24ZM81.8351 20.404H88.2211V21.086C88.2211 21.954 87.9627 22.6567 87.4461 23.194C86.9501 23.7313 86.2474 24 85.3381 24H76.6271V0.129999H80.1301C80.6261 0.129999 81.0291 0.295332 81.3391 0.626C81.6697 0.956666 81.8351 1.42167 81.8351 2.021V20.404ZM106.548 24H100.472C99.811 24 99.2634 23.814 98.8294 23.442C98.3954 23.07 98.1164 22.6153 97.9924 22.078C97.951 21.892 97.8477 21.427 97.6824 20.683C97.5377 19.939 97.3517 19.04 97.1244 17.986C96.9177 16.9113 96.6904 15.7437 96.4424 14.483C96.1944 13.2223 95.9567 11.9927 95.7294 10.794C95.502 9.59533 95.2954 8.48967 95.1094 7.477C94.9234 6.44367 94.789 5.63767 94.7064 5.059V23.969H91.9164C91.4204 23.969 91.007 23.8037 90.6764 23.473C90.3664 23.1423 90.2114 22.6773 90.2114 22.078V0.192H96.2564C96.9177 0.192 97.4654 0.377999 97.8994 0.749998C98.3334 1.122 98.6124 1.57667 98.7364 2.114C98.7777 2.3 98.8707 2.765 99.0154 3.509C99.1807 4.253 99.3667 5.16233 99.5734 6.237C99.8007 7.291 100.038 8.44833 100.286 9.709C100.534 10.9697 100.772 12.1993 100.999 13.398C101.227 14.5967 101.433 15.7127 101.619 16.746C101.805 17.7587 101.94 18.5543 102.022 19.133V0.192H104.843C105.339 0.192 105.742 0.357333 106.052 0.687999C106.383 1.01867 106.548 1.48367 106.548 2.083V24ZM114.786 24H111.283C110.787 24 110.374 23.8347 110.043 23.504C109.733 23.1733 109.578 22.698 109.578 22.078V0.129999H113.081C113.577 0.129999 113.98 0.295332 114.29 0.626C114.621 0.956666 114.786 1.42167 114.786 2.021V24ZM132.001 0.129999C131.36 1.742 130.771 3.27133 130.234 4.718C130.007 5.338 129.769 5.958 129.521 6.578C129.273 7.198 129.035 7.79733 128.808 8.376C128.601 8.934 128.405 9.45067 128.219 9.926C128.033 10.4013 127.878 10.7837 127.754 11.073C127.878 11.4037 128.033 11.848 128.219 12.406C128.426 12.9433 128.653 13.553 128.901 14.235C129.149 14.8963 129.407 15.599 129.676 16.343C129.965 17.087 130.244 17.8207 130.513 18.544C131.154 20.2593 131.825 22.078 132.528 24H128.715C128.178 24 127.713 23.8243 127.32 23.473C126.948 23.101 126.7 22.6463 126.576 22.109C126.535 21.9437 126.421 21.6027 126.235 21.086C126.07 20.5487 125.863 19.9287 125.615 19.226C125.388 18.5027 125.129 17.738 124.84 16.932C124.571 16.126 124.313 15.3717 124.065 14.669C123.817 13.9457 123.6 13.3257 123.414 12.809C123.228 12.2717 123.104 11.91 123.042 11.724V24H119.539C119.043 24 118.63 23.8347 118.299 23.504C117.989 23.1733 117.834 22.698 117.834 22.078V0.129999H121.337C121.833 0.129999 122.236 0.295332 122.546 0.626C122.877 0.956666 123.042 1.432 123.042 2.052V11.569C123.104 11.4037 123.218 11.073 123.383 10.577C123.569 10.081 123.776 9.50233 124.003 8.841C124.251 8.159 124.509 7.446 124.778 6.702C125.047 5.93733 125.295 5.22433 125.522 4.563C125.749 3.90167 125.946 3.323 126.111 2.827C126.276 2.331 126.38 2.01067 126.421 1.866C126.545 1.39067 126.793 0.987665 127.165 0.656999C127.558 0.305666 128.023 0.129999 128.56 0.129999H132.001Z" fill="#006E41"/>
</svg>
