<svg width="276" height="100" viewBox="0 0 276 100" fill="none" xmlns="http://www.w3.org/2000/svg">
<path d="M13.1545 0.652023C13.707 0.652023 14.1367 0.85664 14.505 1.24541C14.8528 1.63417 15.037 2.16617 15.037 2.82094V20.9907C15.037 23.221 14.4231 24.817 13.175 25.7991C11.9473 26.7813 10.1876 27.2724 7.91639 27.2724C6.79101 27.2724 5.74748 27.1905 4.82671 27.0268C3.90595 26.8631 3.08749 26.5767 2.43272 26.147C1.7575 25.7173 1.24596 25.1239 0.877654 24.3668C0.509348 23.6302 0.325195 22.6481 0.325195 21.4613V0.652023H4.17195C4.72441 0.652023 5.1541 0.85664 5.5224 1.24541C5.87025 1.63417 6.0544 2.16617 6.0544 2.82094V20.8679C6.0544 21.7478 6.19763 22.3616 6.50455 22.689C6.81147 23.0164 7.20024 23.1801 7.65039 23.1801C8.22331 23.1801 8.63254 22.9959 8.919 22.6481C9.185 22.3002 9.32823 21.6659 9.32823 20.7247V0.652023H13.1545Z" fill="white"/>
<path d="M31.5289 9.02076C31.2833 9.06168 30.9764 9.1026 30.6286 9.14352C30.2807 9.18444 29.9124 9.18445 29.5237 9.18445C29.094 9.18445 28.6643 9.14353 28.255 9.06168C27.8458 8.97984 27.4775 8.8366 27.1501 8.63199C26.8227 8.42737 26.5567 8.14091 26.3726 7.79307C26.1884 7.44522 26.0861 6.99507 26.0861 6.44261C26.0861 5.46046 25.9634 4.82616 25.6974 4.49878C25.4314 4.1714 25.0017 4.02816 24.3878 4.02816C23.6308 4.02816 23.1397 4.29417 22.8941 4.82616C22.6486 5.35816 22.5258 5.99246 22.5258 6.74954C22.5258 7.60892 22.6691 8.28415 22.9351 8.7343C23.2011 9.20491 23.5898 9.59368 24.0605 9.9006C24.306 10.0848 24.6743 10.3303 25.1858 10.6577C25.6769 10.9851 26.2089 11.3329 26.7614 11.7217C27.3138 12.1104 27.8049 12.4378 28.2755 12.7857C28.7461 13.113 29.053 13.3381 29.2372 13.4814C29.6055 13.8087 29.9533 14.1361 30.2807 14.4635C30.6081 14.7909 30.8946 15.2001 31.1401 15.6298C31.3856 16.08 31.5698 16.5915 31.6926 17.1644C31.8153 17.7373 31.8972 18.433 31.8972 19.231C31.8972 20.6633 31.7744 21.891 31.5493 22.9141C31.3243 23.9371 30.915 24.7761 30.3217 25.4104C29.7283 26.0651 28.9303 26.5358 27.9277 26.8222C26.9251 27.1087 25.636 27.2724 24.0605 27.2724C22.7509 27.2724 21.646 27.1291 20.7457 26.8222C19.8454 26.5153 19.1292 26.0856 18.5768 25.5536C18.0243 25.0011 17.6151 24.3464 17.39 23.5893C17.1445 22.8118 17.0422 21.9524 17.0422 21.0112V17.7783C17.5537 17.6555 18.188 17.6146 18.9042 17.6146C19.3339 17.6146 19.7635 17.635 20.1932 17.6964C20.6229 17.7578 21.0117 17.8806 21.3595 18.0647C21.7074 18.2489 21.9734 18.5353 22.178 18.9036C22.3826 19.2719 22.4849 19.763 22.4849 20.3769C22.4849 21.3385 22.6077 22.0752 22.8737 22.6276C23.1397 23.1801 23.6512 23.4461 24.4288 23.4461C25.1244 23.4461 25.636 23.221 25.9634 22.7913C26.2907 22.3616 26.434 21.5227 26.434 20.2746C26.434 19.3129 26.2907 18.6172 26.0247 18.1466C25.7587 17.6759 25.3291 17.2463 24.7357 16.878C24.4697 16.7143 24.0809 16.4687 23.5898 16.1413C23.0988 15.814 22.5872 15.4456 22.0348 15.0773C21.4823 14.709 20.9503 14.2998 20.4388 13.911C19.9068 13.5223 19.4771 13.1949 19.1497 12.9289C18.3926 12.2946 17.8811 11.4966 17.5742 10.5554C17.2877 9.61414 17.124 8.63199 17.124 7.60891C17.124 5.19446 17.7379 3.39386 18.9451 2.16617C20.1523 0.938484 22.0348 0.324646 24.5515 0.324646C25.5746 0.324646 26.5158 0.426953 27.3547 0.652029C28.2141 0.877105 28.9303 1.20449 29.5441 1.63418C30.158 2.06387 30.6286 2.63679 30.9969 3.33248C31.3447 4.02817 31.5289 4.86708 31.5493 5.82877V9.02076H31.5289Z" fill="white"/>
<path d="M39.427 22.9141H46.4453V23.6711C46.4453 24.6328 46.1588 25.3899 45.6064 25.9833C45.0539 26.5767 44.2764 26.8631 43.2738 26.8631H33.7183V0.652023H37.565C38.1175 0.652023 38.5472 0.836177 38.9155 1.20448C39.2633 1.57279 39.4475 2.08433 39.4475 2.73909V22.9141H39.427Z" fill="white"/>
<path d="M53.3203 26.8631H49.4736C48.9211 26.8631 48.471 26.679 48.1231 26.3107C47.7753 25.9424 47.5911 25.4308 47.5911 24.7351V0.652023H51.4379C51.9903 0.652023 52.42 0.836177 52.7883 1.20448C53.1362 1.57279 53.3203 2.08433 53.3203 2.73909V26.8631Z" fill="white"/>
<path d="M71.1832 0.652023C70.4875 2.43217 69.8327 4.11001 69.2393 5.68554C68.9938 6.36076 68.7278 7.05645 68.4618 7.73168C68.1958 8.40691 67.9298 9.06167 67.7047 9.69598C67.4592 10.3303 67.2546 10.8827 67.05 11.4147C66.8453 11.9467 66.6817 12.356 66.5384 12.6834C66.6817 13.0517 66.8453 13.5223 67.0704 14.1361C67.2955 14.7295 67.5206 15.4047 67.807 16.1413C68.073 16.8779 68.3595 17.6555 68.6664 18.4739C68.9733 19.2924 69.2803 20.0904 69.5667 20.8884C70.2624 22.7708 70.999 24.7761 71.7766 26.8836H67.582C66.9886 26.8836 66.477 26.679 66.0678 26.2902C65.6381 25.9014 65.3721 25.3899 65.2289 24.817C65.188 24.6328 65.0652 24.2645 64.881 23.6711C64.6969 23.0778 64.4514 22.4025 64.2058 21.625C63.9398 20.8475 63.6534 20.0085 63.3464 19.1287C63.0395 18.2489 62.7531 17.4099 62.4871 16.6324C62.2211 15.8549 61.9755 15.1592 61.7709 14.5863C61.5663 14.0133 61.4231 13.6246 61.3617 13.42V26.904H57.5149C56.9625 26.904 56.5123 26.7199 56.1645 26.3516C55.8166 25.9833 55.6325 25.4718 55.6325 24.7761V0.652023H59.4792C60.0317 0.652023 60.4614 0.836177 60.8297 1.20448C61.1775 1.57279 61.3617 2.08433 61.3617 2.78002V13.2358C61.4231 13.0517 61.5663 12.6833 61.7504 12.1514C61.9346 11.6194 62.1801 10.9646 62.4257 10.228C62.6917 9.49137 62.9577 8.71383 63.2646 7.87491C63.5715 7.03599 63.8375 6.27892 64.0831 5.54231C64.3286 4.82616 64.5537 4.17139 64.7378 3.63939C64.922 3.10739 65.0243 2.73909 65.0857 2.5754C65.2289 2.06386 65.4949 1.61371 65.9246 1.22494C66.3543 0.856635 66.8453 0.672481 67.4387 0.672481H71.1832V0.652023Z" fill="white"/>
<path d="M71.9198 26.8631C71.9402 26.6994 72.0425 26.2084 72.2062 25.3694C72.3699 24.5305 72.595 23.487 72.861 22.2184C73.127 20.9498 73.4339 19.5584 73.7408 18.0238C74.0478 16.4892 74.3956 14.9137 74.723 13.2972C75.5005 9.55275 76.3599 5.33769 77.3421 0.672485H82.0686C83.1531 0.672485 83.992 0.897565 84.5854 1.34772C85.1788 1.79787 85.6289 2.63679 85.9563 3.82355C86.0177 4.06909 86.1405 4.58063 86.3042 5.37862C86.4679 6.15616 86.6725 7.11784 86.918 8.24322C87.1635 9.3686 87.4091 10.5963 87.6955 11.9467C87.982 13.2972 88.248 14.6681 88.5345 16.039C89.1892 19.2924 89.9258 22.8936 90.7034 26.8631H87.2045C86.4883 26.8631 85.8745 26.6585 85.4039 26.2493C84.9332 25.8401 84.6263 25.349 84.524 24.7556L83.2963 18.7399H78.938L77.608 24.7556C77.4853 25.349 77.1988 25.8401 76.7282 26.2493C76.2576 26.6585 75.6438 26.8631 74.9276 26.8631H71.9198ZM82.6416 14.709L81.2706 6.34031L79.736 14.709H82.6416Z" fill="white"/>
<path d="M90.8875 18.0442C91.0922 18.0238 91.3172 18.0033 91.5628 17.9829C91.7674 17.9624 91.9925 17.9419 92.2585 17.9419C92.5245 17.9215 92.7905 17.9215 93.0974 17.9215C93.7112 17.9215 94.2228 18.0238 94.6115 18.2079C95.0003 18.3921 95.3277 18.6581 95.5732 18.965C95.8188 19.2924 95.9824 19.6402 96.0848 20.029C96.1871 20.4178 96.2484 20.7861 96.2484 21.1544C96.2484 22.1365 96.3917 22.7504 96.6577 23.0164C96.9237 23.2824 97.3329 23.4051 97.8444 23.4051C98.3355 23.4051 98.7038 23.2619 98.9493 22.9959C99.1949 22.7299 99.2972 22.2798 99.2972 21.625V0.652023H103.144C103.696 0.652023 104.147 0.836177 104.494 1.20448C104.842 1.57279 105.026 2.08433 105.026 2.73909V21.359C105.026 22.7913 104.801 23.8962 104.372 24.6942C103.921 25.4922 103.349 26.0856 102.612 26.4539C101.896 26.8427 101.057 27.0882 100.136 27.1701C99.1949 27.2519 98.2537 27.3133 97.2715 27.3133C95.3277 27.3133 93.7931 26.8017 92.6677 25.7377C91.5628 24.6942 90.9694 23.2005 90.9285 21.2362C90.9285 21.0112 90.9285 20.7247 90.908 20.3973C90.8875 20.0699 90.8875 19.7425 90.8875 19.4356C90.8875 19.1287 90.8875 18.8218 90.8875 18.5762C90.8875 18.3307 90.8875 18.1466 90.8875 18.0442Z" fill="white"/>
<path d="M129.007 9.02076C128.762 9.06168 128.455 9.1026 128.107 9.14352C127.759 9.18444 127.391 9.18445 127.002 9.18445C126.572 9.18445 126.143 9.14353 125.733 9.06168C125.324 8.97984 124.956 8.8366 124.628 8.63199C124.301 8.42737 124.035 8.14091 123.851 7.79307C123.667 7.44522 123.564 6.99507 123.564 6.44261C123.564 5.46046 123.442 4.82616 123.176 4.49878C122.91 4.1714 122.48 4.02816 121.866 4.02816C121.109 4.02816 120.618 4.29417 120.372 4.82616C120.127 5.35816 120.004 5.99246 120.004 6.74954C120.004 7.60892 120.147 8.28415 120.413 8.7343C120.679 9.20491 121.068 9.59368 121.539 9.9006C121.784 10.0848 122.153 10.3303 122.664 10.6577C123.155 10.9851 123.687 11.3329 124.24 11.7217C124.792 12.1104 125.283 12.4378 125.754 12.7857C126.224 13.113 126.531 13.3381 126.716 13.4814C127.084 13.8087 127.432 14.1361 127.759 14.4635C128.086 14.7909 128.373 15.2001 128.618 15.6298C128.864 16.08 129.048 16.5915 129.171 17.1644C129.294 17.7373 129.376 18.433 129.376 19.231C129.376 20.6633 129.253 21.891 129.028 22.9141C128.803 23.9371 128.393 24.7761 127.8 25.4104C127.207 26.0651 126.409 26.5358 125.406 26.8222C124.403 27.1087 123.114 27.2724 121.539 27.2724C120.229 27.2724 119.124 27.1291 118.224 26.8222C117.324 26.5153 116.608 26.0856 116.055 25.5536C115.503 25.0011 115.093 24.3464 114.868 23.5893C114.623 22.8118 114.521 21.9524 114.521 21.0112V17.7783C115.032 17.6555 115.666 17.6146 116.382 17.6146C116.812 17.6146 117.242 17.635 117.672 17.6964C118.101 17.7578 118.49 17.8806 118.838 18.0647C119.186 18.2489 119.452 18.5353 119.656 18.9036C119.861 19.2719 119.963 19.763 119.963 20.3769C119.963 21.3385 120.086 22.0752 120.352 22.6276C120.618 23.1801 121.13 23.4461 121.907 23.4461C122.603 23.4461 123.114 23.221 123.442 22.7913C123.769 22.3616 123.912 21.5227 123.912 20.2746C123.912 19.3129 123.769 18.6172 123.503 18.1466C123.237 17.6759 122.807 17.2463 122.214 16.878C121.948 16.7143 121.559 16.4687 121.068 16.1413C120.577 15.814 120.066 15.4456 119.513 15.0773C118.961 14.709 118.429 14.2998 117.917 13.911C117.385 13.5223 116.955 13.1949 116.628 12.9289C115.871 12.2946 115.359 11.4966 115.053 10.5554C114.766 9.61414 114.602 8.63199 114.602 7.60891C114.602 5.19446 115.216 3.39386 116.423 2.16617C117.631 0.938484 119.513 0.324646 122.03 0.324646C123.053 0.324646 123.994 0.426953 124.833 0.652029C125.692 0.877105 126.409 1.20449 127.022 1.63418C127.636 2.06387 128.107 2.63679 128.475 3.33248C128.823 4.02817 129.007 4.86708 129.028 5.82877V9.02076H129.007Z" fill="white"/>
<path d="M138.501 26.8631C137.417 26.8631 136.557 26.6381 135.923 26.1879C135.289 25.7378 134.859 24.8988 134.634 23.7121L130.378 0.672485H134.368C135.125 0.672485 135.739 0.877106 136.21 1.28633C136.68 1.69556 136.967 2.18664 137.069 2.78002L139.627 22.2798L141.939 0.672485H145.581C146.092 0.672485 146.584 0.795258 146.993 1.02033C147.402 1.24541 147.627 1.69556 147.627 2.32986C147.627 2.53448 147.566 3.04602 147.443 3.86447C147.32 4.68293 147.156 5.68554 146.972 6.85184C146.788 8.0386 146.563 9.34814 146.318 10.7804C146.072 12.2127 145.806 13.686 145.56 15.1592C145.294 16.6324 145.049 18.0647 144.803 19.4561C144.558 20.8475 144.333 22.0956 144.149 23.1801C143.965 24.2645 143.801 25.1444 143.699 25.8196C143.576 26.4948 143.535 26.8427 143.555 26.8631H138.501Z" fill="white"/>
<path d="M156.63 0.324646C157.96 0.324646 159.086 0.467874 160.006 0.754334C160.907 1.04079 161.643 1.42957 162.216 1.9411C162.789 2.45264 163.198 3.06648 163.485 3.80309C163.771 4.5397 163.935 5.35816 164.037 6.238C164.119 7.07692 164.201 8.18184 164.242 9.5323C164.283 10.9032 164.303 12.315 164.303 13.7883C164.303 15.2615 164.283 16.6938 164.221 18.0852C164.16 19.4766 164.058 20.6019 163.935 21.4613C163.669 23.3847 162.953 24.8375 161.827 25.7991C160.702 26.7608 158.983 27.2724 156.692 27.3133C155.505 27.3133 154.461 27.2314 153.54 27.0678C152.62 26.9041 151.842 26.5971 151.167 26.147C150.512 25.6968 149.98 25.1035 149.612 24.3668C149.223 23.6098 148.957 22.6685 148.834 21.5022C148.793 21.0725 148.752 20.4792 148.712 19.7016C148.671 18.9241 148.65 18.0647 148.63 17.1235C148.609 16.1823 148.589 15.2001 148.568 14.1566C148.568 13.1335 148.568 12.1309 148.589 11.1692C148.609 10.2075 148.63 9.30721 148.671 8.48876C148.712 7.6703 148.752 7.01554 148.814 6.52446C148.978 5.27631 149.284 4.25324 149.776 3.43479C150.246 2.63679 150.84 2.00248 151.535 1.53187C152.231 1.06126 153.008 0.754334 153.888 0.570181C154.768 0.386028 155.668 0.324646 156.63 0.324646ZM158.41 21.0112C158.431 20.6838 158.472 20.1722 158.492 19.4356C158.533 18.699 158.554 17.8601 158.554 16.9393C158.554 16.0186 158.574 15.016 158.594 13.9724C158.594 12.9289 158.594 11.9263 158.594 10.9851C158.574 10.0234 158.574 9.16399 158.533 8.40692C158.492 7.64984 158.472 7.05646 158.431 6.66769C158.41 6.44261 158.369 6.17662 158.328 5.91062C158.288 5.64462 158.206 5.35816 158.083 5.11262C157.96 4.86709 157.776 4.66247 157.53 4.47832C157.285 4.31462 156.958 4.23278 156.548 4.23278C155.894 4.25324 155.423 4.49878 155.136 4.96939C154.85 5.44001 154.645 6.01293 154.543 6.68816C154.502 7.09738 154.461 7.69077 154.4 8.44784C154.338 9.20491 154.318 10.0643 154.318 11.026C154.298 11.9877 154.298 12.9698 154.277 14.0133C154.257 15.0569 154.257 16.0595 154.277 17.0007C154.277 17.9624 154.318 18.8013 154.338 19.5584C154.379 20.3155 154.42 20.8679 154.461 21.2158C154.604 22.0752 154.85 22.6685 155.198 22.9959C155.546 23.3233 155.955 23.487 156.405 23.487C156.998 23.487 157.449 23.3028 157.776 22.955C158.103 22.5867 158.308 21.9319 158.41 21.0112Z" fill="white"/>
<path d="M165.613 18.0442C165.817 18.0238 166.042 18.0033 166.288 17.9829C166.493 17.9624 166.718 17.9419 166.984 17.9419C167.25 17.9215 167.516 17.9215 167.823 17.9215C168.436 17.9215 168.948 18.0238 169.337 18.2079C169.725 18.3921 170.053 18.6581 170.298 18.965C170.544 19.2924 170.708 19.6402 170.81 20.029C170.912 20.4178 170.953 20.7861 170.953 21.1544C170.953 22.1365 171.096 22.7504 171.362 23.0164C171.628 23.2824 172.038 23.4051 172.549 23.4051C173.04 23.4051 173.409 23.2619 173.654 22.9959C173.9 22.7299 174.002 22.2798 174.002 21.625V0.652023H177.849C178.401 0.652023 178.831 0.836177 179.199 1.20448C179.547 1.57279 179.731 2.08433 179.731 2.73909V21.359C179.731 22.7913 179.506 23.8962 179.076 24.6942C178.626 25.4922 178.053 26.0856 177.317 26.4539C176.601 26.8427 175.762 27.0882 174.841 27.1701C173.9 27.2519 172.958 27.3133 171.976 27.3133C170.032 27.3133 168.498 26.8017 167.372 25.7377C166.267 24.6942 165.674 23.2005 165.633 21.2362C165.633 21.0112 165.633 20.7247 165.613 20.3973C165.592 20.0699 165.592 19.7425 165.592 19.4356C165.592 19.1287 165.592 18.8218 165.592 18.5762C165.592 18.3307 165.613 18.1466 165.613 18.0442Z" fill="white"/>
<path d="M14.73 44.9306C14.4845 44.9715 14.1776 45.0124 13.8297 45.0534C13.4819 45.0943 13.0931 45.1147 12.7044 45.1147C12.2747 45.1147 11.845 45.0738 11.4358 44.992C11.0265 44.9101 10.6582 44.7669 10.3308 44.5623C10.0239 44.3577 9.75792 44.0917 9.57376 43.7234C9.38961 43.3551 9.2873 42.9254 9.2873 42.3729C9.2873 41.3908 9.16453 40.7565 8.89854 40.4291C8.63254 40.1017 8.20285 39.9585 7.589 39.9585C6.83193 39.9585 6.34086 40.2245 6.09532 40.7565C5.84978 41.2885 5.72701 41.9228 5.72701 42.6798C5.72701 43.5392 5.87024 44.2144 6.13624 44.6646C6.40224 45.1352 6.79101 45.524 7.26162 45.8309C7.50716 46.015 7.87546 46.2606 8.387 46.588C8.87807 46.9154 9.41007 47.2632 9.96253 47.652C10.515 48.0407 11.0061 48.3681 11.4767 48.716C11.9473 49.0433 12.2542 49.2684 12.4384 49.4116C12.8067 49.739 13.1545 50.0664 13.4819 50.3938C13.8093 50.7212 14.0957 51.1304 14.3413 51.5601C14.5868 52.0103 14.771 52.5218 14.8937 53.0947C15.0165 53.6676 15.0984 54.3633 15.0984 55.1613C15.0984 56.5936 14.9756 57.8213 14.7505 58.8444C14.5254 59.8674 14.1162 60.7064 13.5228 61.3407C12.9294 61.9954 12.1314 62.466 11.1288 62.7525C10.1262 63.039 8.83715 63.2026 7.26162 63.2026C5.95209 63.2026 4.84717 63.0594 3.94687 62.7525C3.04656 62.4456 2.33041 62.0159 1.77795 61.4839C1.18457 60.9314 0.795805 60.2767 0.550268 59.4991C0.30473 58.7216 0.202423 57.8622 0.202423 56.921V53.6881C0.713959 53.5653 1.34826 53.5244 2.06441 53.5244C2.4941 53.5244 2.92379 53.5449 3.35348 53.6062C3.78318 53.6676 4.17194 53.7904 4.51979 53.9746C4.86763 54.1587 5.13363 54.4452 5.33825 54.8135C5.54286 55.1818 5.64517 55.6728 5.64517 56.2662C5.64517 57.2279 5.76793 57.9645 6.03393 58.517C6.29993 59.0695 6.81147 59.3354 7.589 59.3354C8.28469 59.3354 8.79623 59.1104 9.12361 58.6807C9.45099 58.251 9.59422 57.4121 9.59422 56.1639C9.59422 55.2022 9.45099 54.5065 9.185 54.0359C8.919 53.5653 8.48931 53.1356 7.89593 52.7673C7.62993 52.6036 7.24116 52.3581 6.75008 52.0307C6.25901 51.7033 5.74747 51.335 5.19501 50.9667C4.64256 50.5984 4.11056 50.1892 3.59902 49.8004C3.06702 49.4116 2.63733 49.0843 2.30995 48.8183C1.55288 48.184 1.04134 47.386 0.734421 46.4447C0.44796 45.5035 0.284269 44.5214 0.284269 43.4983C0.284269 41.0838 0.898112 39.2832 2.10534 38.0556C3.31256 36.8279 5.19501 36.214 7.71177 36.214C8.73484 36.214 9.67607 36.3163 10.515 36.5414C11.3744 36.7665 12.0905 37.0939 12.7044 37.5236C13.3182 37.9532 13.7888 38.5262 14.1571 39.2219C14.505 39.9175 14.6891 40.7564 14.7096 41.7181V44.9306H14.73Z" fill="white"/>
<path d="M15.9168 62.773C15.9373 62.6093 16.0396 62.1182 16.2033 61.2793C16.367 60.4404 16.592 59.3968 16.858 58.1282C17.124 56.8596 17.431 55.4682 17.7379 53.9336C18.0448 52.399 18.3926 50.8235 18.72 49.207C19.4976 45.4626 20.3569 41.2475 21.3391 36.5823H26.0657C27.1501 36.5823 27.9891 36.8074 28.5824 37.2575C29.1758 37.7077 29.626 38.5466 29.9534 39.7334C30.0147 39.9789 30.1375 40.4904 30.3012 41.2884C30.4649 42.066 30.6695 43.0277 30.915 44.153C31.1606 45.2784 31.4061 46.5061 31.6926 47.8566C31.979 49.207 32.245 50.5779 32.5315 51.9489C33.1863 55.2022 33.9229 58.8034 34.7004 62.773H31.2015C30.4854 62.773 29.8715 62.5684 29.4009 62.1591C28.9303 61.7499 28.6234 61.2588 28.5211 60.6654L27.2934 54.6498H22.8942L21.5642 60.6654C21.4414 61.2588 21.1549 61.7499 20.6843 62.1591C20.2137 62.5684 19.5999 62.773 18.8837 62.773H15.9168ZM26.6386 50.6189L25.2677 42.2501L23.7331 50.6189H26.6386Z" fill="white"/>
<path d="M41.0025 62.773C39.9181 62.773 39.0587 62.5479 38.4244 62.0977C37.7901 61.6476 37.3604 60.8087 37.1353 59.6219L32.8793 36.5823H36.8693C37.6264 36.5823 38.2402 36.7869 38.7108 37.1962C39.1815 37.6054 39.4679 38.0965 39.5702 38.6898L42.1279 58.1896L44.44 36.5823H48.0822C48.5937 36.5823 49.0643 36.7051 49.494 36.9302C49.9237 37.1552 50.1283 37.6054 50.1283 38.2397C50.1283 38.4443 50.0669 38.9558 49.9442 39.7743C49.8214 40.5928 49.6577 41.5954 49.4736 42.7617C49.2894 43.928 49.0643 45.258 48.8188 46.6903C48.5733 48.1226 48.3073 49.5958 48.0617 51.069C47.7957 52.5422 47.5502 53.9745 47.3047 55.3659C47.0591 56.7573 46.834 58.0054 46.6499 59.0899C46.4657 60.1744 46.302 61.0542 46.1997 61.7294C46.0974 62.4047 46.036 62.7525 46.0565 62.773H41.0025Z" fill="white"/>
<path d="M53.4431 62.773C52.8906 62.773 52.4405 62.5888 52.0926 62.2205C51.7448 61.8522 51.5606 61.3407 51.5606 60.6859V36.5619H61.8118C63.3464 36.5619 64.5741 36.9302 65.4949 37.6872C66.3952 38.4443 66.9476 39.4878 67.1318 40.8588C67.275 41.9023 67.3364 42.8845 67.3364 43.8257C67.3364 44.7669 67.2955 45.6263 67.1932 46.4038C67.009 47.8975 66.6407 49.0229 66.0883 49.7799C65.5358 50.537 64.8196 51.0895 63.9193 51.4373C63.9193 51.4782 63.9807 51.6829 64.124 52.0103C64.2672 52.3581 64.4513 52.7878 64.6764 53.3198C64.9015 53.8518 65.147 54.4452 65.4335 55.1204C65.6995 55.7956 65.986 56.4708 66.2929 57.187C66.9681 58.8239 67.7252 60.6859 68.5641 62.773H64.4718C63.7557 62.773 63.1418 62.5684 62.6917 62.1591C62.221 61.7499 61.8937 61.2588 61.689 60.6654C61.6481 60.5222 61.5458 60.2562 61.3821 59.847C61.2184 59.4377 61.0343 58.9467 60.8297 58.3738C60.6046 57.8008 60.3795 57.1665 60.134 56.4913C59.8884 55.8161 59.6224 55.1204 59.3564 54.4247C58.7426 52.8082 58.0674 51.0076 57.3103 49.0229V62.8139H53.4431V62.773ZM61.423 45.9946C61.464 45.524 61.5049 45.0124 61.5049 44.4804C61.5254 43.9484 61.5049 43.4574 61.4435 43.0072C61.4231 42.5161 61.3412 42.1069 61.198 41.7795C61.0547 41.4521 60.8911 41.2066 60.666 41.0225C60.4409 40.8383 60.2158 40.7155 59.9498 40.6541C59.6838 40.5928 59.4178 40.5518 59.1109 40.5518H57.2694V48.8183H59.1723C59.8066 48.8183 60.3181 48.5523 60.7069 48.0203C61.1161 47.4883 61.3412 46.813 61.423 45.9946Z" fill="white"/>
<path d="M84.1762 44.9306C83.9307 44.9715 83.6237 45.0124 83.2759 45.0534C82.928 45.0943 82.5597 45.0943 82.171 45.0943C81.7413 45.0943 81.3116 45.0534 80.9024 44.9715C80.4931 44.8897 80.1248 44.7464 79.7974 44.5418C79.4701 44.3372 79.2041 44.0507 79.0199 43.7029C78.8358 43.3551 78.7334 42.9049 78.7334 42.3525C78.7334 41.3703 78.6107 40.736 78.3447 40.4086C78.0787 40.0812 77.649 39.938 77.0351 39.938C76.2781 39.938 75.787 40.204 75.5415 40.736C75.2959 41.268 75.1732 41.9023 75.1732 42.6594C75.1732 43.5188 75.3164 44.194 75.5824 44.6441C75.8484 45.1147 76.2371 45.5035 76.7078 45.8104C76.9533 45.9946 77.3216 46.2401 77.8331 46.5675C78.3242 46.8949 78.8562 47.2427 79.4087 47.6315C79.9611 48.0203 80.4522 48.3477 80.9228 48.6955C81.3934 49.0229 81.7003 49.2479 81.8845 49.3912C82.2528 49.7186 82.6007 50.0459 82.928 50.3733C83.2554 50.7007 83.5419 51.1099 83.7874 51.5396C84.033 51.9898 84.2171 52.5013 84.3399 53.0742C84.4626 53.6472 84.5445 54.3429 84.5445 55.1409C84.5445 56.5732 84.4217 57.8008 84.1966 58.8239C83.9716 59.847 83.5623 60.6859 82.969 61.3202C82.3756 61.975 81.5776 62.4456 80.575 62.732C79.5724 63.0185 78.2833 63.1822 76.7078 63.1822C75.3982 63.1822 74.2933 63.039 73.393 62.732C72.4927 62.4251 71.7766 61.9954 71.2241 61.4634C70.6716 60.911 70.2624 60.2562 70.0373 59.4991C69.7918 58.7216 69.6895 57.8622 69.6895 56.921V53.6881C70.201 53.5653 70.8353 53.5244 71.5515 53.5244C71.9812 53.5244 72.4109 53.5449 72.8405 53.6062C73.2702 53.6676 73.659 53.7904 74.0068 53.9746C74.3547 54.1587 74.6207 54.4452 74.8253 54.8135C75.0299 55.1818 75.1322 55.6728 75.1322 56.2662C75.1322 57.2279 75.255 57.9645 75.521 58.517C75.787 59.0695 76.2985 59.3354 77.0761 59.3354C77.7718 59.3354 78.2833 59.1104 78.6107 58.6807C78.9381 58.251 79.0813 57.4121 79.0813 56.1639C79.0813 55.2022 78.9381 54.5065 78.6721 54.0359C78.4061 53.5653 77.9764 53.1356 77.383 52.7673C77.117 52.6036 76.7282 52.3581 76.2371 52.0307C75.7461 51.7033 75.2345 51.335 74.6821 50.9667C74.1296 50.5984 73.5976 50.1892 73.0861 49.8004C72.5541 49.4116 72.1244 49.0843 71.797 48.8183C71.0399 48.184 70.5284 47.386 70.2215 46.4447C69.935 45.5035 69.7713 44.5214 69.7713 43.4983C69.7713 41.0838 70.3852 39.2832 71.5924 38.0556C72.7996 36.8279 74.6821 36.214 77.1988 36.214C78.2219 36.214 79.1631 36.3163 80.0021 36.5414C80.8614 36.7665 81.5776 37.0939 82.1914 37.5236C82.8053 37.9532 83.2759 38.5262 83.6442 39.2219C83.992 39.9175 84.1762 40.7564 84.1966 41.7181V44.9306H84.1762Z" fill="white"/>
<path d="M92.0743 58.783H99.0517V59.5605C99.0517 60.5222 98.7652 61.2793 98.2127 61.8727C97.6603 62.466 96.8827 62.7525 95.8801 62.7525H86.3451V36.5619H98.9698V37.4826C98.9698 37.8509 98.9084 38.1988 98.7857 38.5671C98.6629 38.9354 98.4787 39.2628 98.2332 39.5492C97.9877 39.8357 97.7012 40.0812 97.3534 40.2654C97.0055 40.4495 96.5963 40.5314 96.1052 40.5314C95.8392 40.5314 95.4709 40.5314 95.0412 40.5518C94.6115 40.5723 94.1409 40.5723 93.6908 40.5723H92.0538V46.6903H97.6603V47.611C97.6603 47.9793 97.5989 48.3272 97.4761 48.6955C97.3534 49.0638 97.1692 49.3912 96.9237 49.6776C96.6781 49.9641 96.3712 50.2096 96.0234 50.3938C95.6755 50.5779 95.2663 50.6598 94.7752 50.6598H92.0538V58.783H92.0743Z" fill="white"/>
<path d="M118.449 62.773H111.779C111.062 62.773 110.449 62.5684 109.978 62.1591C109.507 61.7499 109.201 61.2588 109.057 60.6654C109.016 60.4608 108.914 59.9493 108.73 59.1308C108.566 58.3124 108.362 57.3302 108.116 56.1435C107.871 54.9772 107.625 53.7085 107.359 52.3172C107.093 50.9258 106.827 49.5753 106.581 48.2658C106.336 46.9563 106.111 45.7286 105.906 44.6032C105.702 43.4778 105.558 42.598 105.456 41.9637V62.732H102.387C101.834 62.732 101.384 62.5479 101.036 62.1796C100.689 61.8113 100.504 61.2997 100.504 60.645V36.6437H107.134C107.85 36.6437 108.464 36.8483 108.935 37.2575C109.405 37.6668 109.712 38.1579 109.855 38.7512C109.896 38.9558 109.999 39.4674 110.183 40.2858C110.346 41.1043 110.551 42.0864 110.796 43.2732C111.042 44.4395 111.288 45.7081 111.554 47.0995C111.82 48.4909 112.086 49.8413 112.331 51.1509C112.577 52.4604 112.802 53.6881 113.006 54.8135C113.211 55.9388 113.354 56.8187 113.456 57.453V36.6437H116.546C117.099 36.6437 117.528 36.8279 117.897 37.1962C118.244 37.5645 118.429 38.076 118.429 38.7308V62.773H118.449Z" fill="white"/>
<path d="M128.7 36.2345C130.03 36.2345 131.156 36.3777 132.076 36.6642C132.977 36.9506 133.713 37.3394 134.286 37.8509C134.859 38.3625 135.268 38.9763 135.555 39.7129C135.821 40.4495 136.005 41.268 136.107 42.1478C136.189 42.9867 136.271 44.0917 136.312 45.4421C136.353 46.813 136.373 48.2249 136.373 49.6981C136.373 51.1713 136.353 52.6036 136.291 53.995C136.23 55.3864 136.148 56.5118 136.005 57.3711C135.739 59.2945 135.023 60.7473 133.897 61.709C132.772 62.6707 131.053 63.1822 128.762 63.2231C127.575 63.2231 126.531 63.1413 125.611 62.9776C124.69 62.8139 123.912 62.507 123.237 62.0568C122.582 61.6067 122.05 61.0133 121.662 60.2767C121.273 59.5196 121.007 58.5784 120.884 57.4121C120.843 56.9824 120.802 56.389 120.761 55.6114C120.72 54.8339 120.7 53.9745 120.679 53.0333C120.659 52.0921 120.638 51.1099 120.638 50.0664C120.618 49.0433 120.638 48.0407 120.659 47.079C120.679 46.1173 120.7 45.217 120.741 44.3986C120.782 43.5801 120.823 42.9254 120.884 42.4343C121.048 41.1861 121.355 40.1631 121.846 39.3446C122.316 38.5466 122.91 37.9123 123.605 37.4417C124.301 36.9711 125.079 36.6642 125.958 36.48C126.797 36.3163 127.718 36.2345 128.7 36.2345ZM130.46 56.921C130.48 56.5936 130.501 56.0821 130.542 55.3455C130.583 54.6088 130.603 53.7699 130.603 52.8492C130.624 51.9284 130.624 50.9258 130.644 49.8823C130.665 48.8387 130.665 47.8361 130.644 46.8949C130.624 45.9332 130.624 45.0738 130.583 44.3167C130.562 43.5392 130.521 42.9663 130.48 42.5775C130.46 42.3524 130.419 42.0864 130.378 41.8204C130.337 41.534 130.255 41.268 130.133 41.0224C130.01 40.7769 129.826 40.5723 129.58 40.3881C129.335 40.2245 129.007 40.1426 128.598 40.1426C127.943 40.1631 127.473 40.4086 127.186 40.8792C126.9 41.3498 126.695 41.9227 126.593 42.598C126.552 43.0072 126.511 43.6006 126.45 44.3577C126.409 45.1147 126.368 45.9741 126.368 46.9358C126.347 47.8975 126.347 48.8796 126.327 49.9232C126.306 50.9667 126.306 51.9693 126.327 52.9105C126.347 53.8722 126.368 54.7111 126.388 55.4682C126.409 56.2253 126.47 56.7777 126.511 57.1461C126.654 58.0054 126.9 58.5988 127.248 58.9262C127.595 59.2536 128.005 59.4173 128.455 59.4173C129.048 59.4173 129.498 59.2331 129.826 58.8853C130.153 58.5374 130.378 57.8417 130.46 56.921Z" fill="white"/>
<path d="M160.272 44.9306C160.027 44.9715 159.72 45.0124 159.372 45.0534C159.024 45.0943 158.656 45.0943 158.267 45.0943C157.837 45.0943 157.408 45.0534 156.998 44.9715C156.589 44.8897 156.221 44.7464 155.894 44.5418C155.566 44.3372 155.3 44.0507 155.116 43.7029C154.932 43.3551 154.83 42.9049 154.83 42.3525C154.83 41.3703 154.707 40.736 154.441 40.4086C154.175 40.0812 153.745 39.938 153.131 39.938C152.374 39.938 151.883 40.204 151.638 40.736C151.392 41.268 151.269 41.9023 151.269 42.6594C151.269 43.5188 151.412 44.194 151.678 44.6441C151.944 45.1147 152.333 45.5035 152.804 45.8104C153.049 45.9946 153.438 46.2401 153.929 46.5675C154.42 46.8949 154.952 47.2427 155.505 47.6315C156.057 47.9998 156.548 48.3477 157.019 48.6955C157.49 49.0229 157.796 49.2479 157.981 49.3912C158.349 49.7186 158.697 50.0459 159.024 50.3733C159.352 50.7212 159.638 51.1099 159.884 51.5396C160.129 51.9898 160.313 52.5013 160.436 53.0742C160.579 53.6472 160.641 54.3429 160.641 55.1409C160.641 56.5732 160.518 57.8008 160.293 58.8239C160.068 59.847 159.658 60.6859 159.065 61.3202C158.472 61.975 157.674 62.4456 156.671 62.732C155.668 63.0185 154.379 63.1822 152.804 63.1822C151.494 63.1822 150.389 63.039 149.489 62.732C148.589 62.4251 147.873 61.9954 147.32 61.4634C146.768 60.911 146.359 60.2562 146.133 59.4991C145.888 58.7216 145.786 57.8622 145.786 56.921V53.6881C146.297 53.5653 146.931 53.5244 147.668 53.5244C148.098 53.5244 148.527 53.5449 148.957 53.6062C149.387 53.6676 149.776 53.7904 150.123 53.9746C150.471 54.1587 150.737 54.4452 150.942 54.8135C151.146 55.1818 151.249 55.6728 151.249 56.2662C151.249 57.2279 151.372 57.9645 151.638 58.517C151.904 59.0695 152.415 59.3354 153.193 59.3354C153.888 59.3354 154.4 59.1104 154.727 58.6807C155.055 58.251 155.198 57.4121 155.198 56.1639C155.198 55.2022 155.055 54.5065 154.789 54.0359C154.523 53.5653 154.093 53.1356 153.5 52.7673C153.234 52.6036 152.845 52.3581 152.354 52.0307C151.863 51.7033 151.351 51.335 150.799 50.9667C150.246 50.5779 149.714 50.1892 149.203 49.8004C148.691 49.4116 148.241 49.0843 147.914 48.8183C147.157 48.184 146.645 47.386 146.338 46.4447C146.052 45.5035 145.888 44.5214 145.888 43.4983C145.888 41.0838 146.502 39.2832 147.709 38.0556C148.916 36.8279 150.799 36.214 153.315 36.214C154.338 36.214 155.28 36.3163 156.119 36.5414C156.978 36.7665 157.694 37.0939 158.308 37.5236C158.922 37.9737 159.413 38.5262 159.761 39.2219C160.109 39.9175 160.293 40.7564 160.313 41.7181V44.9306H160.272Z" fill="white"/>
<path d="M168.17 58.783H175.148V59.5605C175.148 60.5222 174.861 61.2793 174.309 61.8727C173.756 62.466 172.979 62.7525 171.976 62.7525H162.441V36.5619H175.066V37.4826C175.066 37.8509 175.005 38.1988 174.882 38.5671C174.759 38.9354 174.575 39.2628 174.329 39.5492C174.084 39.8357 173.797 40.0812 173.449 40.2654C173.102 40.4495 172.692 40.5314 172.201 40.5314C171.935 40.5314 171.567 40.5314 171.137 40.5518C170.687 40.5723 170.237 40.5723 169.787 40.5723H168.15V46.6903H173.777V47.611C173.777 47.9793 173.715 48.3272 173.593 48.6955C173.47 49.0638 173.286 49.3912 173.04 49.6776C172.795 49.9641 172.488 50.2096 172.14 50.3938C171.792 50.5779 171.362 50.6598 170.892 50.6598H168.17V58.783Z" fill="white"/>
<path d="M178.483 62.773C177.931 62.773 177.48 62.5888 177.133 62.2205C176.785 61.8522 176.601 61.3407 176.601 60.6859V36.5619H186.852C188.386 36.5619 189.614 36.9302 190.535 37.6872C191.435 38.4443 191.988 39.4878 192.172 40.8588C192.315 41.9023 192.376 42.8845 192.376 43.8257C192.376 44.7669 192.335 45.6263 192.233 46.4038C192.049 47.8975 191.681 49.0229 191.128 49.7799C190.576 50.537 189.86 51.0895 188.959 51.4373C188.959 51.4782 189.021 51.6829 189.164 52.0103C189.307 52.3376 189.491 52.7878 189.716 53.3198C189.941 53.8518 190.187 54.4452 190.473 55.1204C190.76 55.7956 191.026 56.4708 191.333 57.187C192.008 58.8239 192.765 60.6859 193.604 62.773H189.512C188.796 62.773 188.182 62.5684 187.732 62.1591C187.261 61.7499 186.934 61.2588 186.729 60.6654C186.688 60.5222 186.586 60.2562 186.422 59.847C186.258 59.4377 186.074 58.9467 185.87 58.3738C185.644 57.8008 185.419 57.1665 185.174 56.4913C184.928 55.8161 184.662 55.1204 184.396 54.4247C183.782 52.8082 183.107 51.0076 182.35 49.0229V62.8139H178.483V62.773ZM186.442 45.9946C186.483 45.524 186.524 45.0124 186.524 44.4804C186.524 43.9484 186.524 43.4574 186.463 43.0072C186.442 42.5161 186.361 42.1069 186.217 41.7795C186.074 41.4521 185.91 41.2066 185.685 41.0225C185.46 40.8383 185.235 40.7155 184.969 40.6541C184.703 40.5928 184.437 40.5518 184.13 40.5518H182.289V48.8183H184.192C184.826 48.8183 185.338 48.5523 185.726 48.0203C186.156 47.4883 186.381 46.813 186.442 45.9946Z" fill="white"/>
<path d="M201.564 62.773C200.479 62.773 199.62 62.5479 198.985 62.0977C198.351 61.6476 197.921 60.8087 197.696 59.6219L193.44 36.5823H197.43C198.187 36.5823 198.801 36.7869 199.272 37.1962C199.742 37.6054 200.029 38.0965 200.131 38.6898L202.689 58.1896L205.001 36.5823H208.643C209.155 36.5823 209.646 36.7051 210.055 36.9302C210.464 37.1552 210.689 37.6054 210.689 38.2397C210.689 38.4443 210.628 38.9558 210.505 39.7743C210.382 40.5928 210.219 41.5954 210.035 42.7617C209.85 43.9484 209.625 45.258 209.38 46.6903C209.134 48.1226 208.868 49.5958 208.623 51.069C208.357 52.5422 208.111 53.9745 207.866 55.3659C207.62 56.7573 207.395 58.0054 207.211 59.0899C207.027 60.1744 206.863 61.0542 206.761 61.7294C206.638 62.4047 206.597 62.7525 206.617 62.773H201.564Z" fill="white"/>
<path d="M217.851 62.773H214.004C213.452 62.773 213.001 62.5888 212.654 62.2205C212.306 61.8522 212.122 61.3407 212.122 60.6654V36.5619H215.968C216.521 36.5619 216.95 36.746 217.319 37.1143C217.667 37.4826 217.851 37.9942 217.851 38.6489V62.773Z" fill="white"/>
<path d="M222.045 62.773C221.493 62.773 221.043 62.5888 220.695 62.2205C220.347 61.8522 220.163 61.3407 220.163 60.6859V36.5619H230.414C231.949 36.5619 233.176 36.9302 234.097 37.6872C234.997 38.4443 235.55 39.4878 235.734 40.8588C235.877 41.9023 235.939 42.8845 235.939 43.8257C235.939 44.7669 235.898 45.6263 235.795 46.4038C235.611 47.8975 235.243 49.0229 234.691 49.7799C234.138 50.537 233.422 51.0895 232.522 51.4373C232.522 51.4782 232.583 51.6829 232.726 52.0103C232.869 52.3376 233.054 52.7878 233.279 53.3198C233.504 53.8518 233.749 54.4452 234.036 55.1204C234.322 55.7956 234.588 56.4708 234.895 57.187C235.57 58.8239 236.327 60.6859 237.166 62.773H233.074C232.358 62.773 231.744 62.5684 231.294 62.1591C230.823 61.7499 230.496 61.2588 230.291 60.6654C230.25 60.5222 230.148 60.2562 229.984 59.847C229.821 59.4377 229.637 58.9467 229.432 58.3738C229.207 57.8008 228.982 57.1665 228.736 56.4913C228.491 55.8161 228.225 55.1204 227.959 54.4247C227.345 52.8082 226.67 51.0076 225.913 49.0229V62.8139H222.045V62.773ZM230.005 45.9946C230.046 45.524 230.087 45.0124 230.087 44.4804C230.087 43.9484 230.087 43.4574 230.025 43.0072C230.005 42.5161 229.923 42.1069 229.78 41.7795C229.637 41.4521 229.473 41.2066 229.248 41.0225C229.023 40.8383 228.798 40.7155 228.532 40.6541C228.266 40.5928 228 40.5518 227.693 40.5518H225.851V48.8183H227.754C228.388 48.8183 228.9 48.5523 229.289 48.0203C229.718 47.4883 229.943 46.813 230.005 45.9946Z" fill="white"/>
<path d="M237.494 62.773C237.514 62.6093 237.617 62.1182 237.78 61.2793C237.944 60.4404 238.169 59.3968 238.435 58.1282C238.701 56.8596 239.008 55.4682 239.315 53.9336C239.622 52.399 239.97 50.8235 240.297 49.207C241.075 45.4626 241.934 41.2475 242.916 36.5823H247.643C248.727 36.5823 249.566 36.8074 250.159 37.2575C250.753 37.7077 251.203 38.5466 251.53 39.7334C251.592 39.9789 251.714 40.4904 251.878 41.2884C252.042 42.066 252.246 43.0277 252.492 44.153C252.738 45.2784 252.983 46.5061 253.27 47.8566C253.556 49.207 253.822 50.5779 254.108 51.9489C254.763 55.2022 255.5 58.8034 256.277 62.773H252.778C252.062 62.773 251.448 62.5684 250.978 62.1591C250.507 61.7499 250.2 61.2588 250.098 60.6654L248.87 54.6498H244.471L243.141 60.6654C243.018 61.2588 242.732 61.7499 242.261 62.1591C241.791 62.5684 241.177 62.773 240.461 62.773H237.494ZM248.216 50.6189L246.845 42.2501L245.31 50.6189H248.216Z" fill="white"/>
<path d="M275.573 62.773H268.902C268.166 62.773 267.572 62.5684 267.102 62.1591C266.631 61.7499 266.324 61.2588 266.181 60.6654C266.14 60.4608 266.017 59.9493 265.853 59.1308C265.69 58.3124 265.485 57.3302 265.24 56.1435C264.994 54.9772 264.748 53.7085 264.462 52.3172C264.196 50.9258 263.93 49.5753 263.684 48.2658C263.439 46.9563 263.214 45.7286 263.009 44.6032C262.805 43.4778 262.661 42.598 262.559 41.9637V62.732H259.49C258.937 62.732 258.487 62.5479 258.139 62.1796C257.792 61.8113 257.607 61.2997 257.607 60.645V36.6437H264.237C264.953 36.6437 265.567 36.8483 266.038 37.2575C266.508 37.6668 266.815 38.1579 266.958 38.7512C266.999 38.9558 267.102 39.4674 267.286 40.2858C267.449 41.1043 267.654 42.0864 267.9 43.2732C268.145 44.46 268.391 45.7081 268.657 47.0995C268.923 48.4909 269.189 49.8413 269.434 51.1509C269.68 52.4604 269.905 53.6881 270.109 54.8135C270.314 55.9388 270.457 56.8187 270.559 57.453V36.6437H273.649C274.202 36.6437 274.652 36.8279 275 37.1962C275.347 37.5645 275.532 38.076 275.532 38.7308V62.773H275.573Z" fill="white"/>
<path d="M14.73 80.8404C14.4845 80.8813 14.1776 80.9223 13.8297 80.9632C13.4819 81.0041 13.1136 81.0246 12.7248 81.0246C12.2951 81.0246 11.8654 80.9836 11.4562 80.9018C11.047 80.82 10.6787 80.6767 10.3513 80.4721C10.0239 80.2675 9.75792 79.981 9.57376 79.6332C9.38961 79.2854 9.2873 78.8352 9.2873 78.2827C9.2873 77.3006 9.16453 76.6663 8.89854 76.3389C8.63254 76.0115 8.20285 75.8683 7.589 75.8683C6.83193 75.8683 6.34086 76.1343 6.09532 76.6663C5.84978 77.1983 5.72701 77.8326 5.72701 78.5897C5.72701 79.449 5.87024 80.1243 6.13624 80.5744C6.40224 81.045 6.79101 81.4338 7.26162 81.7407C7.50716 81.9249 7.87546 82.1704 8.387 82.5183C8.87807 82.8456 9.41007 83.1935 9.96253 83.5618C10.515 83.9301 11.0061 84.2984 11.4767 84.6258C11.9473 84.9532 12.2542 85.1782 12.4384 85.3215C12.8067 85.6489 13.1545 85.9762 13.4819 86.3036C13.8093 86.6515 14.0957 87.0402 14.3413 87.4699C14.5868 87.9201 14.771 88.4316 14.8937 89.0045C15.037 89.5774 15.0984 90.2731 15.0984 91.0711C15.0984 92.5034 14.9756 93.7311 14.7505 94.7542C14.5254 95.7773 14.1162 96.6162 13.5228 97.2505C12.9294 97.9053 12.1314 98.3759 11.1288 98.6623C10.1262 98.9488 8.83715 99.1125 7.26162 99.1125C5.95209 99.1125 4.84717 98.9693 3.94687 98.6623C3.04656 98.3554 2.33041 97.9257 1.77795 97.3937C1.18457 96.8413 0.795805 96.1865 0.550268 95.409C0.30473 94.6314 0.202423 93.772 0.202423 92.8308V89.5979C0.713959 89.4751 1.34826 89.4342 2.06441 89.4342C2.4941 89.4342 2.92379 89.4547 3.35348 89.5161C3.78318 89.5774 4.17194 89.7002 4.51979 89.8844C4.86763 90.0685 5.13363 90.355 5.33825 90.7233C5.54286 91.0916 5.64517 91.5827 5.64517 92.1761C5.64517 93.1377 5.76793 93.8744 6.03393 94.4268C6.27947 94.9793 6.81147 95.2453 7.56854 95.2453C8.26423 95.2453 8.77577 95.0202 9.10315 94.5905C9.43053 94.1608 9.57376 93.3219 9.57376 92.0737C9.57376 91.1121 9.43053 90.4164 9.16453 89.9458C8.89854 89.4752 8.46884 89.0659 7.87546 88.6772C7.60946 88.5135 7.2207 88.2679 6.72962 87.9405C6.23855 87.6132 5.72701 87.2449 5.17455 86.8766C4.62209 86.5082 4.0901 86.099 3.57856 85.7102C3.04656 85.3215 2.61687 84.9941 2.28949 84.7281C1.53242 84.0938 1.02088 83.2958 0.713959 82.3546C0.427499 81.4133 0.263807 80.4312 0.263807 79.4081C0.263807 77.0141 0.877651 75.1931 2.08488 73.9654C3.2921 72.7377 5.17455 72.1238 7.69131 72.1238C8.71438 72.1238 9.65561 72.2262 10.4945 72.4512C11.3539 72.6763 12.0701 73.0037 12.6839 73.4334C13.2977 73.8631 13.7684 74.436 14.1367 75.1317C14.4845 75.8274 14.6687 76.6663 14.6891 77.628V80.8404H14.73Z" fill="white"/>
<path d="M24.838 72.1443C26.168 72.1443 27.2934 72.2875 28.2141 72.574C29.1349 72.8605 29.851 73.2492 30.424 73.7608C30.9969 74.2723 31.4061 74.8861 31.6926 75.6432C31.9586 76.3798 32.1427 77.1983 32.245 78.0781C32.3269 78.917 32.4087 80.022 32.4496 81.3724C32.4906 82.7433 32.511 84.1552 32.511 85.6284C32.511 87.1016 32.4906 88.5339 32.4292 89.9253C32.3678 91.3167 32.2859 92.4421 32.1427 93.3014C31.8767 95.2248 31.1606 96.6776 30.0352 97.6393C28.9098 98.6009 27.1911 99.1125 24.8994 99.1534C23.7126 99.1534 22.6691 99.0716 21.7483 98.9079C20.8275 98.7442 20.05 98.4372 19.3748 97.9871C18.72 97.5369 18.188 96.9436 17.7992 96.207C17.4105 95.4499 17.1445 94.5087 17.0217 93.3424C16.9808 92.9127 16.9399 92.3193 16.8989 91.5418C16.858 90.7642 16.8376 89.9253 16.8171 88.9636C16.7966 88.0224 16.7762 87.0402 16.7762 85.9967C16.7557 84.9736 16.7762 83.971 16.7966 83.0093C16.8171 82.0476 16.8376 81.1473 16.8785 80.3289C16.9194 79.5104 16.9603 78.8557 17.0217 78.3646C17.1854 77.1164 17.4923 76.0934 17.9834 75.2954C18.4745 74.4974 19.0474 73.8631 19.7431 73.3925C20.4388 72.9218 21.2163 72.6149 22.0962 72.4308C22.9351 72.2261 23.8558 72.1443 24.838 72.1443ZM26.5977 92.8308C26.6181 92.5034 26.6386 91.9919 26.6795 91.2553C26.7204 90.5187 26.7409 89.6798 26.7409 88.759C26.7614 87.8178 26.7614 86.8356 26.7818 85.7921C26.8023 84.7485 26.8023 83.7459 26.7818 82.8047C26.7614 81.843 26.7614 80.9837 26.7204 80.2266C26.7 79.449 26.6591 78.8761 26.6181 78.4873C26.5977 78.2623 26.5567 77.9963 26.5158 77.7303C26.4749 77.4438 26.3931 77.1778 26.2703 76.9323C26.1475 76.6868 25.9634 76.4821 25.7178 76.298C25.4723 76.1343 25.1449 76.0524 24.7357 76.0524C24.0809 76.0729 23.6103 76.3184 23.3238 76.7891C23.0374 77.2597 22.8328 77.8326 22.7305 78.5078C22.6895 78.917 22.6486 79.5104 22.5872 80.2675C22.5463 81.0246 22.5054 81.884 22.5054 82.8456C22.4849 83.8073 22.4849 84.7895 22.4645 85.833C22.444 86.8765 22.444 87.8792 22.4645 88.8204C22.4849 89.7821 22.5054 90.621 22.5258 91.3781C22.5463 92.1351 22.6077 92.6876 22.6486 93.0559C22.7918 93.9153 23.0374 94.5087 23.3852 94.836C23.7331 95.1634 24.1423 95.3271 24.5924 95.3271C25.1858 95.3271 25.636 95.143 25.9634 94.7951C26.2907 94.4473 26.5158 93.7516 26.5977 92.8308Z" fill="white"/>
<path d="M56.5737 72.4717V98.6828H52.727C52.2359 98.6828 51.8062 98.4986 51.4788 98.1508C51.1514 97.803 50.9877 97.2914 50.9877 96.6367V89.4956C50.9877 87.6132 51.0082 85.5261 51.0287 83.2344L47.2228 98.6828H45.6268C44.7674 98.6828 44.0922 98.4373 43.6216 97.9257C43.151 97.4346 42.7622 96.6776 42.4553 95.675C42.3939 95.4499 42.2712 94.9997 42.1075 94.3245C41.9438 93.6493 41.7392 92.8718 41.4936 91.9714C41.2481 91.0711 41.0025 90.1299 40.757 89.1478C40.5115 88.1656 40.2659 87.2448 40.0409 86.3855C39.8158 85.5261 39.6316 84.8304 39.4884 84.237C39.3452 83.6641 39.2633 83.3163 39.2429 83.2344V98.6419H36.5215C35.969 98.6419 35.5189 98.4577 35.171 98.0894C34.8232 97.7211 34.639 97.2096 34.639 96.5548V72.4717H38.9564C40.0409 72.4717 40.8798 72.6968 41.4732 73.1265C42.0665 73.5766 42.5167 74.3951 42.8441 75.6023C42.9055 75.8478 43.0078 76.1957 43.1101 76.6663C43.2328 77.1164 43.3556 77.6484 43.5193 78.2214C43.683 78.8147 43.8467 79.449 44.0104 80.1038C44.1741 80.779 44.3582 81.4543 44.5424 82.1295C44.9516 83.7255 45.3813 85.4238 45.8314 87.2653C46.3225 85.3419 46.7931 83.5618 47.2024 81.9658C47.3865 81.2906 47.5502 80.5949 47.7344 79.8992C47.8981 79.2035 48.0617 78.5692 48.205 77.9758C48.3482 77.3824 48.4914 76.8709 48.5937 76.4208C48.7165 75.9706 48.7779 75.6637 48.8393 75.4795C49.0848 74.5383 49.4736 73.7812 50.0056 73.2492C50.5376 72.7172 51.3765 72.4512 52.5428 72.4512H56.5737V72.4717Z" fill="white"/>
<path d="M64.615 94.6928H71.5924V95.4703C71.5924 96.432 71.3059 97.1891 70.7535 97.7825C70.201 98.3759 69.4235 98.6623 68.4209 98.6623H58.8858V72.4717H71.5105V73.3924C71.5105 73.7607 71.4492 74.1086 71.3264 74.4769C71.2036 74.8452 71.0195 75.1726 70.7739 75.459C70.5284 75.7455 70.2419 75.991 69.8941 76.1752C69.5462 76.3593 69.137 76.4412 68.6459 76.4412C68.3799 76.4412 68.0116 76.4412 67.5819 76.4617C67.1523 76.4821 66.6816 76.4821 66.2315 76.4821H64.615V82.6001H70.2215V83.5208C70.2215 83.8892 70.1601 84.237 70.0373 84.6053C69.9146 84.9736 69.7304 85.301 69.4849 85.5875C69.2393 85.8739 68.9324 86.1194 68.5846 86.3036C68.2367 86.4878 67.8275 86.5696 67.3364 86.5696H64.615V94.6928Z" fill="white"/>
<path d="M74.9276 98.6828C74.3752 98.6828 73.925 98.4986 73.5772 98.1303C73.2293 97.762 73.0452 97.2505 73.0452 96.5957V72.4717H83.2964C84.831 72.4717 86.0586 72.84 86.9794 73.597C87.8797 74.3541 88.4322 75.3977 88.6163 76.7686C88.7596 77.8121 88.8209 78.7943 88.8209 79.7355C88.8209 80.6767 88.78 81.5361 88.6777 82.3136C88.4936 83.8073 88.1253 84.9327 87.5728 85.6898C87.0203 86.4468 86.3042 86.9993 85.4039 87.3471C85.4039 87.3881 85.4653 87.5927 85.6085 87.9201C85.7517 88.2679 85.9359 88.6976 86.1609 89.2296C86.386 89.7616 86.6316 90.355 86.918 91.0302C87.184 91.7054 87.4705 92.3807 87.7774 93.0968C88.4526 94.7337 89.2097 96.5957 90.0486 98.6828H85.9563C85.2402 98.6828 84.6263 98.4782 84.1762 98.0689C83.7056 97.6597 83.3782 97.1686 83.1736 96.5753C83.1327 96.432 83.0303 96.166 82.8667 95.7568C82.703 95.3476 82.5188 94.8565 82.3142 94.2836C82.0891 93.7106 81.8641 93.0763 81.6185 92.4011C81.373 91.7259 81.107 91.0302 80.841 90.3345C80.2271 88.7181 79.5519 86.9175 78.7948 84.9327V98.7237H74.9276V98.6828ZM82.8871 81.9044C82.928 81.4338 82.969 80.9222 82.969 80.3902C82.9894 79.8583 82.969 79.3672 82.9076 78.917C82.8871 78.4259 82.8053 78.0167 82.662 77.6893C82.5188 77.3824 82.3551 77.1164 82.1301 76.9323C81.905 76.7481 81.6799 76.6254 81.4139 76.564C81.1479 76.5026 80.8819 76.4617 80.575 76.4617H78.7335V84.7281H80.6364C81.2707 84.7281 81.7822 84.4621 82.171 83.9301C82.5597 83.3981 82.8257 82.7229 82.8871 81.9044Z" fill="white"/>
<path d="M105.661 80.8404C105.415 80.8813 105.108 80.9223 104.76 80.9632C104.413 81.0041 104.044 81.0246 103.655 81.0246C103.226 81.0246 102.796 80.9836 102.387 80.9018C101.978 80.82 101.609 80.6767 101.282 80.4721C100.955 80.2675 100.689 79.981 100.504 79.6332C100.32 79.2854 100.218 78.8352 100.218 78.2827C100.218 77.3006 100.095 76.6663 99.8292 76.3389C99.5632 76.0115 99.1335 75.8683 98.5196 75.8683C97.7626 75.8683 97.2715 76.1343 97.026 76.6663C96.7804 77.1983 96.6576 77.8326 96.6576 78.5897C96.6576 79.449 96.8009 80.1243 97.0669 80.5744C97.3329 81.045 97.7216 81.4338 98.1923 81.7407C98.4378 81.9249 98.8061 82.1704 99.3176 82.5183C99.8087 82.8456 100.341 83.1935 100.893 83.5618C101.446 83.9301 101.937 84.2984 102.407 84.6258C102.878 84.9532 103.185 85.1782 103.369 85.3215C103.737 85.6489 104.085 85.9762 104.413 86.3036C104.74 86.6515 105.026 87.0402 105.272 87.4699C105.517 87.9201 105.702 88.4316 105.824 89.0045C105.968 89.5774 106.029 90.2731 106.029 91.0711C106.029 92.5034 105.906 93.7311 105.681 94.7542C105.456 95.7773 105.047 96.6162 104.453 97.2505C103.86 97.9053 103.062 98.3759 102.059 98.6623C101.057 98.9488 99.7678 99.1125 98.1923 99.1125C96.8827 99.1125 95.7778 98.9692 94.8775 98.6623C93.9772 98.3554 93.261 97.9257 92.7086 97.3937C92.1561 96.8413 91.7469 96.1865 91.5218 95.4294C91.2763 94.6519 91.174 93.7925 91.174 92.8513V89.6184C91.6855 89.4956 92.3198 89.4547 93.036 89.4547C93.4657 89.4547 93.8954 89.4751 94.325 89.5365C94.7547 89.5979 95.1435 89.7207 95.4913 89.9048C95.8392 90.089 96.1052 90.3755 96.3098 90.7438C96.5144 91.1121 96.6167 91.6031 96.6167 92.1965C96.6167 93.1582 96.7395 93.8948 97.0055 94.4473C97.2715 94.9997 97.783 95.2657 98.5606 95.2657C99.2563 95.2657 99.7678 95.0407 100.095 94.611C100.423 94.1813 100.566 93.3424 100.566 92.0942C100.566 91.1325 100.423 90.4368 100.157 89.9662C99.8906 89.4956 99.4609 89.0864 98.8675 88.6976C98.6015 88.5339 98.2127 88.2884 97.7216 87.961C97.2306 87.6336 96.719 87.2653 96.1666 86.897C95.6141 86.5287 95.0821 86.1195 94.5706 85.7307C94.0386 85.3419 93.6089 85.0146 93.2815 84.7486C92.5244 84.1143 92.0129 83.3162 91.706 82.375C91.4195 81.4338 91.2558 80.4516 91.2558 79.4286C91.2558 77.0346 91.8697 75.2135 93.0769 73.9858C94.2841 72.7581 96.1666 72.1443 98.6833 72.1443C99.7064 72.1443 100.648 72.2466 101.487 72.4717C102.346 72.6968 103.062 73.0241 103.676 73.4538C104.29 73.8835 104.76 74.4564 105.129 75.1521C105.477 75.8478 105.661 76.6867 105.681 77.6484V80.8404H105.661Z" fill="white"/>
<path d="M120.495 84.1552C121.089 84.3189 121.58 84.5644 121.968 84.8918C122.357 85.2192 122.685 85.5875 122.91 86.0171C123.135 86.4468 123.298 86.8765 123.401 87.3267C123.503 87.7768 123.564 88.2065 123.585 88.6158C123.626 89.3933 123.646 90.2322 123.626 91.1939C123.605 92.1351 123.524 93.015 123.38 93.8334C123.114 95.368 122.419 96.5752 121.314 97.4142C120.209 98.2735 118.674 98.6828 116.751 98.6828H107.83V72.4717H117.672C118.633 72.4717 119.431 72.5944 120.086 72.8195C120.741 73.0446 121.273 73.3515 121.702 73.7403C122.132 74.129 122.439 74.5997 122.644 75.1317C122.848 75.6841 122.992 76.257 123.053 76.8709C123.114 77.4847 123.155 78.0781 123.155 78.651C123.155 79.2239 123.114 79.8173 123.012 80.4107C122.889 81.2701 122.664 82.0067 122.316 82.641C121.968 83.2548 121.355 83.7664 120.495 84.1552ZM113.559 82.6615H115.052C115.81 82.6615 116.362 82.4978 116.751 82.1909C117.14 81.8635 117.365 81.2906 117.467 80.4107C117.508 80.1243 117.528 79.7969 117.508 79.4286C117.487 79.0603 117.467 78.692 117.426 78.3032C117.406 78.0986 117.365 77.894 117.283 77.6689C117.201 77.4438 117.099 77.2596 116.935 77.096C116.771 76.9323 116.567 76.789 116.301 76.6663C116.035 76.5435 115.707 76.5026 115.298 76.5026H113.538V82.6615H113.559ZM117.569 92.5648C117.631 92.1147 117.692 91.5213 117.733 90.8051C117.774 90.0685 117.733 89.3524 117.651 88.6362C117.61 88.1247 117.426 87.6541 117.099 87.2448C116.771 86.8356 116.198 86.631 115.38 86.631H113.579V94.7951H115.155C115.871 94.7951 116.444 94.6314 116.833 94.3245C117.201 93.9767 117.446 93.4037 117.569 92.5648Z" fill="white"/>
<path d="M131.79 98.6828C131.238 98.6828 130.787 98.4986 130.439 98.1303C130.092 97.762 129.908 97.2505 129.908 96.5957V88.6362L124.506 72.4717H128.291C129.089 72.4717 129.703 72.6354 130.153 72.9832C130.603 73.3311 130.931 73.9244 131.135 74.7838C131.258 75.234 131.422 75.9501 131.647 76.8913C131.872 77.8326 132.117 78.8352 132.363 79.8583C132.629 81.045 132.936 82.2932 133.243 83.6436C133.591 82.1704 133.897 80.7995 134.204 79.5513C134.327 79.0398 134.429 78.5078 134.552 77.9963C134.675 77.4847 134.798 76.9937 134.9 76.5435C135.002 76.0934 135.084 75.725 135.166 75.3977C135.248 75.0907 135.289 74.8657 135.309 74.7429C135.453 74.1495 135.719 73.6175 136.107 73.1674C136.496 72.6967 137.151 72.4717 138.072 72.4717H141.202L135.616 88.7794V98.6828H131.79Z" fill="white"/>
<path d="M142 96.1251C142 95.3271 142.287 94.6519 142.86 94.0994C143.433 93.547 144.108 93.2605 144.906 93.2605C145.295 93.2605 145.663 93.3424 146.011 93.4856C146.359 93.6288 146.665 93.8334 146.931 94.0994C147.197 94.3654 147.402 94.6519 147.545 94.9997C147.689 95.3476 147.77 95.7159 147.77 96.1251C147.77 96.5343 147.689 96.9027 147.545 97.2505C147.402 97.5983 147.197 97.8848 146.931 98.1508C146.665 98.4168 146.359 98.6214 146.011 98.7646C145.663 98.9079 145.295 98.9897 144.906 98.9897C144.108 98.9897 143.433 98.7033 142.86 98.1508C142.287 97.5983 142 96.9231 142 96.1251ZM147.075 91.7668H144.312C143.821 91.7668 143.412 91.6031 143.105 91.2758C142.798 90.9484 142.635 90.4778 142.614 89.8639C142.614 89.7207 142.594 89.4138 142.573 88.9022C142.553 88.3907 142.532 87.7768 142.512 87.0402C142.491 86.3036 142.471 85.4852 142.45 84.6053C142.43 83.7255 142.409 82.8252 142.389 81.9249C142.328 79.8173 142.246 77.4643 142.184 74.8452H146.093C146.563 74.8452 146.972 75.0089 147.3 75.3158C147.627 75.6228 147.791 76.0729 147.791 76.6049L147.075 91.7668Z" fill="white"/>
<path d="M78.9381 29.9733C78.7334 29.9733 78.5288 30.0756 78.447 30.2597L77.3421 32.2036L76.2371 30.2597C76.1348 30.0756 75.9507 29.9733 75.7461 29.9733H72.1449C71.6538 29.9733 71.3878 30.5257 71.6947 30.9145L75.3982 35.5183H75.4801H79.2245H79.3064L83.0099 30.9145C83.3168 30.5462 83.0508 29.9733 82.5597 29.9733H78.9381Z" fill="white"/>
</svg>
