<svg width="167" height="20" viewBox="0 0 167 20" fill="none" xmlns="http://www.w3.org/2000/svg">
<path d="M0.48 19L5.208 3.328H2.832C2.496 3.328 2.2 3.264 1.944 3.136C1.704 3.008 1.496 2.848 1.32 2.656C1.16 2.448 1.032 2.216 0.936 1.96C0.856 1.704 0.816 1.448 0.816 1.192V0.519999H10.344L5.568 16.192H10.368V16.864C10.368 17.12 10.32 17.376 10.224 17.632C10.144 17.888 10.016 18.12 9.84 18.328C9.664 18.52 9.448 18.68 9.192 18.808C8.952 18.936 8.664 19 8.328 19H0.48ZM11.6916 19C11.7076 18.888 11.7716 18.536 11.8836 17.944C12.0116 17.352 12.1716 16.616 12.3636 15.736C12.5556 14.84 12.7636 13.848 12.9876 12.76C13.2116 11.672 13.4436 10.56 13.6836 9.424C14.2276 6.784 14.8436 3.816 15.5316 0.519999H18.8676C19.6356 0.519999 20.2276 0.679999 20.6436 0.999999C21.0596 1.32 21.3796 1.904 21.6036 2.752C21.6516 2.928 21.7316 3.296 21.8436 3.856C21.9716 4.4 22.1156 5.072 22.2756 5.872C22.4516 6.656 22.6356 7.528 22.8276 8.488C23.0356 9.432 23.2356 10.392 23.4276 11.368C23.8916 13.656 24.4036 16.2 24.9636 19H22.4916C21.9796 19 21.5556 18.856 21.2196 18.568C20.8836 18.28 20.6756 17.928 20.5956 17.512L19.7316 13.264H16.6356L15.6996 17.512C15.6196 17.928 15.4116 18.28 15.0756 18.568C14.7396 18.856 14.3156 19 13.8036 19H11.6916ZM19.2516 10.432L18.2916 4.528L17.2116 10.432H19.2516ZM27.951 19C27.567 19 27.247 18.872 26.991 18.616C26.751 18.36 26.631 18 26.631 17.536V0.519999H33.855C34.943 0.519999 35.807 0.783999 36.447 1.312C37.087 1.84 37.471 2.584 37.599 3.544C37.695 4.28 37.743 4.976 37.743 5.632C37.743 6.288 37.711 6.896 37.647 7.456C37.519 8.512 37.255 9.304 36.855 9.832C36.471 10.36 35.967 10.752 35.343 11.008C35.343 11.04 35.391 11.176 35.487 11.416C35.583 11.656 35.711 11.968 35.871 12.352C36.031 12.72 36.207 13.144 36.399 13.624C36.591 14.088 36.791 14.568 36.999 15.064C37.479 16.216 38.015 17.528 38.607 19H35.727C35.215 19 34.791 18.856 34.455 18.568C34.135 18.28 33.903 17.928 33.759 17.512C33.727 17.416 33.655 17.224 33.543 16.936C33.431 16.648 33.295 16.304 33.135 15.904C32.991 15.488 32.831 15.04 32.655 14.56C32.479 14.08 32.295 13.592 32.103 13.096C31.671 11.96 31.191 10.688 30.663 9.28V19H27.951ZM33.567 7.168C33.599 6.832 33.615 6.48 33.615 6.112C33.631 5.728 33.623 5.376 33.591 5.056C33.575 4.704 33.519 4.416 33.423 4.192C33.327 3.968 33.199 3.792 33.039 3.664C32.895 3.536 32.727 3.448 32.535 3.4C32.359 3.352 32.167 3.328 31.959 3.328H30.663V9.16H32.007C32.455 9.16 32.815 8.976 33.087 8.608C33.359 8.224 33.519 7.744 33.567 7.168ZM58.9065 19H54.2025C53.6905 19 53.2665 18.856 52.9305 18.568C52.5945 18.28 52.3785 17.928 52.2825 17.512C52.2505 17.368 52.1705 17.008 52.0425 16.432C51.9305 15.856 51.7865 15.16 51.6105 14.344C51.4505 13.512 51.2745 12.608 51.0825 11.632C50.8905 10.656 50.7065 9.704 50.5305 8.776C50.3545 7.848 50.1945 6.992 50.0505 6.208C49.9065 5.408 49.8025 4.784 49.7385 4.336V18.976H47.5785C47.1945 18.976 46.8745 18.848 46.6185 18.592C46.3785 18.336 46.2585 17.976 46.2585 17.512V0.568H50.9385C51.4505 0.568 51.8745 0.711999 52.2105 0.999999C52.5465 1.288 52.7625 1.64 52.8585 2.056C52.8905 2.2 52.9625 2.56 53.0745 3.136C53.2025 3.712 53.3465 4.416 53.5065 5.248C53.6825 6.064 53.8665 6.96 54.0585 7.936C54.2505 8.912 54.4345 9.864 54.6105 10.792C54.7865 11.72 54.9465 12.584 55.0905 13.384C55.2345 14.168 55.3385 14.784 55.4025 15.232V0.568H57.5865C57.9705 0.568 58.2825 0.696 58.5225 0.951999C58.7785 1.208 58.9065 1.568 58.9065 2.032V19ZM65.2839 19H62.5719C62.1879 19 61.8679 18.872 61.6119 18.616C61.3719 18.36 61.2519 17.992 61.2519 17.512V0.519999H63.9639C64.3479 0.519999 64.6599 0.647999 64.8999 0.904C65.1559 1.16 65.2839 1.52 65.2839 1.984V19ZM67.0678 12.784C67.2118 12.768 67.3718 12.752 67.5478 12.736C67.6918 12.72 67.8518 12.712 68.0278 12.712C68.2198 12.696 68.4198 12.688 68.6278 12.688C69.0598 12.688 69.4118 12.76 69.6838 12.904C69.9718 13.032 70.1958 13.208 70.3558 13.432C70.5318 13.656 70.6518 13.904 70.7158 14.176C70.7958 14.448 70.8358 14.712 70.8358 14.968C70.8358 15.656 70.9318 16.096 71.1238 16.288C71.3158 16.464 71.5958 16.552 71.9638 16.552C72.3158 16.552 72.5718 16.456 72.7318 16.264C72.9078 16.072 72.9958 15.752 72.9958 15.304V0.519999H75.7078C76.0918 0.519999 76.4038 0.647999 76.6438 0.904C76.8998 1.16 77.0278 1.52 77.0278 1.984V15.112C77.0278 16.12 76.8678 16.904 76.5478 17.464C76.2438 18.024 75.8358 18.44 75.3238 18.712C74.8118 18.984 74.2278 19.152 73.5718 19.216C72.9158 19.28 72.2438 19.312 71.5558 19.312C70.1798 19.312 69.0998 18.944 68.3158 18.208C67.5318 17.472 67.1238 16.416 67.0918 15.04C67.0918 14.88 67.0838 14.688 67.0678 14.464C67.0678 14.224 67.0678 13.992 67.0678 13.768C67.0678 13.544 67.0678 13.344 67.0678 13.168C67.0678 12.976 67.0678 12.848 67.0678 12.784ZM83.3411 16.192H88.2611V16.744C88.2611 17.416 88.0611 17.96 87.6611 18.376C87.2771 18.792 86.7331 19 86.0291 19H79.3091V0.519999H88.2131V1.168C88.2131 1.424 88.1651 1.68 88.0691 1.936C87.9891 2.192 87.8611 2.424 87.6851 2.632C87.5251 2.84 87.3171 3.008 87.0611 3.136C86.8211 3.264 86.5331 3.328 86.1971 3.328C86.0051 3.328 85.7491 3.336 85.4291 3.352C85.1251 3.352 84.8131 3.352 84.4931 3.352H83.3411V7.672H87.3011V8.32C87.3011 8.576 87.2531 8.832 87.1571 9.088C87.0771 9.344 86.9491 9.576 86.7731 9.784C86.5971 9.992 86.3811 10.16 86.1251 10.288C85.8851 10.416 85.5971 10.48 85.2611 10.48H83.3411V16.192ZM96.0069 19V0.519999H101.263C102.207 0.519999 103.007 0.623999 103.663 0.831999C104.319 1.024 104.855 1.304 105.271 1.672C105.703 2.024 106.023 2.464 106.231 2.992C106.439 3.504 106.575 4.072 106.639 4.696C106.703 5.352 106.751 6.088 106.783 6.904C106.831 7.704 106.855 8.632 106.855 9.688C106.855 10.12 106.847 10.584 106.831 11.08C106.831 11.56 106.823 12.032 106.807 12.496C106.791 12.96 106.767 13.4 106.735 13.816C106.719 14.216 106.687 14.552 106.639 14.824C106.447 16.184 105.959 17.216 105.175 17.92C104.407 18.624 103.183 18.984 101.503 19H96.0069ZM101.311 16.24C101.743 16.24 102.071 16.112 102.295 15.856C102.535 15.6 102.687 15.144 102.751 14.488C102.767 14.328 102.783 14.072 102.799 13.72C102.815 13.368 102.823 12.976 102.823 12.544C102.839 12.096 102.847 11.624 102.847 11.128C102.847 10.632 102.847 10.152 102.847 9.688C102.847 8.632 102.831 7.712 102.799 6.928C102.783 6.128 102.751 5.504 102.703 5.056C102.687 4.896 102.655 4.72 102.607 4.528C102.559 4.32 102.479 4.128 102.367 3.952C102.255 3.776 102.103 3.632 101.911 3.52C101.719 3.392 101.479 3.328 101.191 3.328H100.039V16.24H101.311ZM113.11 19H110.398C110.014 19 109.694 18.872 109.438 18.616C109.198 18.36 109.078 17.992 109.078 17.512V0.519999H111.79C112.174 0.519999 112.486 0.647999 112.726 0.904C112.982 1.16 113.11 1.52 113.11 1.984V19ZM120.63 19C119.862 19 119.254 18.84 118.806 18.52C118.358 18.2 118.054 17.616 117.894 16.768L114.894 0.519999H117.702C118.23 0.519999 118.662 0.663999 118.998 0.951999C119.334 1.24 119.534 1.592 119.598 2.008L121.398 15.76L123.03 0.519999H125.598C125.966 0.519999 126.294 0.607999 126.582 0.783998C126.886 0.943999 127.038 1.248 127.038 1.696C127.038 1.84 126.99 2.2 126.894 2.776C126.814 3.352 126.702 4.056 126.558 4.888C126.43 5.72 126.278 6.648 126.102 7.672C125.926 8.68 125.742 9.704 125.55 10.744C125.374 11.784 125.198 12.8 125.022 13.792C124.846 14.768 124.686 15.64 124.542 16.408C124.414 17.176 124.31 17.8 124.23 18.28C124.15 18.744 124.118 18.984 124.134 19H120.63ZM141.471 19H136.767C136.255 19 135.831 18.856 135.495 18.568C135.159 18.28 134.943 17.928 134.847 17.512C134.815 17.368 134.735 17.008 134.607 16.432C134.495 15.856 134.351 15.16 134.175 14.344C134.015 13.512 133.839 12.608 133.647 11.632C133.455 10.656 133.271 9.704 133.095 8.776C132.919 7.848 132.759 6.992 132.615 6.208C132.471 5.408 132.367 4.784 132.303 4.336V18.976H130.143C129.759 18.976 129.439 18.848 129.183 18.592C128.943 18.336 128.823 17.976 128.823 17.512V0.568H133.503C134.015 0.568 134.439 0.711999 134.775 0.999999C135.111 1.288 135.327 1.64 135.423 2.056C135.455 2.2 135.527 2.56 135.639 3.136C135.767 3.712 135.911 4.416 136.071 5.248C136.247 6.064 136.431 6.96 136.623 7.936C136.815 8.912 136.999 9.864 137.175 10.792C137.351 11.72 137.511 12.584 137.655 13.384C137.799 14.168 137.903 14.784 137.967 15.232V0.568H140.151C140.535 0.568 140.847 0.696 141.087 0.951999C141.343 1.208 141.471 1.568 141.471 2.032V19ZM149.409 0.279999C150.353 0.279999 151.145 0.383999 151.785 0.592C152.425 0.783999 152.945 1.064 153.345 1.432C153.745 1.784 154.041 2.224 154.233 2.752C154.425 3.264 154.553 3.832 154.617 4.456C154.681 5.048 154.729 5.824 154.761 6.784C154.793 7.744 154.809 8.744 154.809 9.784C154.809 10.824 154.785 11.832 154.737 12.808C154.705 13.784 154.641 14.576 154.545 15.184C154.353 16.544 153.857 17.568 153.057 18.256C152.257 18.928 151.049 19.28 149.433 19.312C148.601 19.312 147.857 19.248 147.201 19.12C146.561 19.008 146.009 18.8 145.545 18.496C145.081 18.176 144.713 17.752 144.441 17.224C144.169 16.696 143.985 16.024 143.889 15.208C143.857 14.904 143.825 14.48 143.793 13.936C143.777 13.392 143.761 12.792 143.745 12.136C143.729 11.464 143.713 10.768 143.697 10.048C143.697 9.312 143.705 8.608 143.721 7.936C143.737 7.248 143.753 6.616 143.769 6.04C143.801 5.464 143.841 5 143.889 4.648C144.001 3.768 144.225 3.048 144.561 2.488C144.897 1.912 145.305 1.464 145.785 1.144C146.281 0.807999 146.833 0.583999 147.441 0.472C148.065 0.343999 148.721 0.279999 149.409 0.279999ZM150.657 14.872C150.673 14.648 150.689 14.28 150.705 13.768C150.737 13.24 150.753 12.648 150.753 11.992C150.769 11.336 150.777 10.64 150.777 9.904C150.793 9.168 150.793 8.464 150.777 7.792C150.777 7.12 150.769 6.512 150.753 5.968C150.737 5.424 150.713 5.016 150.681 4.744C150.665 4.584 150.641 4.408 150.609 4.216C150.577 4.008 150.513 3.816 150.417 3.64C150.337 3.464 150.209 3.32 150.033 3.208C149.857 3.08 149.625 3.016 149.337 3.016C148.873 3.032 148.537 3.208 148.329 3.544C148.137 3.864 148.001 4.264 147.921 4.744C147.889 5.032 147.857 5.448 147.825 5.992C147.793 6.52 147.769 7.12 147.753 7.792C147.753 8.464 147.745 9.168 147.729 9.904C147.729 10.64 147.729 11.344 147.729 12.016C147.745 12.688 147.761 13.288 147.777 13.816C147.809 14.344 147.841 14.736 147.873 14.992C147.969 15.6 148.137 16.024 148.377 16.264C148.633 16.488 148.921 16.6 149.241 16.6C149.657 16.6 149.977 16.48 150.201 16.24C150.441 15.984 150.593 15.528 150.657 14.872ZM158.876 17.2C158.876 16.64 159.076 16.168 159.476 15.784C159.876 15.384 160.356 15.184 160.916 15.184C161.188 15.184 161.444 15.24 161.684 15.352C161.94 15.448 162.156 15.592 162.332 15.784C162.524 15.96 162.668 16.168 162.764 16.408C162.876 16.648 162.932 16.912 162.932 17.2C162.932 17.488 162.876 17.752 162.764 17.992C162.668 18.232 162.524 18.448 162.332 18.64C162.156 18.816 161.94 18.952 161.684 19.048C161.444 19.16 161.188 19.216 160.916 19.216C160.356 19.216 159.876 19.024 159.476 18.64C159.076 18.24 158.876 17.76 158.876 17.2ZM161.156 1.864C161.876 1.864 162.532 1.96 163.124 2.152C163.716 2.328 164.228 2.592 164.66 2.944C165.092 3.28 165.42 3.696 165.644 4.192C165.884 4.672 166.004 5.208 166.004 5.8C166.004 6.44 165.916 7 165.74 7.48C165.58 7.96 165.372 8.392 165.116 8.776C164.86 9.144 164.58 9.48 164.276 9.784C163.988 10.088 163.716 10.384 163.46 10.672C163.204 10.96 162.988 11.256 162.812 11.56C162.652 11.864 162.572 12.2 162.572 12.568V14.032C162.412 14.064 162.228 14.088 162.02 14.104C161.844 14.12 161.628 14.136 161.372 14.152C161.116 14.152 160.828 14.152 160.508 14.152C160.14 14.152 159.852 14.112 159.644 14.032C159.436 13.952 159.276 13.84 159.164 13.696C159.068 13.552 159.004 13.376 158.972 13.168C158.94 12.96 158.924 12.72 158.924 12.448V12.256C158.924 11.776 159.012 11.368 159.188 11.032C159.364 10.68 159.58 10.36 159.836 10.072C160.092 9.784 160.364 9.512 160.652 9.256C160.956 8.984 161.236 8.696 161.492 8.392C161.764 8.072 161.988 7.712 162.164 7.312C162.356 6.912 162.468 6.432 162.5 5.872C162.468 5.28 162.34 4.872 162.116 4.648C161.892 4.408 161.612 4.288 161.276 4.288C160.86 4.288 160.54 4.408 160.316 4.648C160.108 4.888 160.004 5.368 160.004 6.088C160.004 6.472 159.884 6.768 159.644 6.976C159.404 7.184 159.124 7.344 158.804 7.456C158.404 7.584 158.012 7.648 157.628 7.648C157.26 7.648 156.916 7.608 156.596 7.528C156.596 7.464 156.596 7.352 156.596 7.192C156.596 7.016 156.596 6.824 156.596 6.616C156.596 6.408 156.596 6.2 156.596 5.992C156.612 5.768 156.62 5.584 156.62 5.44C156.652 4.176 157.084 3.264 157.916 2.704C158.748 2.144 159.828 1.864 161.156 1.864Z" fill="#FFFDE9"/>
</svg>
